{"glyphs":{"0":{"ha":857,"x_min":0,"x_max":0,"o":"m 319 647 l 319 647 b 432 785 331 706 358 785 b 557 499 551 785 557 579 b 432 211 557 417 551 211 b 319 350 358 211 331 290 b 300 363 318 360 308 364 b 288 343 292 361 286 351 b 432 179 303 267 340 179 b 590 499 578 179 590 394 b 432 818 590 601 578 818 b 288 653 340 818 303 729 b 300 633 286 643 292 635 b 319 647 308 632 318 638 z m 749 349 l 749 349 b 432 10 721 169 636 10 b 104 499 165 10 104 282 b 432 986 104 715 165 986 b 749 647 636 986 721 828 b 768 633 750 638 758 632 b 781 653 776 635 782 642 b 432 1018 751 849 651 1018 b 72 499 144 1018 72 733 b 432 -22 72 263 144 -22 b 781 344 651 -22 751 147 b 768 363 782 354 776 361 b 749 349 758 364 750 358 z "},"1":{"ha":528,"x_min":0,"x_max":0,"o":"m 58 778 l 58 778 l 185 778 l 185 0 b 200 -17 185 -10 192 -17 b 217 0 210 -17 217 -10 l 217 793 b 200 810 217 803 210 810 l 58 810 b 42 793 50 810 42 803 b 58 778 42 785 50 778 z m 415 0 l 415 0 l 415 992 b 399 1008 415 1001 408 1008 l 58 1008 b 42 992 50 1008 42 1001 b 58 975 42 983 50 975 l 383 975 l 383 0 b 399 -17 383 -10 390 -17 b 415 0 408 -17 415 -10 z "},"2":{"ha":776,"x_min":0,"x_max":0,"o":"m 619 494 l 619 494 b 689 707 667 567 692 618 b 589 928 685 794 647 871 b 360 1026 529 985 449 1022 b 138 988 274 1031 217 1019 b 129 965 131 982 126 974 b 150 957 133 957 142 953 b 358 994 224 988 278 999 b 567 906 439 990 511 957 b 657 706 619 854 654 785 b 592 513 661 624 635 578 l 393 207 b 407 183 385 196 393 183 l 692 183 b 708 199 701 183 708 190 b 692 214 708 207 701 214 l 436 214 z m 186 749 l 186 749 b 350 792 246 779 278 794 b 414 765 375 790 399 781 b 400 599 467 715 433 649 l 11 4 b 26 -21 4 -7 13 -21 l 701 -21 b 717 -6 710 -21 717 -14 b 701 11 717 4 710 11 l 56 11 l 428 581 b 438 789 471 646 503 728 b 351 824 415 810 385 822 b 172 779 274 828 236 811 b 165 756 164 775 161 765 b 186 749 168 749 178 744 z "},"3":{"ha":654,"x_min":0,"x_max":0,"o":"m 50 18 l 50 18 b 154 -14 82 6 117 -6 b 518 497 554 -92 715 304 b 575 579 542 522 563 549 b 50 978 689 829 431 1135 b 42 958 42 975 39 965 b 64 950 46 947 51 946 b 161 978 81 954 111 969 b 483 510 547 1054 671 663 b 547 401 458 490 513 476 b 64 47 647 181 415 -97 b 50 18 43 56 31 26 z m 89 742 l 89 742 b 331 639 267 829 438 744 b 201 615 297 607 254 615 b 201 583 181 615 181 583 b 354 617 263 583 311 575 b 76 772 449 710 354 908 b 89 742 54 763 71 733 z m 75 225 l 75 225 b 269 181 140 193 194 176 b 269 413 432 189 421 413 b 186 397 228 413 186 422 b 331 357 186 357 279 407 b 90 253 436 253 267 164 b 75 225 69 263 56 235 z "},"4":{"ha":800,"x_min":0,"x_max":0,"o":"m 640 1 l 640 1 l 640 282 l 749 282 b 765 297 758 282 765 289 b 749 314 765 307 758 314 l 624 314 b 607 297 614 314 607 307 l 607 1 b 624 -15 607 -7 614 -15 b 640 1 633 -15 640 -7 z m 425 513 l 425 513 l 329 513 l 522 986 b 514 1007 525 994 522 1004 b 493 999 506 1010 496 1006 l 292 503 b 290 497 290 501 290 499 b 306 481 290 489 297 481 l 425 481 b 442 497 433 481 442 489 b 425 513 442 506 433 513 z m 749 513 l 749 513 l 640 513 l 640 665 b 624 682 640 674 633 682 b 607 665 614 682 607 674 l 607 497 b 624 481 607 489 614 481 l 749 481 b 765 497 758 481 765 489 b 749 513 765 506 758 513 z m 278 999 l 278 999 l -4 306 b 11 282 -8 293 0 282 l 410 282 l 410 1 b 425 -15 410 -7 417 -15 b 442 1 433 -15 442 -7 l 442 297 b 425 314 442 307 433 314 l 35 314 l 308 986 b 300 1007 311 994 307 1004 b 278 999 292 1010 283 1006 z "},"5":{"ha":785,"x_min":0,"x_max":0,"o":"m 639 813 l 639 813 l 336 813 b 321 796 328 813 321 806 l 321 631 b 335 615 321 622 326 615 b 615 508 467 596 557 560 b 694 315 671 460 694 394 b 615 107 694 235 667 161 b 414 18 568 56 499 22 b 78 68 310 13 176 31 b 57 60 69 72 61 68 b 67 39 54 51 58 42 b 415 -14 169 -1 307 -19 b 639 85 510 -8 586 28 b 726 315 696 144 726 226 b 636 533 726 404 700 476 b 353 644 576 586 485 624 l 353 781 l 639 781 b 656 796 647 781 656 788 b 639 813 656 806 647 813 z m 639 1011 l 639 1011 l 139 1011 b 122 994 129 1011 122 1003 l 122 474 b 139 457 122 464 131 458 b 407 407 267 449 351 429 b 496 318 474 379 494 346 b 340 214 496 239 404 214 b 103 261 282 213 203 225 b 82 251 94 264 85 260 b 92 231 79 243 83 233 b 342 181 197 194 278 181 b 528 318 425 183 529 219 b 419 436 526 358 501 403 b 154 489 364 460 279 479 l 154 978 l 639 978 b 656 994 647 978 656 986 b 639 1011 656 1003 647 1011 z "},"6":{"ha":733,"x_min":0,"x_max":0,"o":"m 369 581 l 369 581 b 368 574 369 576 368 575 b 383 557 368 565 374 557 b 643 313 529 546 632 464 b 576 107 650 235 624 161 b 183 79 475 -11 300 -24 b 119 446 72 176 65 318 b 347 985 196 625 271 806 b 339 1006 350 993 347 1001 b 318 997 331 1008 321 1004 b 90 457 242 817 167 638 b 163 56 31 318 40 161 b 601 86 293 -60 489 -44 b 675 314 653 149 682 229 b 408 586 664 472 560 567 l 581 982 b 572 1003 585 990 581 1000 b 553 996 564 1007 556 1003 z m 342 375 l 342 375 b 433 299 390 378 431 346 b 354 208 438 250 401 211 b 340 190 346 207 339 200 b 356 176 340 182 347 176 b 465 300 421 181 469 235 b 340 406 461 365 404 413 b 325 390 331 406 324 399 b 342 375 325 381 333 374 z "},"7":{"ha":688,"x_min":0,"x_max":0,"o":"m 39 975 l 39 975 l 674 975 l 292 6 b 300 -15 288 -3 292 -12 b 321 -6 308 -18 318 -14 l 713 986 b 697 1008 717 996 710 1008 l 39 1008 b 22 992 29 1008 22 1001 b 39 975 22 983 29 975 z m 39 778 l 39 778 l 388 778 l 83 6 b 93 -15 81 -3 85 -12 b 114 -6 101 -18 110 -14 l 426 788 b 413 810 431 797 424 810 l 39 810 b 22 793 29 810 22 803 b 39 778 22 785 29 778 z "},"8":{"ha":743,"x_min":0,"x_max":0,"o":"m 346 383 l 346 383 b 431 301 392 383 431 349 b 346 217 431 251 392 217 b 329 201 336 217 329 210 b 346 185 329 192 336 185 b 463 301 411 185 463 235 b 346 417 463 365 411 417 b 329 399 336 417 329 410 b 346 383 329 390 336 383 z m 346 782 l 346 782 b 431 699 392 782 431 746 b 346 614 431 650 392 614 b 328 599 336 614 328 607 b 346 582 328 590 336 582 b 463 699 411 582 463 633 b 346 814 463 763 411 814 b 328 797 336 814 328 807 b 346 782 328 789 336 782 z m 85 301 l 85 301 b 156 489 85 369 108 436 b 153 513 163 497 160 506 b 85 699 108 564 85 631 b 640 699 85 1069 640 1069 b 569 510 640 629 615 563 b 571 489 564 503 564 494 b 640 301 615 435 640 369 b 363 18 640 146 518 18 b 347 1 354 18 347 10 b 363 -14 347 -7 354 -14 b 672 301 536 -14 672 129 b 603 499 672 374 647 442 b 672 699 647 556 672 626 b 53 699 672 1111 53 1111 b 122 499 53 626 76 556 b 53 301 76 442 53 374 b 68 285 53 292 60 285 b 85 301 76 285 85 292 z "},"9":{"ha":742,"x_min":0,"x_max":0,"o":"m 361 413 l 361 413 b 365 418 364 414 365 417 b 349 435 365 428 357 435 b 90 679 204 447 100 529 b 156 885 83 756 110 829 b 549 913 257 1003 432 1015 b 613 546 660 815 665 674 b 385 8 536 368 461 188 b 393 -12 382 0 385 -10 b 414 -4 403 -17 411 -12 b 642 535 490 175 567 354 b 569 936 700 674 692 829 b 132 904 439 1050 244 1038 b 57 678 79 844 51 764 b 325 407 68 521 174 425 l 151 11 b 160 -11 149 3 151 -7 b 181 -3 168 -14 178 -11 z m 390 617 l 390 617 b 299 694 343 614 303 646 b 378 783 296 742 331 781 b 392 801 386 783 393 792 b 376 815 392 810 385 817 b 267 692 311 811 263 758 b 392 585 271 626 328 581 b 407 603 400 586 408 593 b 390 617 407 611 399 618 z "},"A":{"ha":899,"x_min":0,"x_max":0,"o":"m 374 290 l 374 290 l 519 290 b 536 306 529 290 536 297 b 535 313 536 308 536 310 l 463 490 b 440 500 458 500 450 504 b 432 479 433 497 429 488 l 497 321 l 374 321 b 357 306 365 321 357 314 b 374 290 357 297 365 290 z m 269 10 l 269 10 l 303 90 l 590 90 l 624 10 b 644 0 628 0 636 -3 b 654 21 653 3 657 14 l 617 111 b 601 121 615 117 610 121 l 293 121 b 278 111 286 121 279 118 l 240 21 b 250 0 236 14 240 3 b 269 10 258 -3 267 0 z m 54 10 l 54 10 l 447 972 l 840 10 b 861 0 843 0 853 -3 b 869 21 869 3 872 14 l 463 1019 b 432 1019 457 1033 438 1035 l 25 21 b 33 0 21 14 25 3 b 54 10 42 -3 51 0 z "},"B":{"ha":896,"x_min":0,"x_max":0,"o":"m 501 182 l 501 182 b 621 299 568 182 621 232 b 501 413 621 364 568 413 l 328 413 b 310 397 318 413 310 406 b 328 382 310 389 318 382 l 501 382 b 588 299 549 382 588 347 b 501 215 588 250 549 215 l 444 215 b 429 199 436 215 429 207 b 444 182 429 190 436 182 z m 328 779 l 328 779 l 501 779 b 588 696 549 779 588 744 b 501 613 588 647 549 613 l 444 613 b 429 596 436 613 429 606 b 444 581 429 588 436 581 l 501 581 b 621 696 568 581 621 631 b 501 811 621 761 568 811 l 328 811 b 310 796 317 811 310 804 b 328 779 310 788 317 779 z m 144 0 l 144 0 l 144 979 l 519 979 b 797 696 675 979 797 851 b 728 507 797 626 774 560 b 728 486 722 501 722 492 b 797 299 774 433 797 368 b 519 15 797 144 675 15 l 328 15 b 311 0 318 15 311 8 b 328 -18 311 -11 318 -18 l 519 -18 b 831 299 693 -18 831 125 b 761 497 831 371 806 440 b 831 696 806 553 831 624 b 519 1013 831 869 693 1013 l 126 1013 b 111 994 118 1013 111 1004 l 111 0 b 126 -18 111 -11 118 -18 b 144 0 136 -18 144 -11 z "},"C":{"ha":842,"x_min":0,"x_max":0,"o":"m 783 978 l 783 978 b 582 1018 719 1004 651 1018 b 107 713 335 1018 176 885 b 107 292 53 581 53 425 b 582 -12 176 121 335 -12 b 783 26 651 -12 719 0 b 792 49 792 31 796 39 b 771 57 789 56 778 60 b 582 19 711 31 647 19 b 135 304 349 19 200 143 b 135 701 85 429 85 575 b 582 986 200 860 349 986 b 771 949 647 986 711 974 b 792 957 778 946 789 949 b 783 978 794 965 792 975 z m 744 260 l 744 260 b 582 218 690 229 644 218 b 328 385 449 218 365 290 b 328 619 299 458 299 546 b 582 786 365 713 449 786 b 744 746 644 786 690 775 b 765 751 753 742 761 744 b 760 774 769 760 767 769 b 582 818 700 807 650 818 b 299 631 435 818 339 736 b 299 374 267 550 267 456 b 582 188 339 268 435 188 b 760 232 650 188 700 199 b 765 253 767 236 769 246 b 744 260 761 261 753 264 z "},"D":{"ha":1011,"x_min":0,"x_max":0,"o":"m 424 1008 l 424 1008 l 126 1008 b 111 993 118 1008 111 1001 l 111 0 b 126 -15 111 -8 118 -15 b 143 0 136 -15 143 -8 l 143 976 l 424 976 b 865 693 654 976 801 853 b 865 300 915 569 915 424 b 424 17 801 140 654 17 l 324 17 b 307 0 314 17 307 10 b 324 -15 307 -8 314 -15 l 424 -15 b 894 288 669 -15 826 118 b 894 706 949 419 949 574 b 424 1008 826 876 669 1008 z m 342 397 l 342 397 l 342 779 l 424 779 b 675 613 554 779 638 706 b 675 381 703 540 703 454 b 424 215 638 288 554 215 l 325 215 b 308 199 317 215 308 207 b 325 182 308 190 317 182 l 424 182 b 704 369 569 182 664 264 b 704 625 736 450 736 543 b 424 811 664 729 569 811 l 325 811 b 308 794 317 811 308 804 l 308 397 b 325 382 308 389 317 382 b 342 397 333 382 342 389 z "},"E":{"ha":732,"x_min":0,"x_max":0,"o":"m 549 414 l 549 414 l 326 414 b 310 397 317 414 310 407 l 310 199 b 326 183 310 190 317 183 l 642 183 b 657 199 650 183 657 190 b 642 215 657 208 650 215 l 342 215 l 342 382 l 549 382 b 565 397 558 382 565 389 b 549 414 565 407 558 414 z m 642 810 l 642 810 l 326 810 b 310 794 317 810 310 803 l 310 596 b 326 579 310 588 317 579 l 549 579 b 565 596 558 579 565 588 b 549 613 565 604 558 613 l 342 613 l 342 778 l 642 778 b 657 794 650 778 657 785 b 642 810 657 803 650 810 z m 642 17 l 642 17 l 143 17 l 143 976 l 642 976 b 657 993 650 976 657 983 b 642 1008 657 1001 650 1008 l 128 1008 b 111 993 118 1008 111 1001 l 111 0 b 128 -15 111 -8 118 -15 l 642 -15 b 657 0 650 -15 657 -8 b 642 17 657 10 650 17 z "},"F":{"ha":711,"x_min":0,"x_max":0,"o":"m 550 414 l 550 414 l 326 414 b 310 397 317 414 310 407 l 310 0 b 343 0 310 -21 343 -21 l 343 381 l 550 381 b 550 414 571 381 571 414 z m 642 810 l 642 810 l 326 810 b 310 794 317 810 310 803 l 310 596 b 326 579 310 588 317 579 l 550 579 b 550 613 571 579 571 613 l 343 613 l 343 778 l 642 778 b 642 810 663 778 663 810 z m 144 0 l 144 0 l 144 976 l 642 976 b 642 1008 663 976 663 1008 l 128 1008 b 111 993 119 1008 111 1001 l 111 0 b 144 0 111 -21 144 -21 z "},"G":{"ha":967,"x_min":0,"x_max":0,"o":"m 826 71 l 826 71 b 586 10 753 29 669 10 b 142 285 361 10 211 129 b 135 692 85 411 83 563 b 588 983 201 851 349 976 b 814 950 665 986 740 974 b 835 960 822 947 831 951 b 824 981 838 968 832 978 b 586 1017 746 1006 668 1019 b 106 704 333 1008 175 874 b 113 272 50 567 53 406 b 586 -24 186 106 346 -24 b 851 47 679 -24 769 1 b 858 63 856 51 860 57 l 858 497 b 843 513 858 506 851 513 b 826 497 835 513 826 506 z m 800 779 l 800 779 b 586 815 733 810 658 818 b 299 624 436 810 340 728 b 304 360 267 540 268 442 b 586 178 347 257 443 178 b 643 183 606 178 625 179 b 657 199 651 183 657 190 l 657 497 b 642 513 657 506 650 513 b 625 497 632 513 625 506 l 625 214 b 586 211 611 211 599 211 b 333 372 457 211 374 281 b 329 611 300 446 299 536 b 588 782 367 704 451 778 b 788 750 656 786 724 778 b 808 758 796 746 806 750 b 800 779 813 765 808 775 z "},"H":{"ha":950,"x_min":0,"x_max":0,"o":"m 639 0 l 639 0 l 639 397 b 622 414 639 407 632 414 l 325 414 b 308 397 317 414 308 407 l 308 0 b 325 -15 308 -8 317 -15 b 342 0 333 -15 342 -8 l 342 382 l 607 382 l 607 0 b 622 -15 607 -8 614 -15 b 639 0 632 -15 639 -8 z m 308 993 l 308 993 l 308 596 b 325 579 308 588 317 579 l 622 579 b 639 596 632 579 639 588 l 639 993 b 622 1008 639 1001 632 1008 b 607 993 614 1008 607 1001 l 607 613 l 342 613 l 342 993 b 325 1008 342 1001 333 1008 b 308 993 317 1008 308 1001 z m 806 993 l 806 993 l 806 0 b 821 -15 806 -8 813 -15 b 838 0 831 -15 838 -8 l 838 993 b 821 1008 838 1001 831 1008 b 806 993 813 1008 806 1001 z m 143 0 l 143 0 l 143 993 b 126 1008 143 1001 136 1008 b 111 993 118 1008 111 1001 l 111 0 b 126 -15 111 -8 118 -15 b 143 0 136 -15 143 -8 z "},"I":{"ha":454,"x_min":0,"x_max":0,"o":"m 342 0 l 342 0 l 342 993 b 326 1008 342 1001 335 1008 b 310 993 317 1008 310 1001 l 310 0 b 326 -15 310 -8 317 -15 b 342 0 335 -15 342 -8 z m 143 0 l 143 0 l 143 993 b 128 1008 143 1001 136 1008 b 111 993 118 1008 111 1001 l 111 0 b 128 -15 111 -8 118 -15 b 143 0 136 -15 143 -8 z "},"K":{"ha":853,"x_min":0,"x_max":0,"o":"m 143 0 l 143 0 l 143 993 b 128 1008 143 1001 136 1008 b 111 993 118 1008 111 1001 l 111 0 b 128 -15 111 -8 118 -15 b 143 0 136 -15 143 -8 z m 540 1003 l 540 1003 l 342 736 l 342 993 b 326 1008 342 1001 335 1008 b 310 993 317 1008 310 1001 l 310 689 b 317 675 310 683 311 678 b 339 678 324 669 333 671 l 567 983 b 564 1006 572 990 571 1000 b 540 1003 556 1011 546 1010 z m 588 10 l 588 10 l 339 357 b 317 361 333 365 324 367 b 310 347 313 358 310 353 l 310 0 b 326 -15 310 -8 317 -15 b 342 0 335 -15 342 -8 l 342 299 l 561 -8 b 583 -12 567 -15 576 -18 b 588 10 590 -7 592 3 z m 782 1003 l 782 1003 l 436 528 b 436 508 432 522 432 514 l 436 508 l 803 -8 b 825 -12 808 -15 818 -18 b 829 10 832 -7 835 3 l 469 518 l 808 983 b 806 1006 814 990 813 1000 b 782 1003 797 1011 788 1010 z "},"L":{"ha":781,"x_min":0,"x_max":0,"o":"m 704 17 l 704 17 l 143 17 l 143 993 b 126 1008 143 1001 136 1008 b 111 993 118 1008 111 1001 l 111 0 b 126 -15 111 -8 118 -15 l 704 -15 b 721 0 714 -15 721 -8 b 704 17 721 10 714 17 z m 308 993 l 308 993 l 308 199 b 325 183 308 190 317 183 l 704 183 b 721 199 714 183 721 190 b 704 215 721 208 714 215 l 342 215 l 342 993 b 325 1008 342 1001 333 1008 b 308 993 317 1008 308 1001 z "},"M":{"ha":1250,"x_min":0,"x_max":0,"o":"m 936 0 l 936 0 l 936 628 b 907 636 936 644 917 651 l 625 233 l 343 638 b 313 628 333 650 313 644 l 313 0 b 328 -15 313 -8 319 -15 b 346 0 339 -15 346 -8 l 346 576 l 610 194 b 614 190 611 193 613 192 b 638 194 624 186 633 188 l 904 576 l 904 0 b 921 -15 904 -8 911 -15 b 936 0 929 -15 936 -8 z m 144 0 l 144 0 l 144 1008 b 126 1024 144 1017 136 1024 b 111 1008 118 1024 111 1017 l 111 0 b 126 -15 111 -8 118 -15 b 144 0 136 -15 144 -8 z m 1138 0 l 1138 0 l 1138 1008 b 1121 1024 1138 1017 1131 1024 b 1106 1008 1113 1024 1106 1017 l 1106 0 b 1121 -15 1106 -8 1113 -15 b 1138 0 1131 -15 1138 -8 z m 926 1017 l 926 1017 l 625 585 l 322 1017 b 300 1021 317 1025 307 1026 b 296 999 293 1017 290 1006 l 610 547 b 614 543 611 546 613 544 b 638 547 624 538 633 540 l 953 999 b 949 1021 957 1006 956 1017 b 926 1017 942 1026 931 1025 z "},"N":{"ha":1065,"x_min":0,"x_max":0,"o":"m 953 0 l 953 0 l 953 992 b 919 992 953 1014 919 1014 l 919 0 b 953 0 919 -21 953 -21 z m 143 0 l 143 0 l 143 992 b 111 992 143 1014 111 1014 l 111 0 b 143 0 111 -21 143 -21 z m 294 983 l 294 983 l 725 365 b 756 375 733 351 756 360 l 756 992 b 722 992 756 1014 722 1014 l 722 426 l 319 1001 b 294 983 308 1019 282 1000 z m 771 10 l 771 10 l 340 628 b 310 618 329 640 310 633 l 310 0 b 343 0 310 -21 343 -21 l 343 567 l 743 -10 b 771 10 757 -26 782 -8 z "},"O":{"ha":1197,"x_min":0,"x_max":0,"o":"m 1121 658 l 1121 658 b 607 1029 1050 879 839 1029 b 76 499 293 1029 76 804 b 607 -33 76 192 293 -33 b 1121 339 839 -33 1050 115 b 1110 360 1124 347 1118 357 b 1089 349 1100 363 1092 358 b 607 0 1022 139 826 0 b 108 499 313 0 108 210 b 607 996 108 788 313 996 b 1089 649 826 996 1022 857 b 1110 638 1092 639 1100 635 b 1121 658 1118 639 1124 650 z m 329 336 l 329 336 b 607 172 386 236 492 172 b 928 499 786 172 928 321 b 607 824 928 675 786 824 b 329 661 492 824 386 761 b 335 638 325 653 328 643 b 358 644 343 633 354 636 b 607 792 408 735 503 792 b 894 499 768 792 894 658 b 607 206 894 339 768 206 b 358 353 503 206 408 263 b 335 358 354 360 343 363 b 329 336 328 354 325 343 z "},"P":{"ha":868,"x_min":0,"x_max":0,"o":"m 500 581 l 500 581 b 607 649 556 581 590 610 b 607 742 619 678 619 713 b 500 810 590 781 556 810 l 325 810 b 308 794 315 810 308 803 b 325 778 308 785 315 778 l 500 778 b 578 729 540 778 567 756 b 578 661 586 707 586 682 b 500 611 567 632 539 611 l 443 611 b 428 596 435 611 428 604 b 443 581 428 588 435 581 z m 143 0 l 143 0 l 143 976 l 517 976 b 768 810 647 976 731 904 b 768 581 796 738 796 653 b 517 414 731 486 647 414 l 325 414 b 308 399 315 414 308 407 l 308 0 b 325 -15 308 -8 315 -15 b 340 0 333 -15 340 -8 l 340 381 l 517 381 b 799 567 663 381 757 464 b 799 822 829 649 829 742 b 517 1008 757 926 663 1008 l 126 1008 b 111 992 118 1008 111 1000 l 111 0 b 126 -15 111 -8 118 -15 b 143 0 135 -15 143 -8 z "},"Q":{"ha":1200,"x_min":0,"x_max":0,"o":"m 779 436 l 779 436 l 843 346 b 871 347 850 335 865 335 b 910 496 897 392 910 443 b 601 808 910 667 774 808 b 293 496 429 808 293 667 b 601 182 293 325 429 182 b 658 188 621 182 640 185 b 714 206 679 192 697 199 b 721 229 724 210 728 221 l 564 454 b 543 458 560 461 550 463 b 539 436 535 453 533 443 l 683 228 b 653 219 674 225 663 222 b 601 215 636 217 619 215 b 325 496 446 215 325 343 b 601 778 325 649 446 778 b 876 496 756 778 876 649 b 854 383 876 457 869 419 l 804 454 b 783 458 800 461 790 463 b 779 436 776 453 774 443 z m 983 190 l 983 190 b 976 154 972 179 967 168 l 1088 -7 b 1111 -11 1094 -14 1104 -15 b 1115 11 1118 -6 1121 4 l 1006 167 b 1125 496 1082 260 1125 375 b 601 1014 1125 785 889 1014 b 76 496 315 1014 76 785 b 601 -22 76 208 315 -22 b 824 26 678 -22 754 -4 l 847 -7 b 869 -11 853 -14 863 -15 b 874 11 876 -6 879 4 l 847 49 b 810 57 836 65 825 65 b 601 11 744 25 674 11 b 110 496 332 11 110 225 b 601 982 110 767 332 982 b 1093 496 869 982 1093 767 b 983 190 1093 383 1054 278 z "},"R":{"ha":863,"x_min":0,"x_max":0,"o":"m 500 581 l 500 581 b 618 694 565 581 618 629 b 500 810 618 761 565 810 l 325 810 b 325 778 304 810 304 778 l 500 778 b 586 694 547 778 586 743 b 500 611 586 647 547 611 l 444 611 b 428 596 435 611 428 604 b 444 581 428 588 435 581 z m 596 10 l 596 10 l 338 354 b 315 358 332 361 322 363 b 310 344 311 354 308 349 l 310 0 b 325 -17 310 -8 317 -17 b 342 0 333 -17 342 -8 l 342 297 l 569 -8 b 593 -12 575 -17 586 -18 b 596 10 600 -7 601 3 z m 143 0 l 143 0 l 143 976 l 517 976 b 794 694 672 976 794 849 b 517 414 794 542 672 414 b 501 397 508 414 501 407 b 506 386 501 393 503 389 l 811 -8 b 835 -11 818 -17 828 -18 b 838 10 842 -7 843 3 l 550 382 b 828 694 708 399 828 536 b 517 1010 828 867 690 1010 l 126 1010 b 111 993 118 1010 111 1001 l 111 0 b 126 -17 111 -8 118 -17 b 143 0 136 -17 143 -8 z "},"S":{"ha":764,"x_min":0,"x_max":0,"o":"m 74 51 l 74 51 b 232 -6 129 24 182 6 b 708 294 485 -65 708 43 b 342 644 708 546 404 597 b 311 703 322 660 311 682 b 389 781 310 750 347 775 b 588 742 454 788 539 761 b 600 771 607 733 619 763 b 390 813 519 804 457 817 b 279 699 326 810 276 763 b 596 471 288 572 460 599 b 599 93 714 363 693 189 b 90 79 475 -31 250 -4 b 74 51 71 89 56 61 z m 625 971 l 625 971 b 471 1010 560 993 510 1004 b 79 696 247 1040 79 911 b 449 347 79 438 383 401 b 453 238 481 318 486 268 b 117 286 383 174 204 225 b 99 260 100 297 81 272 b 388 178 188 194 300 172 b 507 293 453 182 511 228 b 193 515 499 421 329 397 b 185 894 74 622 96 799 b 614 942 294 1014 465 993 b 625 971 633 933 644 964 z "},"T":{"ha":792,"x_min":0,"x_max":0,"o":"m 738 810 l 738 810 l 489 810 b 474 794 481 810 474 803 l 474 0 b 489 -15 474 -8 481 -15 b 504 0 497 -15 504 -8 l 504 776 l 738 776 b 753 794 746 776 753 785 b 738 810 753 803 746 810 z m 43 976 l 43 976 l 736 976 b 753 992 746 976 753 983 b 736 1007 753 1000 746 1007 l 43 1007 b 28 992 35 1007 28 1000 b 43 976 28 983 35 976 z m 43 776 l 43 776 l 275 776 l 275 0 b 292 -15 275 -8 282 -15 b 307 0 300 -15 307 -8 l 307 794 b 292 810 307 803 300 810 l 43 810 b 28 794 35 810 28 803 b 43 776 28 785 35 776 z "},"U":{"ha":972,"x_min":0,"x_max":0,"o":"m 307 363 l 307 363 b 485 182 307 257 381 182 b 664 363 589 182 664 257 l 664 992 b 647 1007 664 1000 657 1007 b 632 992 639 1007 632 1000 l 632 363 b 485 213 632 275 572 213 b 338 363 399 213 338 275 l 338 992 b 322 1007 338 1000 331 1007 b 307 992 314 1007 307 1000 z m 832 992 l 832 992 l 832 351 b 485 10 832 143 678 10 b 138 351 283 10 138 149 l 138 992 b 122 1007 138 1000 131 1007 b 106 992 113 1007 106 1000 l 106 351 b 485 -22 106 132 267 -22 b 864 351 697 -22 864 125 l 864 992 b 849 1007 864 1000 857 1007 b 832 992 839 1007 832 1000 z "},"V":{"ha":871,"x_min":0,"x_max":0,"o":"m 226 972 l 226 972 l 419 499 b 449 499 425 485 444 486 l 642 972 b 633 992 644 979 642 989 b 613 983 625 994 615 992 l 435 547 l 256 983 b 236 992 253 992 244 994 b 226 972 226 989 224 979 z m 829 983 l 829 983 l 435 14 l 40 983 b 18 992 36 992 26 994 b 10 972 11 989 7 979 l 419 -33 b 449 -33 425 -47 443 -49 l 860 972 b 851 992 863 979 858 989 b 829 983 842 994 833 992 z "},"W":{"ha":1253,"x_min":0,"x_max":0,"o":"m 226 976 l 226 976 l 418 504 b 449 504 424 492 443 492 l 625 940 l 803 504 b 833 504 808 492 828 492 l 1026 976 b 1015 997 1029 985 1025 993 b 996 988 1008 1001 999 996 l 818 554 l 642 988 b 632 997 640 992 636 994 b 611 988 624 1001 614 996 l 435 554 l 257 988 b 235 997 254 996 243 1001 b 226 976 228 993 224 985 z m 1213 988 l 1213 988 l 818 22 l 642 457 b 611 457 636 471 617 469 l 435 22 l 39 988 b 19 997 36 996 26 1001 b 11 976 11 993 6 985 l 418 -26 b 428 -35 419 -31 422 -33 b 449 -26 436 -37 444 -35 l 625 410 l 803 -26 b 813 -35 804 -31 807 -33 b 833 -26 821 -37 829 -35 l 1242 976 b 1233 997 1244 985 1242 993 b 1213 988 1224 1001 1215 996 z "},"Y":{"ha":935,"x_min":0,"x_max":0,"o":"m 254 985 l 254 985 l 456 640 b 485 640 463 629 478 629 l 688 985 b 682 1007 692 993 689 1003 b 658 1001 674 1011 665 1008 l 469 681 l 281 1001 b 260 1007 276 1008 267 1011 b 254 985 251 1003 249 993 z m 901 1001 l 901 1001 l 556 453 b 554 443 554 449 554 446 l 554 3 b 569 -15 554 -8 561 -15 b 585 3 578 -15 585 -8 l 585 439 l 929 985 b 924 1007 933 992 932 1001 b 901 1001 917 1011 907 1008 z m 388 3 l 388 3 l 388 444 b 385 453 388 447 386 450 l 39 1001 b 17 1007 33 1008 24 1011 b 13 985 10 1001 7 992 l 354 439 l 354 3 b 371 -15 354 -8 361 -15 b 388 3 381 -15 388 -8 z "},"X":{"ha":924,"x_min":0,"x_max":0,"o":"m 844 1004 l 844 1004 l 554 539 b 554 522 551 533 551 526 l 882 -7 b 906 -12 886 -14 897 -17 b 910 10 913 -8 915 1 l 588 531 l 871 986 b 865 1010 875 994 874 1006 b 844 1004 858 1014 849 1013 z m 665 8 l 665 8 l 475 318 b 446 318 468 328 453 328 l 256 8 b 260 -12 250 1 253 -8 b 282 -8 268 -18 278 -15 l 461 279 l 639 -8 b 661 -14 643 -15 653 -18 b 665 8 668 -8 671 1 z m 39 -7 l 39 -7 l 367 522 b 367 539 369 526 369 533 l 76 1004 b 56 1010 72 1013 63 1014 b 50 986 49 1006 46 994 l 333 531 l 11 10 b 15 -12 7 1 8 -8 b 39 -7 24 -17 35 -14 z m 281 988 l 281 988 l 446 721 b 475 721 453 711 468 711 l 640 988 b 635 1010 644 994 642 1006 b 611 1004 628 1014 617 1013 l 461 760 l 310 1004 b 286 1010 304 1013 293 1014 b 281 988 279 1006 276 994 z "},"J":{"ha":676,"x_min":0,"x_max":0,"o":"m 336 299 l 336 299 b 251 215 336 250 299 215 l 75 215 b 60 199 67 215 60 208 b 75 183 60 190 67 183 l 251 183 b 368 299 315 183 368 233 l 368 993 b 351 1008 368 1001 361 1008 b 336 993 343 1008 336 1001 z m 61 -15 l 61 -15 l 257 -15 b 567 299 429 -15 567 126 l 567 993 b 550 1008 567 1001 560 1008 b 535 993 542 1008 535 1001 l 535 299 b 257 17 535 144 413 17 l 61 17 b 44 0 51 17 44 10 b 61 -15 44 -8 51 -15 z "},"?":{"ha":685,"x_min":0,"x_max":0,"o":"m 483 378 b 646 706 556 468 646 583 b 465 994 646 854 567 953 b 211 994 383 1028 292 1026 b 29 706 108 953 29 854 b 46 688 29 696 38 688 b 63 706 54 688 63 696 b 224 964 63 840 133 928 b 450 964 296 994 381 994 b 615 706 543 928 615 840 b 457 399 615 594 525 481 b 463 376 453 392 453 382 b 483 378 468 371 479 371 z m 347 246 b 217 115 276 246 217 189 b 347 -12 217 44 276 -12 b 476 115 419 -12 476 44 b 347 246 476 189 419 246 z m 347 213 b 446 115 403 213 446 172 b 347 21 446 61 403 21 b 250 115 293 21 250 61 b 347 213 250 172 293 213 z m 419 606 b 453 706 439 638 453 664 b 386 813 453 760 424 797 b 292 813 356 825 321 825 b 224 706 253 797 224 760 b 239 688 224 696 229 688 b 256 706 247 688 256 696 b 304 783 256 746 276 772 b 372 783 324 792 350 792 b 421 706 400 772 421 746 b 390 624 421 671 408 649 l 244 410 b 247 386 239 401 242 392 b 271 392 256 382 267 383 z "},"!":{"ha":417,"x_min":0,"x_max":0,"o":"m 328 988 b 311 1004 328 996 321 1004 b 296 988 303 1004 296 996 l 296 392 b 311 376 296 383 303 376 b 328 392 321 376 328 383 z m 214 238 b 82 107 140 238 82 181 b 214 -21 82 36 140 -21 b 343 107 283 -21 343 36 b 214 238 343 181 283 238 z m 214 204 b 311 107 267 204 311 164 b 214 13 311 53 267 13 b 114 107 157 13 114 53 b 214 204 114 164 157 204 z m 97 392 b 114 376 97 383 104 376 b 129 392 122 376 129 383 l 129 988 b 114 1004 129 996 122 1004 b 97 988 104 1004 97 996 z "},"¨":{"ha":743,"x_min":0,"x_max":0,"o":"m 121 894 b 224 790 121 835 167 792 b 326 894 282 790 326 835 l 326 894 b 224 997 326 951 282 997 b 121 894 167 997 121 951 z m 151 894 b 224 965 151 935 182 965 b 299 894 267 965 299 935 l 299 894 b 224 821 299 851 267 821 l 224 821 b 151 894 182 821 151 851 z m 450 894 b 553 790 450 835 496 790 b 656 894 611 792 656 835 b 553 997 656 951 611 996 b 450 894 496 996 450 951 z m 479 894 b 553 965 479 935 511 965 b 626 894 592 965 626 935 b 553 821 626 851 592 821 l 553 821 b 479 894 511 821 479 851 z "},"-":{"ha":582,"x_min":0,"x_max":0,"o":"m 497 464 b 513 481 506 464 513 472 b 497 496 513 489 506 496 l 118 496 b 101 481 110 496 101 489 b 118 464 101 472 110 464 z "},".":{"ha":333,"x_min":0,"x_max":0,"o":"m 168 242 b 51 167 107 242 69 208 b 168 -11 17 81 72 -11 b 285 167 263 -11 319 82 b 168 242 267 208 229 242 z m 256 154 b 168 21 282 89 242 21 b 79 154 94 21 54 88 b 168 210 92 185 122 210 b 256 154 213 210 244 186 z "},",":{"ha":436,"x_min":0,"x_max":0,"o":"m 47 -197 b 58 -217 43 -206 50 -214 b 61 -217 58 -217 60 -217 l 61 -217 l 211 -217 b 225 -206 217 -217 224 -212 l 346 111 b 336 131 347 119 344 126 b 317 122 328 133 319 131 l 199 -186 l 81 -186 l 151 114 b 140 132 154 122 149 131 b 121 119 132 135 124 128 z "},"¸":{"ha":550,"x_min":0,"x_max":0,"o":"m 203 -122 b 225 -142 203 -133 214 -142 b 361 -185 293 -133 338 -154 b 317 -314 394 -231 367 -294 b 125 -274 272 -329 208 -322 b 103 -279 117 -271 106 -274 b 108 -303 96 -289 100 -297 b 325 -344 200 -357 272 -362 b 389 -167 401 -317 432 -231 b 240 -107 361 -131 314 -104 l 257 -21 b 243 -3 257 -12 251 -3 b 225 -15 233 0 225 -6 z "},"˜":{"ha":463,"x_min":0,"x_max":0,"o":"m 110 907 b 158 956 122 928 136 953 b 231 924 186 961 214 943 b 332 890 261 903 293 885 b 403 956 364 897 388 924 b 397 976 408 961 406 972 b 376 969 390 982 379 979 b 326 921 364 949 350 928 b 250 953 299 915 272 935 b 153 988 225 976 190 993 b 81 924 118 982 99 953 b 89 900 76 915 81 907 b 110 907 94 897 107 900 z "},"ˇ":{"ha":476,"x_min":0,"x_max":0,"o":"m 244 869 l 101 985 b 79 983 96 992 86 990 b 81 961 74 975 75 968 l 233 833 b 256 833 242 828 247 826 l 410 961 b 411 982 415 968 417 974 b 389 985 408 989 394 992 z "},"ˆ":{"ha":457,"x_min":0,"x_max":0,"o":"m 385 833 b 406 833 390 826 403 826 b 406 857 411 842 411 850 l 251 985 b 229 985 246 988 235 988 l 76 857 b 74 833 71 850 68 842 b 97 833 81 826 92 826 l 240 949 z "},"`":{"ha":397,"x_min":0,"x_max":0,"o":"m 118 1001 b 97 1004 111 1010 103 1010 b 94 981 88 996 88 986 l 235 833 b 258 831 240 824 251 824 b 258 854 264 838 264 847 z "},"´":{"ha":335,"x_min":0,"x_max":0,"o":"m 74 840 b 74 817 68 833 68 824 b 97 819 81 810 92 810 l 238 967 b 235 990 244 972 244 982 b 214 988 229 996 221 996 z "},"˛":{"ha":379,"x_min":0,"x_max":0,"o":"m 249 29 b 138 -101 217 -3 171 -50 b 94 -257 106 -151 85 -208 b 275 -326 108 -350 203 -350 b 283 -306 283 -324 286 -315 b 264 -297 281 -297 271 -294 b 128 -254 217 -312 140 -321 b 165 -119 118 -211 138 -162 b 269 6 194 -71 240 -28 b 269 26 275 11 275 21 b 249 29 264 36 256 36 z "},"Ł":{"ha":782,"x_min":0,"x_max":0,"o":"m 154 18 l 154 993 b 138 1010 154 1001 147 1010 b 121 993 128 1010 121 1001 l 121 476 l 13 440 b 1 419 4 438 0 428 b 22 410 6 411 14 406 l 121 442 l 121 0 b 138 -15 121 -8 128 -15 l 715 -15 b 732 0 725 -15 732 -8 b 715 18 732 10 725 18 z m 351 993 b 336 1010 351 1001 344 1010 b 319 993 328 1010 319 1001 l 319 200 b 336 183 319 190 328 183 l 715 183 b 732 200 725 183 732 190 b 715 215 732 208 725 215 l 351 215 l 351 522 l 528 582 b 538 603 536 583 540 593 b 517 613 536 611 525 614 l 351 556 z "},"Œ":{"ha":1189,"x_min":0,"x_max":0,"o":"m 797 413 b 783 396 790 413 783 406 l 783 197 b 797 183 783 192 790 183 l 1096 183 b 1110 197 1103 183 1110 192 b 1096 214 1110 207 1103 214 l 815 214 l 815 378 l 1026 378 b 1026 413 1046 378 1046 413 z m 1074 976 b 1093 993 1085 976 1093 986 b 1074 1011 1093 1004 1085 1011 l 615 1011 b 561 1015 599 1011 576 1015 b 50 496 249 1015 50 797 b 561 -22 50 197 249 -22 b 615 -17 576 -22 599 -22 l 1096 -17 b 1110 0 1103 -17 1110 -11 b 1096 14 1110 7 1103 14 l 615 14 b 561 10 599 14 576 10 b 83 496 267 10 83 214 b 561 981 83 779 267 981 b 615 976 576 981 599 981 z m 300 336 b 561 175 357 238 446 175 b 588 175 567 175 576 175 b 615 214 611 181 615 192 l 615 783 b 588 815 615 806 608 815 b 561 819 576 819 567 819 b 300 656 446 819 357 756 b 303 635 293 647 297 638 b 329 642 313 632 322 632 b 561 783 376 728 457 783 b 583 783 567 783 576 783 l 583 210 b 561 207 576 207 567 207 b 329 351 457 207 376 263 b 303 358 322 358 313 361 b 300 336 297 356 293 346 z m 797 813 b 783 794 790 813 783 806 l 783 597 b 797 579 783 586 790 579 l 1026 579 b 1026 611 1046 579 1046 611 l 815 611 l 815 779 l 1074 779 b 1093 794 1085 779 1093 786 b 1074 813 1093 806 1085 813 z "},"Æ":{"ha":1171,"x_min":0,"x_max":0,"o":"m 1024 421 b 1042 408 1036 421 1042 414 b 1024 389 1042 396 1036 389 l 815 389 l 815 213 l 1082 213 b 1096 199 1090 213 1096 206 b 1082 182 1096 189 1090 182 l 797 182 b 786 199 793 182 786 189 l 786 408 b 797 421 786 414 793 421 z m 517 990 l 26 6 b 35 -14 24 -4 26 -10 b 54 -7 44 -17 50 -14 l 547 979 l 586 979 l 586 308 l 410 308 l 519 525 b 492 539 529 544 500 560 l 369 299 b 369 296 369 299 369 296 b 386 278 369 286 379 278 l 586 278 b 618 308 613 278 618 289 l 618 979 l 1065 979 b 1082 993 1076 979 1082 988 b 1065 1011 1082 1004 1076 1011 b 553 1011 874 1011 742 1011 b 517 990 529 1011 522 1007 z m 303 107 b 289 96 296 107 292 103 l 243 6 b 253 -14 240 -4 243 -10 b 275 -7 258 -17 271 -14 l 315 76 l 586 76 l 586 0 b 603 -17 586 -10 593 -17 l 1082 -17 b 1096 0 1090 -17 1096 -10 b 1082 17 1096 10 1090 17 l 618 17 l 618 76 b 586 107 618 93 610 107 b 303 107 492 107 399 107 z m 1065 813 b 1082 799 1076 813 1082 806 b 1065 781 1082 786 1076 781 l 815 781 l 815 615 l 1024 615 b 1042 599 1036 615 1042 608 b 1024 578 1042 585 1036 578 l 797 578 b 786 599 793 578 786 585 l 786 799 b 797 813 786 806 793 813 z "},"Ø":{"ha":1164,"x_min":0,"x_max":0,"o":"m 1086 582 b 851 874 1046 708 960 810 l 917 988 b 911 1008 921 994 918 1003 b 892 1003 904 1011 894 1010 l 825 889 b 583 946 751 926 669 946 b 63 425 274 946 63 726 b 300 -22 63 229 151 67 l 233 -137 b 239 -158 229 -144 232 -154 b 258 -153 244 -162 256 -160 l 325 -35 b 583 -94 400 -75 488 -94 b 1086 268 813 -94 1017 50 b 1075 290 1089 276 1083 286 b 1057 279 1067 292 1058 286 b 583 -62 992 72 799 -62 b 96 425 293 -62 96 142 b 583 914 96 708 293 914 b 810 860 663 914 739 896 l 722 711 b 583 746 682 733 633 746 b 310 583 471 746 367 682 b 317 563 307 576 308 567 b 339 568 324 558 333 561 b 583 713 390 657 482 713 b 707 682 629 713 669 703 l 422 190 b 339 281 388 214 360 244 b 317 289 333 290 324 292 b 310 265 308 282 307 274 b 583 106 367 168 471 106 b 899 425 758 106 899 250 b 749 697 899 539 839 640 l 835 846 b 1057 571 938 786 1019 690 b 1075 561 1058 563 1067 558 b 1086 582 1083 565 1089 574 z m 733 669 b 865 425 813 618 865 528 b 583 139 865 268 742 139 b 446 175 533 139 488 150 z "},"a":{"ha":899,"x_min":0,"x_max":0,"o":"m 374 290 l 374 290 l 519 290 b 536 306 529 290 536 297 b 535 313 536 308 536 310 l 463 490 b 440 500 458 500 450 504 b 432 479 433 497 429 488 l 497 321 l 374 321 b 357 306 365 321 357 314 b 374 290 357 297 365 290 z m 269 10 l 269 10 l 303 90 l 590 90 l 624 10 b 644 0 628 0 636 -3 b 654 21 653 3 657 14 l 617 111 b 601 121 615 117 610 121 l 293 121 b 278 111 286 121 279 118 l 240 21 b 250 0 236 14 240 3 b 269 10 258 -3 267 0 z m 54 10 l 54 10 l 447 972 l 840 10 b 861 0 843 0 853 -3 b 869 21 869 3 872 14 l 463 1019 b 432 1019 457 1033 438 1035 l 25 21 b 33 0 21 14 25 3 b 54 10 42 -3 51 0 z "},"b":{"ha":896,"x_min":0,"x_max":0,"o":"m 501 182 l 501 182 b 621 299 568 182 621 232 b 501 413 621 364 568 413 l 328 413 b 310 397 318 413 310 406 b 328 382 310 389 318 382 l 501 382 b 588 299 549 382 588 347 b 501 215 588 250 549 215 l 444 215 b 429 199 436 215 429 207 b 444 182 429 190 436 182 z m 328 779 l 328 779 l 501 779 b 588 696 549 779 588 744 b 501 613 588 647 549 613 l 444 613 b 429 596 436 613 429 606 b 444 581 429 588 436 581 l 501 581 b 621 696 568 581 621 631 b 501 811 621 761 568 811 l 328 811 b 310 796 317 811 310 804 b 328 779 310 788 317 779 z m 144 0 l 144 0 l 144 979 l 519 979 b 797 696 675 979 797 851 b 728 507 797 626 774 560 b 728 486 722 501 722 492 b 797 299 774 433 797 368 b 519 15 797 144 675 15 l 328 15 b 311 0 318 15 311 8 b 328 -18 311 -11 318 -18 l 519 -18 b 831 299 693 -18 831 125 b 761 497 831 371 806 440 b 831 696 806 553 831 624 b 519 1013 831 869 693 1013 l 126 1013 b 111 994 118 1013 111 1004 l 111 0 b 126 -18 111 -11 118 -18 b 144 0 136 -18 144 -11 z "},"c":{"ha":842,"x_min":0,"x_max":0,"o":"m 783 978 l 783 978 b 582 1018 719 1004 651 1018 b 107 713 335 1018 176 885 b 107 292 53 581 53 425 b 582 -12 176 121 335 -12 b 783 26 651 -12 719 0 b 792 49 792 31 796 39 b 771 57 789 56 778 60 b 582 19 711 31 647 19 b 135 304 349 19 200 143 b 135 701 85 429 85 575 b 582 986 200 860 349 986 b 771 949 647 986 711 974 b 792 957 778 946 789 949 b 783 978 794 965 792 975 z m 744 260 l 744 260 b 582 218 690 229 644 218 b 328 385 449 218 365 290 b 328 619 299 458 299 546 b 582 786 365 713 449 786 b 744 746 644 786 690 775 b 765 751 753 742 761 744 b 760 774 769 760 767 769 b 582 818 700 807 650 818 b 299 631 435 818 339 736 b 299 374 267 550 267 456 b 582 188 339 268 435 188 b 760 232 650 188 700 199 b 765 253 767 236 769 246 b 744 260 761 261 753 264 z "},"d":{"ha":1011,"x_min":0,"x_max":0,"o":"m 424 1008 l 424 1008 l 126 1008 b 111 993 118 1008 111 1001 l 111 0 b 126 -15 111 -8 118 -15 b 143 0 136 -15 143 -8 l 143 976 l 424 976 b 865 693 654 976 801 853 b 865 300 915 569 915 424 b 424 17 801 140 654 17 l 324 17 b 307 0 314 17 307 10 b 324 -15 307 -8 314 -15 l 424 -15 b 894 288 669 -15 826 118 b 894 706 949 419 949 574 b 424 1008 826 876 669 1008 z m 342 397 l 342 397 l 342 779 l 424 779 b 675 613 554 779 638 706 b 675 381 703 540 703 454 b 424 215 638 288 554 215 l 325 215 b 308 199 317 215 308 207 b 325 182 308 190 317 182 l 424 182 b 704 369 569 182 664 264 b 704 625 736 450 736 543 b 424 811 664 729 569 811 l 325 811 b 308 794 317 811 308 804 l 308 397 b 325 382 308 389 317 382 b 342 397 333 382 342 389 z "},"e":{"ha":732,"x_min":0,"x_max":0,"o":"m 549 414 l 549 414 l 326 414 b 310 397 317 414 310 407 l 310 199 b 326 183 310 190 317 183 l 642 183 b 657 199 650 183 657 190 b 642 215 657 208 650 215 l 342 215 l 342 382 l 549 382 b 565 397 558 382 565 389 b 549 414 565 407 558 414 z m 642 810 l 642 810 l 326 810 b 310 794 317 810 310 803 l 310 596 b 326 579 310 588 317 579 l 549 579 b 565 596 558 579 565 588 b 549 613 565 604 558 613 l 342 613 l 342 778 l 642 778 b 657 794 650 778 657 785 b 642 810 657 803 650 810 z m 642 17 l 642 17 l 143 17 l 143 976 l 642 976 b 657 993 650 976 657 983 b 642 1008 657 1001 650 1008 l 128 1008 b 111 993 118 1008 111 1001 l 111 0 b 128 -15 111 -8 118 -15 l 642 -15 b 657 0 650 -15 657 -8 b 642 17 657 10 650 17 z "},"f":{"ha":711,"x_min":0,"x_max":0,"o":"m 550 414 l 550 414 l 326 414 b 310 397 317 414 310 407 l 310 0 b 343 0 310 -21 343 -21 l 343 381 l 550 381 b 550 414 571 381 571 414 z m 642 810 l 642 810 l 326 810 b 310 794 317 810 310 803 l 310 596 b 326 579 310 588 317 579 l 550 579 b 550 613 571 579 571 613 l 343 613 l 343 778 l 642 778 b 642 810 663 778 663 810 z m 144 0 l 144 0 l 144 976 l 642 976 b 642 1008 663 976 663 1008 l 128 1008 b 111 993 119 1008 111 1001 l 111 0 b 144 0 111 -21 144 -21 z "},"g":{"ha":967,"x_min":0,"x_max":0,"o":"m 826 71 l 826 71 b 586 10 753 29 669 10 b 142 285 361 10 211 129 b 135 692 85 411 83 563 b 588 983 201 851 349 976 b 814 950 665 986 740 974 b 835 960 822 947 831 951 b 824 981 838 968 832 978 b 586 1017 746 1006 668 1019 b 106 704 333 1008 175 874 b 113 272 50 567 53 406 b 586 -24 186 106 346 -24 b 851 47 679 -24 769 1 b 858 63 856 51 860 57 l 858 497 b 843 513 858 506 851 513 b 826 497 835 513 826 506 z m 800 779 l 800 779 b 586 815 733 810 658 818 b 299 624 436 810 340 728 b 304 360 267 540 268 442 b 586 178 347 257 443 178 b 643 183 606 178 625 179 b 657 199 651 183 657 190 l 657 497 b 642 513 657 506 650 513 b 625 497 632 513 625 506 l 625 214 b 586 211 611 211 599 211 b 333 372 457 211 374 281 b 329 611 300 446 299 536 b 588 782 367 704 451 778 b 788 750 656 786 724 778 b 808 758 796 746 806 750 b 800 779 813 765 808 775 z "},"h":{"ha":950,"x_min":0,"x_max":0,"o":"m 639 0 l 639 0 l 639 397 b 622 414 639 407 632 414 l 325 414 b 308 397 317 414 308 407 l 308 0 b 325 -15 308 -8 317 -15 b 342 0 333 -15 342 -8 l 342 382 l 607 382 l 607 0 b 622 -15 607 -8 614 -15 b 639 0 632 -15 639 -8 z m 308 993 l 308 993 l 308 596 b 325 579 308 588 317 579 l 622 579 b 639 596 632 579 639 588 l 639 993 b 622 1008 639 1001 632 1008 b 607 993 614 1008 607 1001 l 607 613 l 342 613 l 342 993 b 325 1008 342 1001 333 1008 b 308 993 317 1008 308 1001 z m 806 993 l 806 993 l 806 0 b 821 -15 806 -8 813 -15 b 838 0 831 -15 838 -8 l 838 993 b 821 1008 838 1001 831 1008 b 806 993 813 1008 806 1001 z m 143 0 l 143 0 l 143 993 b 126 1008 143 1001 136 1008 b 111 993 118 1008 111 1001 l 111 0 b 126 -15 111 -8 118 -15 b 143 0 136 -15 143 -8 z "},"i":{"ha":454,"x_min":0,"x_max":0,"o":"m 342 0 l 342 0 l 342 993 b 326 1008 342 1001 335 1008 b 310 993 317 1008 310 1001 l 310 0 b 326 -15 310 -8 317 -15 b 342 0 335 -15 342 -8 z m 143 0 l 143 0 l 143 993 b 128 1008 143 1001 136 1008 b 111 993 118 1008 111 1001 l 111 0 b 128 -15 111 -8 118 -15 b 143 0 136 -15 143 -8 z "},"j":{"ha":676,"x_min":0,"x_max":0,"o":"m 336 299 l 336 299 b 251 215 336 250 299 215 l 75 215 b 60 199 67 215 60 208 b 75 183 60 190 67 183 l 251 183 b 368 299 315 183 368 233 l 368 993 b 351 1008 368 1001 361 1008 b 336 993 343 1008 336 1001 z m 61 -15 l 61 -15 l 257 -15 b 567 299 429 -15 567 126 l 567 993 b 550 1008 567 1001 560 1008 b 535 993 542 1008 535 1001 l 535 299 b 257 17 535 144 413 17 l 61 17 b 44 0 51 17 44 10 b 61 -15 44 -8 51 -15 z "},"k":{"ha":853,"x_min":0,"x_max":0,"o":"m 143 0 l 143 0 l 143 993 b 128 1008 143 1001 136 1008 b 111 993 118 1008 111 1001 l 111 0 b 128 -15 111 -8 118 -15 b 143 0 136 -15 143 -8 z m 540 1003 l 540 1003 l 342 736 l 342 993 b 326 1008 342 1001 335 1008 b 310 993 317 1008 310 1001 l 310 689 b 317 675 310 683 311 678 b 339 678 324 669 333 671 l 567 983 b 564 1006 572 990 571 1000 b 540 1003 556 1011 546 1010 z m 588 10 l 588 10 l 339 357 b 317 361 333 365 324 367 b 310 347 313 358 310 353 l 310 0 b 326 -15 310 -8 317 -15 b 342 0 335 -15 342 -8 l 342 299 l 561 -8 b 583 -12 567 -15 576 -18 b 588 10 590 -7 592 3 z m 782 1003 l 782 1003 l 436 528 b 436 508 432 522 432 514 l 436 508 l 803 -8 b 825 -12 808 -15 818 -18 b 829 10 832 -7 835 3 l 469 518 l 808 983 b 806 1006 814 990 813 1000 b 782 1003 797 1011 788 1010 z "},"l":{"ha":781,"x_min":0,"x_max":0,"o":"m 704 17 l 704 17 l 143 17 l 143 993 b 126 1008 143 1001 136 1008 b 111 993 118 1008 111 1001 l 111 0 b 126 -15 111 -8 118 -15 l 704 -15 b 721 0 714 -15 721 -8 b 704 17 721 10 714 17 z m 308 993 l 308 993 l 308 199 b 325 183 308 190 317 183 l 704 183 b 721 199 714 183 721 190 b 704 215 721 208 714 215 l 342 215 l 342 993 b 325 1008 342 1001 333 1008 b 308 993 317 1008 308 1001 z "},"m":{"ha":1250,"x_min":0,"x_max":0,"o":"m 936 0 l 936 0 l 936 628 b 907 636 936 644 917 651 l 625 233 l 343 638 b 313 628 333 650 313 644 l 313 0 b 328 -15 313 -8 319 -15 b 346 0 339 -15 346 -8 l 346 576 l 610 194 b 614 190 611 193 613 192 b 638 194 624 186 633 188 l 904 576 l 904 0 b 921 -15 904 -8 911 -15 b 936 0 929 -15 936 -8 z m 144 0 l 144 0 l 144 1008 b 126 1024 144 1017 136 1024 b 111 1008 118 1024 111 1017 l 111 0 b 126 -15 111 -8 118 -15 b 144 0 136 -15 144 -8 z m 1138 0 l 1138 0 l 1138 1008 b 1121 1024 1138 1017 1131 1024 b 1106 1008 1113 1024 1106 1017 l 1106 0 b 1121 -15 1106 -8 1113 -15 b 1138 0 1131 -15 1138 -8 z m 926 1017 l 926 1017 l 625 585 l 322 1017 b 300 1021 317 1025 307 1026 b 296 999 293 1017 290 1006 l 610 547 b 614 543 611 546 613 544 b 638 547 624 538 633 540 l 953 999 b 949 1021 957 1006 956 1017 b 926 1017 942 1026 931 1025 z "},"n":{"ha":1065,"x_min":0,"x_max":0,"o":"m 953 0 l 953 0 l 953 992 b 919 992 953 1014 919 1014 l 919 0 b 953 0 919 -21 953 -21 z m 143 0 l 143 0 l 143 992 b 111 992 143 1014 111 1014 l 111 0 b 143 0 111 -21 143 -21 z m 294 983 l 294 983 l 725 365 b 756 375 733 351 756 360 l 756 992 b 722 992 756 1014 722 1014 l 722 426 l 319 1001 b 294 983 308 1019 282 1000 z m 771 10 l 771 10 l 340 628 b 310 618 329 640 310 633 l 310 0 b 343 0 310 -21 343 -21 l 343 567 l 743 -10 b 771 10 757 -26 782 -8 z "},"o":{"ha":1197,"x_min":0,"x_max":0,"o":"m 1121 658 l 1121 658 b 607 1029 1050 879 839 1029 b 76 499 293 1029 76 804 b 607 -33 76 192 293 -33 b 1121 339 839 -33 1050 115 b 1110 360 1124 347 1118 357 b 1089 349 1100 363 1092 358 b 607 0 1022 139 826 0 b 108 499 313 0 108 210 b 607 996 108 788 313 996 b 1089 649 826 996 1022 857 b 1110 638 1092 639 1100 635 b 1121 658 1118 639 1124 650 z m 329 336 l 329 336 b 607 172 386 236 492 172 b 928 499 786 172 928 321 b 607 824 928 675 786 824 b 329 661 492 824 386 761 b 335 638 325 653 328 643 b 358 644 343 633 354 636 b 607 792 408 735 503 792 b 894 499 768 792 894 658 b 607 206 894 339 768 206 b 358 353 503 206 408 263 b 335 358 354 360 343 363 b 329 336 328 354 325 343 z "},"p":{"ha":868,"x_min":0,"x_max":0,"o":"m 500 581 l 500 581 b 607 649 556 581 590 610 b 607 742 619 678 619 713 b 500 810 590 781 556 810 l 325 810 b 308 794 315 810 308 803 b 325 778 308 785 315 778 l 500 778 b 578 729 540 778 567 756 b 578 661 586 707 586 682 b 500 611 567 632 539 611 l 443 611 b 428 596 435 611 428 604 b 443 581 428 588 435 581 z m 143 0 l 143 0 l 143 976 l 517 976 b 768 810 647 976 731 904 b 768 581 796 738 796 653 b 517 414 731 486 647 414 l 325 414 b 308 399 315 414 308 407 l 308 0 b 325 -15 308 -8 315 -15 b 340 0 333 -15 340 -8 l 340 381 l 517 381 b 799 567 663 381 757 464 b 799 822 829 649 829 742 b 517 1008 757 926 663 1008 l 126 1008 b 111 992 118 1008 111 1000 l 111 0 b 126 -15 111 -8 118 -15 b 143 0 135 -15 143 -8 z "},"q":{"ha":1200,"x_min":0,"x_max":0,"o":"m 779 436 l 779 436 l 843 346 b 871 347 850 335 865 335 b 910 496 897 392 910 443 b 601 808 910 667 774 808 b 293 496 429 808 293 667 b 601 182 293 325 429 182 b 658 188 621 182 640 185 b 714 206 679 192 697 199 b 721 229 724 210 728 221 l 564 454 b 543 458 560 461 550 463 b 539 436 535 453 533 443 l 683 228 b 653 219 674 225 663 222 b 601 215 636 217 619 215 b 325 496 446 215 325 343 b 601 778 325 649 446 778 b 876 496 756 778 876 649 b 854 383 876 457 869 419 l 804 454 b 783 458 800 461 790 463 b 779 436 776 453 774 443 z m 983 190 l 983 190 b 976 154 972 179 967 168 l 1088 -7 b 1111 -11 1094 -14 1104 -15 b 1115 11 1118 -6 1121 4 l 1006 167 b 1125 496 1082 260 1125 375 b 601 1014 1125 785 889 1014 b 76 496 315 1014 76 785 b 601 -22 76 208 315 -22 b 824 26 678 -22 754 -4 l 847 -7 b 869 -11 853 -14 863 -15 b 874 11 876 -6 879 4 l 847 49 b 810 57 836 65 825 65 b 601 11 744 25 674 11 b 110 496 332 11 110 225 b 601 982 110 767 332 982 b 1093 496 869 982 1093 767 b 983 190 1093 383 1054 278 z "},"r":{"ha":863,"x_min":0,"x_max":0,"o":"m 500 581 l 500 581 b 618 694 565 581 618 629 b 500 810 618 761 565 810 l 325 810 b 325 778 304 810 304 778 l 500 778 b 586 694 547 778 586 743 b 500 611 586 647 547 611 l 444 611 b 428 596 435 611 428 604 b 444 581 428 588 435 581 z m 596 10 l 596 10 l 338 354 b 315 358 332 361 322 363 b 310 344 311 354 308 349 l 310 0 b 325 -17 310 -8 317 -17 b 342 0 333 -17 342 -8 l 342 297 l 569 -8 b 593 -12 575 -17 586 -18 b 596 10 600 -7 601 3 z m 143 0 l 143 0 l 143 976 l 517 976 b 794 694 672 976 794 849 b 517 414 794 542 672 414 b 501 397 508 414 501 407 b 506 386 501 393 503 389 l 811 -8 b 835 -11 818 -17 828 -18 b 838 10 842 -7 843 3 l 550 382 b 828 694 708 399 828 536 b 517 1010 828 867 690 1010 l 126 1010 b 111 993 118 1010 111 1001 l 111 0 b 126 -17 111 -8 118 -17 b 143 0 136 -17 143 -8 z "},"s":{"ha":764,"x_min":0,"x_max":0,"o":"m 74 51 l 74 51 b 232 -6 129 24 182 6 b 708 294 485 -65 708 43 b 342 644 708 546 404 597 b 311 703 322 660 311 682 b 389 781 310 750 347 775 b 588 742 454 788 539 761 b 600 771 607 733 619 763 b 390 813 519 804 457 817 b 279 699 326 810 276 763 b 596 471 288 572 460 599 b 599 93 714 363 693 189 b 90 79 475 -31 250 -4 b 74 51 71 89 56 61 z m 625 971 l 625 971 b 471 1010 560 993 510 1004 b 79 696 247 1040 79 911 b 449 347 79 438 383 401 b 453 238 481 318 486 268 b 117 286 383 174 204 225 b 99 260 100 297 81 272 b 388 178 188 194 300 172 b 507 293 453 182 511 228 b 193 515 499 421 329 397 b 185 894 74 622 96 799 b 614 942 294 1014 465 993 b 625 971 633 933 644 964 z "},"t":{"ha":792,"x_min":0,"x_max":0,"o":"m 738 810 l 738 810 l 489 810 b 474 794 481 810 474 803 l 474 0 b 489 -15 474 -8 481 -15 b 504 0 497 -15 504 -8 l 504 776 l 738 776 b 753 794 746 776 753 785 b 738 810 753 803 746 810 z m 43 976 l 43 976 l 736 976 b 753 992 746 976 753 983 b 736 1007 753 1000 746 1007 l 43 1007 b 28 992 35 1007 28 1000 b 43 976 28 983 35 976 z m 43 776 l 43 776 l 275 776 l 275 0 b 292 -15 275 -8 282 -15 b 307 0 300 -15 307 -8 l 307 794 b 292 810 307 803 300 810 l 43 810 b 28 794 35 810 28 803 b 43 776 28 785 35 776 z "},"u":{"ha":972,"x_min":0,"x_max":0,"o":"m 307 363 l 307 363 b 485 182 307 257 381 182 b 664 363 589 182 664 257 l 664 992 b 647 1007 664 1000 657 1007 b 632 992 639 1007 632 1000 l 632 363 b 485 213 632 275 572 213 b 338 363 399 213 338 275 l 338 992 b 322 1007 338 1000 331 1007 b 307 992 314 1007 307 1000 z m 832 992 l 832 992 l 832 351 b 485 10 832 143 678 10 b 138 351 283 10 138 149 l 138 992 b 122 1007 138 1000 131 1007 b 106 992 113 1007 106 1000 l 106 351 b 485 -22 106 132 267 -22 b 864 351 697 -22 864 125 l 864 992 b 849 1007 864 1000 857 1007 b 832 992 839 1007 832 1000 z "},"v":{"ha":871,"x_min":0,"x_max":0,"o":"m 226 972 l 226 972 l 419 499 b 449 499 425 485 444 486 l 642 972 b 633 992 644 979 642 989 b 613 983 625 994 615 992 l 435 547 l 256 983 b 236 992 253 992 244 994 b 226 972 226 989 224 979 z m 829 983 l 829 983 l 435 14 l 40 983 b 18 992 36 992 26 994 b 10 972 11 989 7 979 l 419 -33 b 449 -33 425 -47 443 -49 l 860 972 b 851 992 863 979 858 989 b 829 983 842 994 833 992 z "},"w":{"ha":1253,"x_min":0,"x_max":0,"o":"m 226 976 l 226 976 l 418 504 b 449 504 424 492 443 492 l 625 940 l 803 504 b 833 504 808 492 828 492 l 1026 976 b 1015 997 1029 985 1025 993 b 996 988 1008 1001 999 996 l 818 554 l 642 988 b 632 997 640 992 636 994 b 611 988 624 1001 614 996 l 435 554 l 257 988 b 235 997 254 996 243 1001 b 226 976 228 993 224 985 z m 1213 988 l 1213 988 l 818 22 l 642 457 b 611 457 636 471 617 469 l 435 22 l 39 988 b 19 997 36 996 26 1001 b 11 976 11 993 6 985 l 418 -26 b 428 -35 419 -31 422 -33 b 449 -26 436 -37 444 -35 l 625 410 l 803 -26 b 813 -35 804 -31 807 -33 b 833 -26 821 -37 829 -35 l 1242 976 b 1233 997 1244 985 1242 993 b 1213 988 1224 1001 1215 996 z "},"x":{"ha":924,"x_min":0,"x_max":0,"o":"m 844 1004 l 844 1004 l 554 539 b 554 522 551 533 551 526 l 882 -7 b 906 -12 886 -14 897 -17 b 910 10 913 -8 915 1 l 588 531 l 871 986 b 865 1010 875 994 874 1006 b 844 1004 858 1014 849 1013 z m 665 8 l 665 8 l 475 318 b 446 318 468 328 453 328 l 256 8 b 260 -12 250 1 253 -8 b 282 -8 268 -18 278 -15 l 461 279 l 639 -8 b 661 -14 643 -15 653 -18 b 665 8 668 -8 671 1 z m 39 -7 l 39 -7 l 367 522 b 367 539 369 526 369 533 l 76 1004 b 56 1010 72 1013 63 1014 b 50 986 49 1006 46 994 l 333 531 l 11 10 b 15 -12 7 1 8 -8 b 39 -7 24 -17 35 -14 z m 281 988 l 281 988 l 446 721 b 475 721 453 711 468 711 l 640 988 b 635 1010 644 994 642 1006 b 611 1004 628 1014 617 1013 l 461 760 l 310 1004 b 286 1010 304 1013 293 1014 b 281 988 279 1006 276 994 z "},"y":{"ha":935,"x_min":0,"x_max":0,"o":"m 254 985 l 254 985 l 456 640 b 485 640 463 629 478 629 l 688 985 b 682 1007 692 993 689 1003 b 658 1001 674 1011 665 1008 l 469 681 l 281 1001 b 260 1007 276 1008 267 1011 b 254 985 251 1003 249 993 z m 901 1001 l 901 1001 l 556 453 b 554 443 554 449 554 446 l 554 3 b 569 -15 554 -8 561 -15 b 585 3 578 -15 585 -8 l 585 439 l 929 985 b 924 1007 933 992 932 1001 b 901 1001 917 1011 907 1008 z m 388 3 l 388 3 l 388 444 b 385 453 388 447 386 450 l 39 1001 b 17 1007 33 1008 24 1011 b 13 985 10 1001 7 992 l 354 439 l 354 3 b 371 -15 354 -8 361 -15 b 388 3 381 -15 388 -8 z "},"z":{"ha":793,"x_min":0,"x_max":0,"o":"m 729 18 l 729 18 l 72 18 l 386 788 b 372 811 392 801 383 811 l 81 811 b 65 796 72 811 65 804 b 81 778 65 785 72 778 l 347 778 l 33 7 b 51 -15 28 -6 38 -15 l 729 -15 b 746 0 739 -15 746 -8 b 729 18 746 10 739 18 z m 81 978 l 81 978 l 643 978 l 329 206 b 344 183 324 193 332 183 l 729 183 b 746 200 739 183 746 190 b 729 215 746 208 739 215 l 368 215 l 682 986 b 665 1010 686 999 679 1010 l 81 1010 b 65 993 72 1010 65 1001 b 81 978 65 985 72 978 z "},":":{"ha":333,"x_min":0,"x_max":0,"o":"m 168 242 b 51 167 107 242 69 208 b 168 -11 17 81 72 -11 b 285 167 263 -11 319 82 b 168 242 267 208 229 242 z m 256 154 b 168 21 282 89 242 21 b 79 154 94 21 54 88 b 168 210 92 185 122 210 b 256 154 213 210 244 186 z m 168 633 b 51 558 107 633 69 600 b 168 381 17 472 72 381 b 285 558 263 381 319 474 b 168 633 267 600 229 633 z m 256 546 b 168 413 282 481 242 413 b 79 546 94 413 54 479 b 168 601 92 576 122 601 b 256 546 213 601 244 578 z "},";":{"ha":333,"x_min":0,"x_max":0,"o":"m 168 633 b 51 558 107 633 69 600 b 168 381 17 472 72 381 b 285 558 263 381 319 474 b 168 633 267 600 229 633 z m 256 546 b 168 413 282 481 242 413 b 79 546 94 413 54 479 b 168 601 92 576 122 601 b 256 546 213 601 244 578 z m -1 -197 b 10 -217 -6 -206 1 -214 b 13 -217 10 -217 11 -217 l 13 -217 l 163 -217 b 176 -206 168 -217 175 -212 l 297 111 b 288 131 299 119 296 126 b 268 122 279 133 271 131 l 150 -186 l 32 -186 l 103 114 b 92 132 106 122 100 131 b 72 119 83 135 75 128 z "},"/":{"ha":594,"x_min":0,"x_max":0,"o":"m 32 7 l 32 7 l 582 969 b 576 990 586 978 583 986 b 554 986 568 996 558 993 l 4 22 b 11 1 0 15 3 6 b 32 7 19 -3 28 -1 z "}," ":{"ha":394,"x_min":0,"x_max":0,"o":""},"'":{"ha":210,"x_min":0,"x_max":0,"o":"m 110 689 b 126 674 110 681 118 674 b 142 689 135 674 142 681 l 142 988 b 126 1004 142 996 135 1004 b 110 988 118 1004 110 996 z "},"\"":{"ha":356,"x_min":0,"x_max":0,"o":"m 100 689 b 117 674 100 681 108 674 b 132 689 125 674 132 681 l 132 988 b 117 1004 132 996 125 1004 b 100 988 108 1004 100 996 z m 254 689 b 271 674 254 681 263 674 b 286 689 279 674 286 681 l 286 988 b 271 1004 286 996 279 1004 b 254 988 263 1004 254 996 z "},"$":{"ha":764,"x_min":0,"x_max":0,"o":"m 625 971 b 471 1010 560 993 510 1004 b 404 1014 447 1013 425 1014 l 404 1140 b 389 1157 404 1149 397 1157 b 372 1140 381 1157 372 1149 l 372 1013 b 79 696 199 999 79 878 b 449 347 79 438 383 401 b 453 238 481 318 486 268 b 117 286 383 174 204 225 b 99 260 100 297 81 272 b 388 178 188 194 300 172 b 507 293 453 182 511 228 b 193 515 499 421 329 397 b 185 894 74 622 96 799 b 614 942 294 1014 465 993 b 625 971 633 933 644 964 z m 74 51 b 232 -6 129 24 182 6 b 372 -21 281 -17 326 -22 l 372 -144 b 389 -160 372 -153 381 -160 b 404 -144 397 -160 404 -153 l 404 -19 b 708 294 578 -6 708 103 b 342 644 708 546 404 597 b 311 703 322 660 311 682 b 389 781 310 750 347 775 b 588 742 454 788 539 761 b 600 771 607 733 619 763 b 390 813 519 804 457 817 b 279 699 326 810 276 763 b 596 471 288 572 460 599 b 599 93 714 363 693 189 b 90 79 475 -31 250 -4 b 74 51 71 89 56 61 z "},"ł":{"ha":782,"x_min":0,"x_max":0,"o":"m 154 18 l 154 993 b 138 1010 154 1001 147 1010 b 121 993 128 1010 121 1001 l 121 476 l 13 440 b 1 419 4 438 0 428 b 22 410 6 411 14 406 l 121 442 l 121 0 b 138 -15 121 -8 128 -15 l 715 -15 b 732 0 725 -15 732 -8 b 715 18 732 10 725 18 z m 351 993 b 336 1010 351 1001 344 1010 b 319 993 328 1010 319 1001 l 319 200 b 336 183 319 190 328 183 l 715 183 b 732 200 725 183 732 190 b 715 215 732 208 725 215 l 351 215 l 351 522 l 528 582 b 538 603 536 583 540 593 b 517 613 536 611 525 614 l 351 556 z "},"Ž":{"ha":793,"x_min":0,"x_max":0,"o":"m 729 18 l 729 18 l 72 18 l 386 788 b 372 811 392 801 383 811 l 81 811 b 65 796 72 811 65 804 b 81 778 65 785 72 778 l 347 778 l 33 7 b 51 -15 28 -6 38 -15 l 729 -15 b 746 0 739 -15 746 -8 b 729 18 746 10 739 18 z m 81 978 l 81 978 l 643 978 l 329 206 b 344 183 324 193 332 183 l 729 183 b 746 200 739 183 746 190 b 729 215 746 208 739 215 l 368 215 l 682 986 b 665 1010 686 999 679 1010 l 81 1010 b 65 993 72 1010 65 1001 b 81 978 65 985 72 978 z m 399 1132 l 256 1247 b 233 1246 250 1254 240 1253 b 235 1224 228 1238 229 1231 l 388 1096 b 410 1096 396 1090 401 1089 l 564 1224 b 565 1244 569 1231 571 1236 b 543 1247 563 1251 549 1254 z "},"ı":{"ha":454,"x_min":0,"x_max":0,"o":"m 342 0 l 342 0 l 342 993 b 326 1008 342 1001 335 1008 b 310 993 317 1008 310 1001 l 310 0 b 326 -15 310 -8 317 -15 b 342 0 335 -15 342 -8 z m 143 0 l 143 0 l 143 993 b 128 1008 143 1001 136 1008 b 111 993 118 1008 111 1001 l 111 0 b 128 -15 111 -8 118 -15 b 143 0 136 -15 143 -8 z "},"ž":{"ha":793,"x_min":0,"x_max":0,"o":"m 729 18 l 729 18 l 72 18 l 386 788 b 372 811 392 801 383 811 l 81 811 b 65 796 72 811 65 804 b 81 778 65 785 72 778 l 347 778 l 33 7 b 51 -15 28 -6 38 -15 l 729 -15 b 746 0 739 -15 746 -8 b 729 18 746 10 739 18 z m 81 978 l 81 978 l 643 978 l 329 206 b 344 183 324 193 332 183 l 729 183 b 746 200 739 183 746 190 b 729 215 746 208 739 215 l 368 215 l 682 986 b 665 1010 686 999 679 1010 l 81 1010 b 65 993 72 1010 65 1001 b 81 978 65 985 72 978 z m 399 1132 l 256 1247 b 233 1246 250 1254 240 1253 b 235 1224 228 1238 229 1231 l 388 1096 b 410 1096 396 1090 401 1089 l 564 1224 b 565 1244 569 1231 571 1236 b 543 1247 563 1251 549 1254 z "},"˝":{"ha":521,"x_min":0,"x_max":0,"o":"m 96 885 b 96 863 90 878 90 869 b 119 864 103 856 114 854 l 218 976 b 215 1000 225 982 225 992 b 194 997 210 1006 201 1006 z m 297 883 b 297 860 292 876 292 867 b 321 863 304 853 315 853 l 428 976 b 425 1000 435 982 435 992 b 404 997 419 1006 411 1006 z "},"€":{"ha":750,"x_min":0,"x_max":0,"o":"m 689 -4 b 679 26 711 3 700 31 b 594 19 651 22 622 19 b 147 304 361 19 213 143 b 147 701 97 429 97 575 b 594 986 213 860 361 986 b 653 983 614 986 633 986 b 658 1014 671 981 678 1008 b 594 1018 638 1017 615 1018 b 119 713 347 1018 189 885 b 83 579 101 669 90 625 l 4 579 b -12 564 -4 579 -12 572 b 4 547 -12 556 -4 547 l 81 547 b 85 418 76 504 79 460 l 4 418 b -12 403 -4 418 -12 411 b 4 386 -12 394 -4 386 l 90 386 b 119 292 97 354 107 322 b 594 -12 189 121 347 -12 b 689 -4 626 -12 658 -10 z m 664 193 b 656 222 682 199 675 226 b 594 218 636 219 617 218 b 340 385 461 218 378 290 b 339 386 340 385 339 385 l 532 386 b 547 403 540 386 547 394 b 532 418 547 411 540 418 l 329 418 b 321 547 318 460 315 504 l 543 547 b 558 564 551 547 558 556 b 543 579 558 572 551 579 l 328 579 b 340 619 331 593 335 606 b 594 786 378 713 461 786 b 633 785 608 786 621 786 b 639 817 657 782 660 815 b 594 818 625 818 610 818 b 311 631 447 818 351 736 b 311 374 279 550 279 456 b 594 188 351 268 447 188 b 664 193 619 188 643 189 z "},"…":{"ha":1000,"x_min":0,"x_max":0,"o":"m 168 242 b 51 167 107 242 69 208 b 168 -11 17 81 72 -11 b 285 167 263 -11 319 82 b 168 242 267 208 229 242 z m 256 154 b 168 21 282 89 242 21 b 79 154 94 21 54 88 b 168 210 92 185 122 210 b 256 154 213 210 244 186 z m 501 242 b 385 167 440 242 403 208 b 501 -11 350 81 406 -11 b 618 167 596 -11 653 82 b 501 242 600 208 563 242 z m 589 154 b 501 21 615 89 575 21 b 413 154 428 21 388 88 b 501 210 425 185 456 210 b 589 154 546 210 578 186 z m 835 242 b 718 167 774 242 736 208 b 835 -11 683 81 739 -11 b 951 167 929 -11 986 82 b 835 242 933 208 896 242 z m 922 154 b 835 21 949 89 908 21 b 746 154 761 21 721 88 b 835 210 758 185 789 210 b 922 154 879 210 911 186 z "},"„":{"ha":776,"x_min":0,"x_max":0,"o":"m 47 -197 b 58 -217 43 -206 50 -214 b 61 -217 58 -217 60 -217 l 61 -217 l 211 -217 b 225 -206 217 -217 224 -212 l 346 111 b 336 131 347 119 344 126 b 317 122 328 133 319 131 l 199 -186 l 81 -186 l 151 114 b 140 132 154 122 149 131 b 121 119 132 135 124 128 z m 394 -197 b 406 -217 390 -206 397 -214 b 408 -217 406 -217 407 -217 l 408 -217 l 558 -217 b 572 -206 564 -217 571 -212 l 693 111 b 683 131 694 119 692 126 b 664 122 675 133 667 131 l 546 -186 l 428 -186 l 499 114 b 488 132 501 122 496 131 b 468 119 479 135 471 128 z "},"‚":{"ha":436,"x_min":0,"x_max":0,"o":"m 47 -197 b 58 -217 43 -206 50 -214 b 61 -217 58 -217 60 -217 l 61 -217 l 211 -217 b 225 -206 217 -217 224 -212 l 346 111 b 336 131 347 119 344 126 b 317 122 328 133 319 131 l 199 -186 l 81 -186 l 151 114 b 140 132 154 122 149 131 b 121 119 132 135 124 128 z "},"˙":{"ha":333,"x_min":0,"x_max":0,"o":"m 168 1007 b 51 932 107 1007 69 974 b 168 754 17 846 72 754 b 285 932 263 754 319 847 b 168 1007 267 974 229 1007 z m 256 919 b 168 786 282 854 242 786 b 79 919 94 786 54 853 b 168 975 92 950 122 975 b 256 919 213 975 244 951 z "},"˚":{"ha":375,"x_min":0,"x_max":0,"o":"m 192 1011 b 50 919 118 1011 71 971 b 192 703 7 814 75 703 b 333 919 307 703 376 815 b 192 1011 313 971 265 1011 z m 306 908 b 192 735 339 824 288 735 b 76 908 96 735 44 821 b 192 979 93 947 132 979 b 306 908 250 979 290 949 z "},"˘":{"ha":394,"x_min":0,"x_max":0,"o":"m 78 985 b 49 985 78 1003 49 1000 b 203 835 49 903 110 835 b 357 985 293 835 356 904 b 326 985 356 1003 326 1001 b 203 867 325 921 278 867 b 78 985 126 867 79 919 z "},"Š":{"ha":764,"x_min":0,"x_max":0,"o":"m 74 51 l 74 51 b 232 -6 129 24 182 6 b 708 294 485 -65 708 43 b 342 644 708 546 404 597 b 311 703 322 660 311 682 b 389 781 310 750 347 775 b 588 742 454 788 539 761 b 600 771 607 733 619 763 b 390 813 519 804 457 817 b 279 699 326 810 276 763 b 596 471 288 572 460 599 b 599 93 714 363 693 189 b 90 79 475 -31 250 -4 b 74 51 71 89 56 61 z m 625 971 l 625 971 b 471 1010 560 993 510 1004 b 79 696 247 1040 79 911 b 449 347 79 438 383 401 b 453 238 481 318 486 268 b 117 286 383 174 204 225 b 99 260 100 297 81 272 b 388 178 188 194 300 172 b 507 293 453 182 511 228 b 193 515 499 421 329 397 b 185 894 74 622 96 799 b 614 942 294 1014 465 993 b 625 971 633 933 644 964 z m 390 1122 l 247 1238 b 225 1236 242 1244 232 1243 b 226 1214 219 1228 221 1221 l 379 1086 b 401 1086 388 1081 393 1079 l 556 1214 b 557 1235 561 1221 563 1226 b 535 1238 554 1242 540 1244 z "},"š":{"ha":764,"x_min":0,"x_max":0,"o":"m 74 51 l 74 51 b 232 -6 129 24 182 6 b 708 294 485 -65 708 43 b 342 644 708 546 404 597 b 311 703 322 660 311 682 b 389 781 310 750 347 775 b 588 742 454 788 539 761 b 600 771 607 733 619 763 b 390 813 519 804 457 817 b 279 699 326 810 276 763 b 596 471 288 572 460 599 b 599 93 714 363 693 189 b 90 79 475 -31 250 -4 b 74 51 71 89 56 61 z m 625 971 l 625 971 b 471 1010 560 993 510 1004 b 79 696 247 1040 79 911 b 449 347 79 438 383 401 b 453 238 481 318 486 268 b 117 286 383 174 204 225 b 99 260 100 297 81 272 b 388 178 188 194 300 172 b 507 293 453 182 511 228 b 193 515 499 421 329 397 b 185 894 74 622 96 799 b 614 942 294 1014 465 993 b 625 971 633 933 644 964 z m 390 1122 l 247 1238 b 225 1236 242 1244 232 1243 b 226 1214 219 1228 221 1221 l 379 1086 b 401 1086 388 1081 393 1079 l 556 1214 b 557 1235 561 1221 563 1226 b 535 1238 554 1242 540 1244 z "},"œ":{"ha":1189,"x_min":0,"x_max":0,"o":"m 797 413 b 783 396 790 413 783 406 l 783 197 b 797 183 783 192 790 183 l 1096 183 b 1110 197 1103 183 1110 192 b 1096 214 1110 207 1103 214 l 815 214 l 815 378 l 1026 378 b 1026 413 1046 378 1046 413 z m 1074 976 b 1093 993 1085 976 1093 986 b 1074 1011 1093 1004 1085 1011 l 615 1011 b 561 1015 599 1011 576 1015 b 50 496 249 1015 50 797 b 561 -22 50 197 249 -22 b 615 -17 576 -22 599 -22 l 1096 -17 b 1110 0 1103 -17 1110 -11 b 1096 14 1110 7 1103 14 l 615 14 b 561 10 599 14 576 10 b 83 496 267 10 83 214 b 561 981 83 779 267 981 b 615 976 576 981 599 981 z m 300 336 b 561 175 357 238 446 175 b 588 175 567 175 576 175 b 615 214 611 181 615 192 l 615 783 b 588 815 615 806 608 815 b 561 819 576 819 567 819 b 300 656 446 819 357 756 b 303 635 293 647 297 638 b 329 642 313 632 322 632 b 561 783 376 728 457 783 b 583 783 567 783 576 783 l 583 210 b 561 207 576 207 567 207 b 329 351 457 207 376 263 b 303 358 322 358 313 361 b 300 336 297 356 293 346 z m 797 813 b 783 794 790 813 783 806 l 783 597 b 797 579 783 586 790 579 l 1026 579 b 1026 611 1046 579 1046 611 l 815 611 l 815 779 l 1074 779 b 1093 794 1085 779 1093 786 b 1074 813 1093 806 1085 813 z "},"¡":{"ha":417,"x_min":0,"x_max":0,"o":"m 99 -304 b 115 -321 99 -312 106 -321 b 131 -304 124 -321 131 -312 l 129 292 b 114 307 129 300 122 307 b 97 292 104 307 97 300 z m 211 446 b 342 576 283 446 342 503 b 210 704 342 647 283 704 b 81 576 140 704 81 647 b 211 446 81 503 142 446 z m 210 479 b 113 576 157 479 113 519 b 210 671 113 631 157 671 b 310 576 267 671 310 631 b 210 479 310 519 267 479 z m 328 292 b 311 307 328 300 321 307 b 296 292 303 307 296 300 l 297 -304 b 313 -321 297 -312 304 -321 b 329 -304 322 -321 329 -312 z "},"“":{"ha":325,"x_min":0,"x_max":0,"o":"m 43 833 b 43 811 39 825 38 818 b 67 813 50 804 61 803 l 128 976 b 101 993 142 999 113 1014 z m 188 832 b 188 808 183 824 182 815 b 211 811 194 801 206 801 l 281 976 b 256 993 294 993 267 1013 z "},"”":{"ha":325,"x_min":0,"x_max":0,"o":"m 43 833 b 43 811 39 825 38 818 b 67 813 50 804 61 803 l 128 976 b 101 993 142 999 113 1014 z m 188 832 b 188 808 183 824 182 815 b 211 811 194 801 206 801 l 281 976 b 256 993 294 993 267 1013 z "},"’":{"ha":178,"x_min":0,"x_max":0,"o":"m 43 833 b 43 811 39 825 38 818 b 67 813 50 804 61 803 l 128 976 b 101 993 142 999 113 1014 z "},"‘":{"ha":178,"x_min":0,"x_max":0,"o":"m 43 833 b 43 811 39 825 38 818 b 67 813 50 804 61 803 l 128 976 b 101 993 142 999 113 1014 z "},"•":{"ha":333,"x_min":0,"x_max":0,"o":"m 168 574 b 51 499 107 574 69 540 b 168 321 17 413 72 321 b 285 499 263 321 319 414 b 168 574 267 540 229 574 z "},"–":{"ha":693,"x_min":0,"x_max":0,"o":"m 578 464 b 593 481 586 464 593 472 b 578 496 593 489 586 496 l 118 496 b 101 481 110 496 101 489 b 118 464 101 472 110 464 z "},"—":{"ha":765,"x_min":0,"x_max":0,"o":"m 675 464 b 690 481 683 464 690 472 b 675 496 690 489 683 496 l 118 496 b 101 481 110 496 101 489 b 118 464 101 472 110 464 z "},"Ÿ":{"ha":935,"x_min":0,"x_max":0,"o":"m 254 985 l 254 985 l 456 640 b 485 640 463 629 478 629 l 688 985 b 682 1007 692 993 689 1003 b 658 1001 674 1011 665 1008 l 469 681 l 281 1001 b 260 1007 276 1008 267 1011 b 254 985 251 1003 249 993 z m 901 1001 l 901 1001 l 556 453 b 554 443 554 449 554 446 l 554 3 b 569 -15 554 -8 561 -15 b 585 3 578 -15 585 -8 l 585 439 l 929 985 b 924 1007 933 992 932 1001 b 901 1001 917 1011 907 1008 z m 388 3 l 388 3 l 388 444 b 385 453 388 447 386 450 l 39 1001 b 17 1007 33 1008 24 1011 b 13 985 10 1001 7 992 l 354 439 l 354 3 b 371 -15 354 -8 361 -15 b 388 3 381 -15 388 -8 z m 217 1168 b 314 1068 217 1111 260 1069 b 413 1168 371 1068 413 1111 l 413 1168 b 314 1265 413 1222 371 1265 b 217 1168 260 1265 217 1222 z m 246 1168 b 314 1235 246 1206 275 1235 b 386 1168 356 1235 386 1206 l 386 1168 b 314 1097 386 1126 356 1097 l 314 1097 b 246 1168 275 1097 246 1126 z m 531 1168 b 628 1068 531 1111 574 1068 b 726 1168 683 1069 726 1111 b 628 1265 726 1222 683 1264 b 531 1168 574 1264 531 1222 z m 558 1168 b 628 1235 558 1206 589 1235 b 699 1168 665 1235 699 1206 b 628 1097 699 1126 665 1097 l 628 1097 b 558 1168 589 1097 558 1126 z "},"¥":{"ha":935,"x_min":0,"x_max":0,"o":"m 388 444 b 385 453 388 447 386 450 l 39 1001 b 17 1007 33 1008 24 1011 b 13 985 10 1001 7 992 l 313 504 l 154 504 b 139 489 146 504 139 497 b 154 474 139 481 146 474 l 332 474 l 354 439 l 354 343 l 157 343 b 142 328 149 343 142 336 b 157 313 142 319 149 313 l 354 313 l 354 3 b 371 -15 354 -8 361 -15 b 388 3 381 -15 388 -8 z m 556 453 b 554 443 554 449 554 446 l 554 3 b 569 -15 554 -8 561 -15 b 585 3 578 -15 585 -8 l 585 313 l 783 313 b 799 328 792 313 799 319 b 783 343 799 336 792 343 l 585 343 l 585 439 l 607 474 l 786 474 b 801 489 794 474 801 481 b 786 504 801 497 794 504 l 626 504 l 929 985 b 924 1007 933 992 932 1001 b 901 1001 917 1011 907 1008 z m 456 640 b 485 640 463 629 478 629 l 688 985 b 682 1007 692 993 689 1003 b 658 1001 674 1011 665 1008 l 469 681 l 281 1001 b 260 1007 276 1008 267 1011 b 254 985 251 1003 249 993 z "},"¯":{"ha":388,"x_min":0,"x_max":0,"o":"m 314 956 b 329 972 322 956 329 964 b 314 988 329 981 322 988 l 56 988 b 39 972 47 988 39 981 b 56 956 39 964 47 956 z "},"·":{"ha":333,"x_min":0,"x_max":0,"o":"m 158 624 b 42 549 97 624 60 590 b 158 371 7 463 63 371 b 275 549 253 371 310 464 b 158 624 257 590 219 624 z m 246 536 b 158 403 272 471 232 403 b 69 536 85 403 44 469 b 158 592 82 567 113 592 b 246 536 203 592 235 568 z "},"æ":{"ha":1171,"x_min":0,"x_max":0,"o":"m 1024 421 b 1042 408 1036 421 1042 414 b 1024 389 1042 396 1036 389 l 815 389 l 815 213 l 1082 213 b 1096 199 1090 213 1096 206 b 1082 182 1096 189 1090 182 l 797 182 b 786 199 793 182 786 189 l 786 408 b 797 421 786 414 793 421 z m 517 990 l 26 6 b 35 -14 24 -4 26 -10 b 54 -7 44 -17 50 -14 l 547 979 l 586 979 l 586 308 l 410 308 l 519 525 b 492 539 529 544 500 560 l 369 299 b 369 296 369 299 369 296 b 386 278 369 286 379 278 l 586 278 b 618 308 613 278 618 289 l 618 979 l 1065 979 b 1082 993 1076 979 1082 988 b 1065 1011 1082 1004 1076 1011 b 553 1011 874 1011 742 1011 b 517 990 529 1011 522 1007 z m 303 107 b 289 96 296 107 292 103 l 243 6 b 253 -14 240 -4 243 -10 b 275 -7 258 -17 271 -14 l 315 76 l 586 76 l 586 0 b 603 -17 586 -10 593 -17 l 1082 -17 b 1096 0 1090 -17 1096 -10 b 1082 17 1096 10 1090 17 l 618 17 l 618 76 b 586 107 618 93 610 107 b 303 107 492 107 399 107 z m 1065 813 b 1082 799 1076 813 1082 806 b 1065 781 1082 786 1076 781 l 815 781 l 815 615 l 1024 615 b 1042 599 1036 615 1042 608 b 1024 578 1042 585 1036 578 l 797 578 b 786 599 793 578 786 585 l 786 799 b 797 813 786 806 793 813 z "},"ø":{"ha":1164,"x_min":0,"x_max":0,"o":"m 1086 582 b 851 874 1046 708 960 810 l 917 988 b 911 1008 921 994 918 1003 b 892 1003 904 1011 894 1010 l 825 889 b 583 946 751 926 669 946 b 63 425 274 946 63 726 b 300 -22 63 229 151 67 l 233 -137 b 239 -158 229 -144 232 -154 b 258 -153 244 -162 256 -160 l 325 -35 b 583 -94 400 -75 488 -94 b 1086 268 813 -94 1017 50 b 1075 290 1089 276 1083 286 b 1057 279 1067 292 1058 286 b 583 -62 992 72 799 -62 b 96 425 293 -62 96 142 b 583 914 96 708 293 914 b 810 860 663 914 739 896 l 722 711 b 583 746 682 733 633 746 b 310 583 471 746 367 682 b 317 563 307 576 308 567 b 339 568 324 558 333 561 b 583 713 390 657 482 713 b 707 682 629 713 669 703 l 422 190 b 339 281 388 214 360 244 b 317 289 333 290 324 292 b 310 265 308 282 307 274 b 583 106 367 168 471 106 b 899 425 758 106 899 250 b 749 697 899 539 839 640 l 835 846 b 1057 571 938 786 1019 690 b 1075 561 1058 563 1067 558 b 1086 582 1083 565 1089 574 z m 733 669 b 865 425 813 618 865 528 b 583 139 865 268 742 139 b 446 175 533 139 488 150 z "},"¿":{"ha":685,"x_min":0,"x_max":0,"o":"m 192 308 b 29 -19 119 218 29 103 b 210 -308 29 -168 108 -267 b 464 -308 292 -342 383 -340 b 646 -19 567 -267 646 -168 b 629 -1 646 -10 638 -1 b 613 -19 621 -1 613 -10 b 451 -278 613 -154 542 -242 b 225 -278 379 -308 294 -308 b 60 -19 132 -242 60 -154 b 218 288 60 92 150 206 b 213 310 222 294 222 304 b 192 308 207 315 196 315 z m 328 440 b 458 571 399 440 458 497 b 328 699 458 642 399 699 b 199 571 256 699 199 642 b 328 440 199 497 256 440 z m 328 474 b 229 571 272 474 229 514 b 328 665 229 625 272 665 b 425 571 382 665 425 625 b 328 474 425 514 382 474 z m 256 81 b 222 -19 236 49 222 22 b 289 -126 222 -74 251 -111 b 383 -126 319 -139 354 -139 b 451 -19 422 -111 451 -74 b 436 -1 451 -10 446 -1 b 419 -19 428 -1 419 -10 b 371 -97 419 -60 399 -86 b 303 -97 351 -106 325 -106 b 254 -19 275 -86 254 -60 b 285 63 254 15 267 38 l 431 276 b 428 300 436 285 433 294 b 404 294 419 304 408 303 z "},"À":{"ha":899,"x_min":0,"x_max":0,"o":"m 374 290 b 357 306 365 290 357 297 b 374 321 357 314 365 321 l 497 321 l 432 479 b 440 500 429 488 433 497 b 463 490 450 504 458 500 l 535 313 b 536 306 536 310 536 308 b 519 290 536 297 529 290 l 374 290 l 374 290 z m 269 10 b 250 0 267 0 258 -3 b 240 21 240 3 236 14 l 278 111 b 293 121 279 118 286 121 l 601 121 b 617 111 610 121 615 117 l 654 21 b 644 0 657 14 653 3 b 624 10 636 -3 628 0 l 590 90 l 303 90 l 269 10 l 269 10 z m 54 10 b 33 0 51 0 42 -3 b 25 21 25 3 21 14 l 432 1019 b 463 1019 438 1035 457 1033 l 869 21 b 861 0 872 14 869 3 b 840 10 853 -3 843 0 l 447 972 l 54 10 l 54 10 z m 371 1274 b 350 1276 364 1282 356 1282 b 347 1253 340 1268 340 1258 l 488 1106 b 511 1103 493 1096 504 1096 b 511 1126 517 1110 517 1119 z "},"Á":{"ha":899,"x_min":0,"x_max":0,"o":"m 374 290 l 374 290 l 519 290 b 536 306 529 290 536 297 b 535 313 536 308 536 310 l 463 490 b 440 500 458 500 450 504 b 432 479 433 497 429 488 l 497 321 l 374 321 b 357 306 365 321 357 314 b 374 290 357 297 365 290 z m 269 10 l 269 10 l 303 90 l 590 90 l 624 10 b 644 0 628 0 636 -3 b 654 21 653 3 657 14 l 617 111 b 601 121 615 117 610 121 l 293 121 b 278 111 286 121 279 118 l 240 21 b 250 0 236 14 240 3 b 269 10 258 -3 267 0 z m 54 10 l 54 10 l 447 972 l 840 10 b 861 0 843 0 853 -3 b 869 21 869 3 872 14 l 463 1019 b 432 1019 457 1033 438 1035 l 25 21 b 33 0 21 14 25 3 b 54 10 42 -3 51 0 z m 367 1110 b 367 1086 361 1103 361 1093 b 390 1089 374 1079 385 1079 l 531 1236 b 528 1260 538 1242 538 1251 b 507 1257 522 1265 514 1265 z "},"Â":{"ha":899,"x_min":0,"x_max":0,"o":"m 374 290 b 357 306 365 290 357 297 b 374 321 357 314 365 321 l 497 321 l 432 479 b 440 500 429 488 433 497 b 463 490 450 504 458 500 l 535 313 b 536 306 536 310 536 308 b 519 290 536 297 529 290 l 374 290 l 374 290 z m 269 10 b 250 0 267 0 258 -3 b 240 21 240 3 236 14 l 278 111 b 293 121 279 118 286 121 l 601 121 b 617 111 610 121 615 117 l 654 21 b 644 0 657 14 653 3 b 624 10 636 -3 628 0 l 590 90 l 303 90 l 269 10 l 269 10 z m 54 10 b 33 0 51 0 42 -3 b 25 21 25 3 21 14 l 432 1019 b 463 1019 438 1035 457 1033 l 869 21 b 861 0 872 14 869 3 b 840 10 853 -3 843 0 l 447 972 l 54 10 l 54 10 z m 589 1068 b 610 1068 594 1061 607 1061 b 610 1092 615 1076 615 1085 l 456 1219 b 433 1219 450 1222 439 1222 l 281 1092 b 278 1068 275 1085 272 1076 b 301 1068 285 1061 296 1061 l 444 1183 z "},"Ã":{"ha":899,"x_min":0,"x_max":0,"o":"m 374 290 l 374 290 l 519 290 b 536 306 529 290 536 297 b 535 313 536 308 536 310 l 463 490 b 440 500 458 500 450 504 b 432 479 433 497 429 488 l 497 321 l 374 321 b 357 306 365 321 357 314 b 374 290 357 297 365 290 z m 269 10 l 269 10 l 303 90 l 590 90 l 624 10 b 644 0 628 0 636 -3 b 654 21 653 3 657 14 l 617 111 b 601 121 615 117 610 121 l 293 121 b 278 111 286 121 279 118 l 240 21 b 250 0 236 14 240 3 b 269 10 258 -3 267 0 z m 54 10 l 54 10 l 447 972 l 840 10 b 861 0 843 0 853 -3 b 869 21 869 3 872 14 l 463 1019 b 432 1019 457 1033 438 1035 l 25 21 b 33 0 21 14 25 3 b 54 10 42 -3 51 0 z m 314 1114 b 363 1163 326 1135 340 1160 b 435 1131 390 1168 418 1150 b 536 1097 465 1110 497 1092 b 607 1163 568 1104 592 1131 b 601 1183 613 1168 610 1179 b 581 1176 594 1189 583 1186 b 531 1128 568 1156 554 1135 b 454 1160 503 1122 476 1142 b 357 1194 429 1183 394 1200 b 285 1131 322 1189 303 1160 b 293 1107 281 1122 285 1114 b 314 1114 299 1104 311 1107 z "},"Ä":{"ha":899,"x_min":0,"x_max":0,"o":"m 374 290 l 374 290 l 519 290 b 536 306 529 290 536 297 b 535 313 536 308 536 310 l 463 490 b 440 500 458 500 450 504 b 432 479 433 497 429 488 l 497 321 l 374 321 b 357 306 365 321 357 314 b 374 290 357 297 365 290 z m 269 10 l 269 10 l 303 90 l 590 90 l 624 10 b 644 0 628 0 636 -3 b 654 21 653 3 657 14 l 617 111 b 601 121 615 117 610 121 l 293 121 b 278 111 286 121 279 118 l 240 21 b 250 0 236 14 240 3 b 269 10 258 -3 267 0 z m 54 10 l 54 10 l 447 972 l 840 10 b 861 0 843 0 853 -3 b 869 21 869 3 872 14 l 463 1019 b 432 1019 457 1033 438 1035 l 25 21 b 33 0 21 14 25 3 b 54 10 42 -3 51 0 z m 182 1147 b 285 1043 182 1088 228 1044 b 388 1147 343 1043 388 1088 l 388 1147 b 285 1250 388 1204 343 1250 b 182 1147 228 1250 182 1204 z m 213 1147 b 285 1218 213 1188 243 1218 b 360 1147 328 1218 360 1188 l 360 1147 b 285 1074 360 1104 328 1074 l 285 1074 b 213 1147 243 1074 213 1104 z m 511 1147 b 614 1043 511 1088 557 1043 b 717 1147 672 1044 717 1088 b 614 1250 717 1204 672 1249 b 511 1147 557 1249 511 1204 z m 540 1147 b 614 1218 540 1188 572 1218 b 688 1147 653 1218 688 1188 b 614 1074 688 1104 653 1074 l 614 1074 b 540 1147 572 1074 540 1104 z "},"Å":{"ha":899,"x_min":0,"x_max":0,"o":"m 497 913 b 486 876 485 904 481 893 l 840 10 b 861 0 843 0 853 -3 b 869 21 869 3 872 14 l 517 886 b 590 1089 589 919 624 1007 b 449 1181 569 1140 522 1181 b 307 1089 375 1181 328 1140 b 379 889 272 1006 307 922 l 25 21 b 33 0 21 14 25 3 b 54 10 42 -3 51 0 l 410 879 b 393 915 419 899 410 907 b 333 1078 336 943 308 1008 b 449 1149 350 1117 389 1149 b 563 1078 507 1149 547 1118 b 497 913 590 1010 560 938 z m 303 90 l 590 90 l 624 10 b 644 0 628 0 636 -3 b 654 21 653 3 657 14 l 617 111 b 601 121 615 117 610 121 l 293 121 b 278 111 286 121 279 118 l 240 21 b 250 0 236 14 240 3 b 269 10 258 -3 267 0 z m 519 290 b 536 306 529 290 536 297 b 535 313 536 308 536 310 l 463 490 b 440 500 458 500 450 504 b 432 479 433 497 429 488 l 497 321 l 374 321 b 357 306 365 321 357 314 b 374 290 357 297 365 290 z "},"à":{"ha":899,"x_min":0,"x_max":0,"o":"m 374 290 b 357 306 365 290 357 297 b 374 321 357 314 365 321 l 497 321 l 432 479 b 440 500 429 488 433 497 b 463 490 450 504 458 500 l 535 313 b 536 306 536 310 536 308 b 519 290 536 297 529 290 l 374 290 l 374 290 z m 269 10 b 250 0 267 0 258 -3 b 240 21 240 3 236 14 l 278 111 b 293 121 279 118 286 121 l 601 121 b 617 111 610 121 615 117 l 654 21 b 644 0 657 14 653 3 b 624 10 636 -3 628 0 l 590 90 l 303 90 l 269 10 l 269 10 z m 54 10 b 33 0 51 0 42 -3 b 25 21 25 3 21 14 l 432 1019 b 463 1019 438 1035 457 1033 l 869 21 b 861 0 872 14 869 3 b 840 10 853 -3 843 0 l 447 972 l 54 10 l 54 10 z m 371 1274 b 350 1276 364 1282 356 1282 b 347 1253 340 1268 340 1258 l 488 1106 b 511 1103 493 1096 504 1096 b 511 1126 517 1110 517 1119 z "},"á":{"ha":899,"x_min":0,"x_max":0,"o":"m 374 290 l 374 290 l 519 290 b 536 306 529 290 536 297 b 535 313 536 308 536 310 l 463 490 b 440 500 458 500 450 504 b 432 479 433 497 429 488 l 497 321 l 374 321 b 357 306 365 321 357 314 b 374 290 357 297 365 290 z m 269 10 l 269 10 l 303 90 l 590 90 l 624 10 b 644 0 628 0 636 -3 b 654 21 653 3 657 14 l 617 111 b 601 121 615 117 610 121 l 293 121 b 278 111 286 121 279 118 l 240 21 b 250 0 236 14 240 3 b 269 10 258 -3 267 0 z m 54 10 l 54 10 l 447 972 l 840 10 b 861 0 843 0 853 -3 b 869 21 869 3 872 14 l 463 1019 b 432 1019 457 1033 438 1035 l 25 21 b 33 0 21 14 25 3 b 54 10 42 -3 51 0 z m 367 1110 b 367 1086 361 1103 361 1093 b 390 1089 374 1079 385 1079 l 531 1236 b 528 1260 538 1242 538 1251 b 507 1257 522 1265 514 1265 z "},"â":{"ha":899,"x_min":0,"x_max":0,"o":"m 374 290 b 357 306 365 290 357 297 b 374 321 357 314 365 321 l 497 321 l 432 479 b 440 500 429 488 433 497 b 463 490 450 504 458 500 l 535 313 b 536 306 536 310 536 308 b 519 290 536 297 529 290 l 374 290 l 374 290 z m 269 10 b 250 0 267 0 258 -3 b 240 21 240 3 236 14 l 278 111 b 293 121 279 118 286 121 l 601 121 b 617 111 610 121 615 117 l 654 21 b 644 0 657 14 653 3 b 624 10 636 -3 628 0 l 590 90 l 303 90 l 269 10 l 269 10 z m 54 10 b 33 0 51 0 42 -3 b 25 21 25 3 21 14 l 432 1019 b 463 1019 438 1035 457 1033 l 869 21 b 861 0 872 14 869 3 b 840 10 853 -3 843 0 l 447 972 l 54 10 l 54 10 z m 589 1068 b 610 1068 594 1061 607 1061 b 610 1092 615 1076 615 1085 l 456 1219 b 433 1219 450 1222 439 1222 l 281 1092 b 278 1068 275 1085 272 1076 b 301 1068 285 1061 296 1061 l 444 1183 z "},"ã":{"ha":899,"x_min":0,"x_max":0,"o":"m 374 290 l 374 290 l 519 290 b 536 306 529 290 536 297 b 535 313 536 308 536 310 l 463 490 b 440 500 458 500 450 504 b 432 479 433 497 429 488 l 497 321 l 374 321 b 357 306 365 321 357 314 b 374 290 357 297 365 290 z m 269 10 l 269 10 l 303 90 l 590 90 l 624 10 b 644 0 628 0 636 -3 b 654 21 653 3 657 14 l 617 111 b 601 121 615 117 610 121 l 293 121 b 278 111 286 121 279 118 l 240 21 b 250 0 236 14 240 3 b 269 10 258 -3 267 0 z m 54 10 l 54 10 l 447 972 l 840 10 b 861 0 843 0 853 -3 b 869 21 869 3 872 14 l 463 1019 b 432 1019 457 1033 438 1035 l 25 21 b 33 0 21 14 25 3 b 54 10 42 -3 51 0 z m 314 1114 b 363 1163 326 1135 340 1160 b 435 1131 390 1168 418 1150 b 536 1097 465 1110 497 1092 b 607 1163 568 1104 592 1131 b 601 1183 613 1168 610 1179 b 581 1176 594 1189 583 1186 b 531 1128 568 1156 554 1135 b 454 1160 503 1122 476 1142 b 357 1194 429 1183 394 1200 b 285 1131 322 1189 303 1160 b 293 1107 281 1122 285 1114 b 314 1114 299 1104 311 1107 z "},"ä":{"ha":899,"x_min":0,"x_max":0,"o":"m 374 290 l 374 290 l 519 290 b 536 306 529 290 536 297 b 535 313 536 308 536 310 l 463 490 b 440 500 458 500 450 504 b 432 479 433 497 429 488 l 497 321 l 374 321 b 357 306 365 321 357 314 b 374 290 357 297 365 290 z m 269 10 l 269 10 l 303 90 l 590 90 l 624 10 b 644 0 628 0 636 -3 b 654 21 653 3 657 14 l 617 111 b 601 121 615 117 610 121 l 293 121 b 278 111 286 121 279 118 l 240 21 b 250 0 236 14 240 3 b 269 10 258 -3 267 0 z m 54 10 l 54 10 l 447 972 l 840 10 b 861 0 843 0 853 -3 b 869 21 869 3 872 14 l 463 1019 b 432 1019 457 1033 438 1035 l 25 21 b 33 0 21 14 25 3 b 54 10 42 -3 51 0 z m 182 1147 b 285 1043 182 1088 228 1044 b 388 1147 343 1043 388 1088 l 388 1147 b 285 1250 388 1204 343 1250 b 182 1147 228 1250 182 1204 z m 213 1147 b 285 1218 213 1188 243 1218 b 360 1147 328 1218 360 1188 l 360 1147 b 285 1074 360 1104 328 1074 l 285 1074 b 213 1147 243 1074 213 1104 z m 511 1147 b 614 1043 511 1088 557 1043 b 717 1147 672 1044 717 1088 b 614 1250 717 1204 672 1249 b 511 1147 557 1249 511 1204 z m 540 1147 b 614 1218 540 1188 572 1218 b 688 1147 653 1218 688 1188 b 614 1074 688 1104 653 1074 l 614 1074 b 540 1147 572 1074 540 1104 z "},"å":{"ha":899,"x_min":0,"x_max":0,"o":"m 497 913 b 486 876 485 904 481 893 l 840 10 b 861 0 843 0 853 -3 b 869 21 869 3 872 14 l 517 886 b 590 1089 589 919 624 1007 b 449 1181 569 1140 522 1181 b 307 1089 375 1181 328 1140 b 379 889 272 1006 307 922 l 25 21 b 33 0 21 14 25 3 b 54 10 42 -3 51 0 l 410 879 b 393 915 419 899 410 907 b 333 1078 336 943 308 1008 b 449 1149 350 1117 389 1149 b 563 1078 507 1149 547 1118 b 497 913 590 1010 560 938 z m 303 90 l 590 90 l 624 10 b 644 0 628 0 636 -3 b 654 21 653 3 657 14 l 617 111 b 601 121 615 117 610 121 l 293 121 b 278 111 286 121 279 118 l 240 21 b 250 0 236 14 240 3 b 269 10 258 -3 267 0 z m 519 290 b 536 306 529 290 536 297 b 535 313 536 308 536 310 l 463 490 b 440 500 458 500 450 504 b 432 479 433 497 429 488 l 497 321 l 374 321 b 357 306 365 321 357 314 b 374 290 357 297 365 290 z "},"Þ":{"ha":868,"x_min":0,"x_max":0,"o":"m 308 815 b 340 783 307 793 314 783 l 517 783 b 768 617 647 783 731 711 b 768 388 796 544 796 460 b 517 221 731 293 647 221 l 325 221 b 308 206 315 221 308 214 l 308 0 b 325 -15 308 -8 315 -15 b 340 0 333 -15 340 -8 l 340 188 l 517 188 b 799 374 663 188 757 271 b 799 629 829 456 829 549 b 517 815 757 733 663 815 l 340 815 l 340 976 b 325 992 340 985 333 992 b 308 976 315 992 308 985 z m 111 0 b 126 -15 111 -8 118 -15 b 143 0 135 -15 143 -8 l 143 976 b 126 992 143 985 135 992 b 111 976 118 992 111 985 z m 500 388 b 607 456 556 388 590 417 b 607 549 619 485 619 519 b 500 617 590 588 556 617 l 328 617 b 311 600 318 617 311 610 b 328 585 311 593 314 585 l 500 585 b 578 536 540 585 567 563 b 578 468 586 514 586 489 b 500 418 567 439 539 418 l 443 418 b 428 403 435 418 428 411 b 443 388 428 394 435 388 z "},"þ":{"ha":868,"x_min":0,"x_max":0,"o":"m 308 815 b 340 783 307 793 314 783 l 517 783 b 768 617 647 783 731 711 b 768 388 796 544 796 460 b 517 221 731 293 647 221 l 325 221 b 308 206 315 221 308 214 l 308 0 b 325 -15 308 -8 315 -15 b 340 0 333 -15 340 -8 l 340 188 l 517 188 b 799 374 663 188 757 271 b 799 629 829 456 829 549 b 517 815 757 733 663 815 l 340 815 l 340 976 b 325 992 340 985 333 992 b 308 976 315 992 308 985 z m 111 0 b 126 -15 111 -8 118 -15 b 143 0 135 -15 143 -8 l 143 976 b 126 992 143 985 135 992 b 111 976 118 992 111 985 z m 500 388 b 607 456 556 388 590 417 b 607 549 619 485 619 519 b 500 617 590 588 556 617 l 328 617 b 311 600 318 617 311 610 b 328 585 311 593 314 585 l 500 585 b 578 536 540 585 567 563 b 578 468 586 514 586 489 b 500 418 567 439 539 418 l 443 418 b 428 403 435 418 428 411 b 443 388 428 394 435 388 z "},"Ç":{"ha":842,"x_min":0,"x_max":0,"o":"m 783 978 b 582 1018 719 1004 651 1018 b 107 713 335 1018 176 885 b 107 292 53 581 53 425 b 532 -10 171 132 313 6 l 513 -115 b 535 -135 513 -126 524 -135 b 671 -174 603 -126 647 -143 b 626 -296 704 -219 676 -276 b 435 -256 582 -311 518 -304 b 413 -261 426 -253 415 -256 b 418 -285 406 -271 410 -279 b 635 -326 510 -339 582 -344 b 699 -156 711 -299 742 -219 b 550 -100 671 -119 624 -97 l 564 -12 l 582 -12 b 783 26 651 -12 719 0 b 792 49 792 31 796 39 b 771 57 789 56 778 60 b 582 19 711 31 647 19 b 135 304 349 19 200 143 b 135 701 85 429 85 575 b 582 986 200 860 349 986 b 771 949 647 986 711 974 b 792 957 778 946 789 949 b 783 978 794 965 792 975 z m 744 260 b 582 218 690 229 644 218 b 328 385 449 218 365 290 b 328 619 299 458 299 546 b 582 786 365 713 449 786 b 744 746 644 786 690 775 b 765 751 753 742 761 744 b 760 774 769 760 767 769 b 582 818 700 807 650 818 b 299 631 435 818 339 736 b 299 374 267 550 267 456 b 582 188 339 268 435 188 b 760 232 650 188 700 199 b 765 253 767 236 769 246 b 744 260 761 261 753 264 z "},"ç":{"ha":842,"x_min":0,"x_max":0,"o":"m 783 978 b 582 1018 719 1004 651 1018 b 107 713 335 1018 176 885 b 107 292 53 581 53 425 b 532 -10 171 132 313 6 l 513 -115 b 535 -135 513 -126 524 -135 b 671 -174 603 -126 647 -143 b 626 -296 704 -219 676 -276 b 435 -256 582 -311 518 -304 b 413 -261 426 -253 415 -256 b 418 -285 406 -271 410 -279 b 635 -326 510 -339 582 -344 b 699 -156 711 -299 742 -219 b 550 -100 671 -119 624 -97 l 564 -12 l 582 -12 b 783 26 651 -12 719 0 b 792 49 792 31 796 39 b 771 57 789 56 778 60 b 582 19 711 31 647 19 b 135 304 349 19 200 143 b 135 701 85 429 85 575 b 582 986 200 860 349 986 b 771 949 647 986 711 974 b 792 957 778 946 789 949 b 783 978 794 965 792 975 z m 744 260 b 582 218 690 229 644 218 b 328 385 449 218 365 290 b 328 619 299 458 299 546 b 582 786 365 713 449 786 b 744 746 644 786 690 775 b 765 751 753 742 761 744 b 760 774 769 760 767 769 b 582 818 700 807 650 818 b 299 631 435 818 339 736 b 299 374 267 550 267 456 b 582 188 339 268 435 188 b 760 232 650 188 700 199 b 765 253 767 236 769 246 b 744 260 761 261 753 264 z "},"È":{"ha":732,"x_min":0,"x_max":0,"o":"m 549 414 b 565 397 558 414 565 407 b 549 382 565 389 558 382 l 342 382 l 342 215 l 642 215 b 657 199 650 215 657 208 b 642 183 657 190 650 183 l 326 183 b 310 199 317 183 310 190 l 310 397 b 326 414 310 407 317 414 l 549 414 l 549 414 z m 642 810 b 657 794 650 810 657 803 b 642 778 657 785 650 778 l 342 778 l 342 613 l 549 613 b 565 596 558 613 565 604 b 549 579 565 588 558 579 l 326 579 b 310 596 317 579 310 588 l 310 794 b 326 810 310 803 317 810 l 642 810 l 642 810 z m 642 17 b 657 0 650 17 657 10 b 642 -15 657 -8 650 -15 l 128 -15 b 111 0 118 -15 111 -8 l 111 993 b 128 1008 111 1001 118 1008 l 642 1008 b 657 993 650 1008 657 1001 b 642 976 657 983 650 976 l 143 976 l 143 17 l 642 17 l 642 17 z m 286 1254 b 265 1257 279 1263 271 1263 b 263 1233 256 1249 256 1239 l 403 1086 b 426 1083 408 1076 419 1076 b 426 1107 432 1090 432 1100 z "},"É":{"ha":732,"x_min":0,"x_max":0,"o":"m 549 414 l 549 414 l 326 414 b 310 397 317 414 310 407 l 310 199 b 326 183 310 190 317 183 l 642 183 b 657 199 650 183 657 190 b 642 215 657 208 650 215 l 342 215 l 342 382 l 549 382 b 565 397 558 382 565 389 b 549 414 565 407 558 414 z m 642 810 l 642 810 l 326 810 b 310 794 317 810 310 803 l 310 596 b 326 579 310 588 317 579 l 549 579 b 565 596 558 579 565 588 b 549 613 565 604 558 613 l 342 613 l 342 778 l 642 778 b 657 794 650 778 657 785 b 642 810 657 803 650 810 z m 642 17 l 642 17 l 143 17 l 143 976 l 642 976 b 657 993 650 976 657 983 b 642 1008 657 1001 650 1008 l 128 1008 b 111 993 118 1008 111 1001 l 111 0 b 128 -15 111 -8 118 -15 l 642 -15 b 657 0 650 -15 657 -8 b 642 17 657 10 650 17 z m 371 1133 b 371 1110 365 1126 365 1117 b 394 1113 378 1103 389 1103 l 535 1260 b 532 1283 542 1265 542 1275 b 511 1281 526 1289 518 1289 z "},"Ê":{"ha":732,"x_min":0,"x_max":0,"o":"m 549 414 b 565 397 558 414 565 407 b 549 382 565 389 558 382 l 342 382 l 342 215 l 642 215 b 657 199 650 215 657 208 b 642 183 657 190 650 183 l 326 183 b 310 199 317 183 310 190 l 310 397 b 326 414 310 407 317 414 l 549 414 l 549 414 z m 642 810 b 657 794 650 810 657 803 b 642 778 657 785 650 778 l 342 778 l 342 613 l 549 613 b 565 596 558 613 565 604 b 549 579 565 588 558 579 l 326 579 b 310 596 317 579 310 588 l 310 794 b 326 810 310 803 317 810 l 642 810 l 642 810 z m 642 17 b 657 0 650 17 657 10 b 642 -15 657 -8 650 -15 l 128 -15 b 111 0 118 -15 111 -8 l 111 993 b 128 1008 111 1001 118 1008 l 642 1008 b 657 993 650 1008 657 1001 b 642 976 657 983 650 976 l 143 976 l 143 17 l 642 17 l 642 17 z m 540 1117 b 561 1117 546 1110 558 1110 b 561 1140 567 1125 567 1133 l 407 1268 b 385 1268 401 1271 390 1271 l 232 1140 b 229 1117 226 1133 224 1125 b 253 1117 236 1110 247 1110 l 396 1232 z "},"Ë":{"ha":732,"x_min":0,"x_max":0,"o":"m 549 414 l 549 414 l 326 414 b 310 397 317 414 310 407 l 310 199 b 326 183 310 190 317 183 l 642 183 b 657 199 650 183 657 190 b 642 215 657 208 650 215 l 342 215 l 342 382 l 549 382 b 565 397 558 382 565 389 b 549 414 565 407 558 414 z m 642 810 l 642 810 l 326 810 b 310 794 317 810 310 803 l 310 596 b 326 579 310 588 317 579 l 549 579 b 565 596 558 579 565 588 b 549 613 565 604 558 613 l 342 613 l 342 778 l 642 778 b 657 794 650 778 657 785 b 642 810 657 803 650 810 z m 642 17 l 642 17 l 143 17 l 143 976 l 642 976 b 657 993 650 976 657 983 b 642 1008 657 1001 650 1008 l 128 1008 b 111 993 118 1008 111 1001 l 111 0 b 128 -15 111 -8 118 -15 l 642 -15 b 657 0 650 -15 657 -8 b 642 17 657 10 650 17 z m 113 1192 b 215 1088 113 1132 158 1089 b 318 1192 274 1088 318 1132 l 318 1192 b 215 1294 318 1249 274 1294 b 113 1192 158 1294 113 1249 z m 143 1192 b 215 1263 143 1232 174 1263 b 290 1192 258 1263 290 1232 l 290 1192 b 215 1118 290 1149 258 1118 l 215 1118 b 143 1192 174 1118 143 1149 z m 442 1192 b 544 1088 442 1132 488 1088 b 647 1192 603 1089 647 1132 b 544 1294 647 1249 603 1293 b 442 1192 488 1293 442 1249 z m 471 1192 b 544 1263 471 1232 503 1263 b 618 1192 583 1263 618 1232 b 544 1118 618 1149 583 1118 l 544 1118 b 471 1192 503 1118 471 1149 z "},"Ì":{"ha":454,"x_min":0,"x_max":0,"o":"m 342 0 b 326 -15 342 -8 335 -15 b 310 0 317 -15 310 -8 l 310 993 b 326 1008 310 1001 317 1008 b 342 993 335 1008 342 1001 l 342 0 l 342 0 z m 143 0 b 128 -15 143 -8 136 -15 b 111 0 118 -15 111 -8 l 111 993 b 128 1008 111 1001 118 1008 b 143 993 136 1008 143 1001 l 143 0 l 143 0 z m 135 1300 b 114 1303 128 1308 119 1308 b 111 1279 104 1294 104 1285 l 251 1132 b 275 1129 257 1122 268 1122 b 275 1153 281 1136 281 1146 z "},"Í":{"ha":454,"x_min":0,"x_max":0,"o":"m 342 0 l 342 0 l 342 993 b 326 1008 342 1001 335 1008 b 310 993 317 1008 310 1001 l 310 0 b 326 -15 310 -8 317 -15 b 342 0 335 -15 342 -8 z m 143 0 l 143 0 l 143 993 b 128 1008 143 1001 136 1008 b 111 993 118 1008 111 1001 l 111 0 b 128 -15 111 -8 118 -15 b 143 0 136 -15 143 -8 z m 181 1139 b 181 1115 175 1132 175 1122 b 204 1118 188 1108 199 1108 l 344 1265 b 342 1289 351 1271 351 1281 b 321 1286 336 1294 328 1294 z "},"Î":{"ha":454,"x_min":0,"x_max":0,"o":"m 342 0 b 326 -15 342 -8 335 -15 b 310 0 317 -15 310 -8 l 310 993 b 326 1008 310 1001 317 1008 b 342 993 335 1008 342 1001 l 342 0 l 342 0 z m 143 0 b 128 -15 143 -8 136 -15 b 111 0 118 -15 111 -8 l 111 993 b 128 1008 111 1001 118 1008 b 143 993 136 1008 143 1001 l 143 0 l 143 0 z m 367 1118 b 388 1118 372 1111 385 1111 b 388 1142 393 1126 393 1135 l 233 1269 b 211 1269 228 1272 217 1272 l 58 1142 b 56 1118 53 1135 50 1126 b 79 1118 63 1111 74 1111 l 222 1233 z "},"Ï":{"ha":454,"x_min":0,"x_max":0,"o":"m -33 1188 b 69 1083 -33 1128 13 1085 b 172 1188 128 1083 172 1128 l 172 1188 b 69 1290 172 1244 128 1290 b -33 1188 13 1290 -33 1244 z m -3 1188 b 69 1258 -3 1228 28 1258 b 144 1188 113 1258 144 1228 l 144 1188 b 69 1114 144 1144 113 1114 l 69 1114 b -3 1188 28 1114 -3 1144 z m 279 1188 b 382 1083 279 1128 325 1083 b 485 1188 440 1085 485 1128 b 382 1290 485 1244 440 1289 b 279 1188 325 1289 279 1244 z m 308 1188 b 382 1258 308 1228 340 1258 b 456 1188 421 1258 456 1228 b 382 1114 456 1144 421 1114 l 382 1114 b 308 1188 340 1114 308 1144 z m 342 0 l 342 0 l 342 993 b 326 1008 342 1001 335 1008 b 310 993 317 1008 310 1001 l 310 0 b 326 -15 310 -8 317 -15 b 342 0 335 -15 342 -8 z m 143 0 l 143 0 l 143 993 b 128 1008 143 1001 136 1008 b 111 993 118 1008 111 1001 l 111 0 b 128 -15 111 -8 118 -15 b 143 0 136 -15 143 -8 z "},"Ð":{"ha":1011,"x_min":0,"x_max":0,"o":"m 126 1008 b 111 993 118 1008 111 1001 l 111 503 l 21 503 b 4 488 13 503 4 496 b 21 471 4 479 13 471 l 111 471 l 111 0 b 126 -15 111 -8 118 -15 b 143 0 136 -15 143 -8 l 143 976 l 424 976 b 865 693 654 976 801 853 b 865 300 915 569 915 424 b 424 17 801 140 654 17 l 324 17 b 307 0 314 17 307 10 b 324 -15 307 -8 314 -15 l 424 -15 b 894 288 669 -15 826 118 b 894 706 949 419 949 574 b 424 1008 826 876 669 1008 z m 308 503 b 342 471 307 485 313 471 l 488 471 b 503 488 496 471 503 479 b 488 503 503 496 496 503 l 342 503 l 342 779 l 424 779 b 675 613 554 779 638 706 b 675 381 703 540 703 454 b 424 215 638 288 554 215 l 325 215 b 308 199 317 215 308 207 b 325 182 308 190 317 182 l 424 182 b 704 369 569 182 664 264 b 704 625 736 450 736 543 b 424 811 664 729 569 811 l 325 811 b 308 794 317 811 308 804 z "},"Ñ":{"ha":1065,"x_min":0,"x_max":0,"o":"m 953 0 l 953 0 l 953 992 b 919 992 953 1014 919 1014 l 919 0 b 953 0 919 -21 953 -21 z m 143 0 l 143 0 l 143 992 b 111 992 143 1014 111 1014 l 111 0 b 143 0 111 -21 143 -21 z m 294 983 l 294 983 l 725 365 b 756 375 733 351 756 360 l 756 992 b 722 992 756 1014 722 1014 l 722 426 l 319 1001 b 294 983 308 1019 282 1000 z m 771 10 l 771 10 l 340 628 b 310 618 329 640 310 633 l 310 0 b 343 0 310 -21 343 -21 l 343 567 l 743 -10 b 771 10 757 -26 782 -8 z m 378 1133 b 431 1183 392 1156 407 1181 b 510 1151 461 1189 492 1171 b 621 1117 543 1129 578 1111 b 699 1183 656 1124 682 1151 b 692 1204 704 1189 701 1200 b 669 1197 685 1210 672 1207 b 615 1147 656 1176 640 1156 b 532 1181 585 1142 556 1163 b 425 1215 504 1204 467 1221 b 346 1151 388 1210 367 1181 b 356 1126 342 1142 346 1133 b 378 1133 361 1124 375 1126 z "},"è":{"ha":732,"x_min":0,"x_max":0,"o":"m 549 414 b 565 397 558 414 565 407 b 549 382 565 389 558 382 l 342 382 l 342 215 l 642 215 b 657 199 650 215 657 208 b 642 183 657 190 650 183 l 326 183 b 310 199 317 183 310 190 l 310 397 b 326 414 310 407 317 414 l 549 414 l 549 414 z m 642 810 b 657 794 650 810 657 803 b 642 778 657 785 650 778 l 342 778 l 342 613 l 549 613 b 565 596 558 613 565 604 b 549 579 565 588 558 579 l 326 579 b 310 596 317 579 310 588 l 310 794 b 326 810 310 803 317 810 l 642 810 l 642 810 z m 642 17 b 657 0 650 17 657 10 b 642 -15 657 -8 650 -15 l 128 -15 b 111 0 118 -15 111 -8 l 111 993 b 128 1008 111 1001 118 1008 l 642 1008 b 657 993 650 1008 657 1001 b 642 976 657 983 650 976 l 143 976 l 143 17 l 642 17 l 642 17 z m 286 1254 b 265 1257 279 1263 271 1263 b 263 1233 256 1249 256 1239 l 403 1086 b 426 1083 408 1076 419 1076 b 426 1107 432 1090 432 1100 z "},"é":{"ha":732,"x_min":0,"x_max":0,"o":"m 549 414 l 549 414 l 326 414 b 310 397 317 414 310 407 l 310 199 b 326 183 310 190 317 183 l 642 183 b 657 199 650 183 657 190 b 642 215 657 208 650 215 l 342 215 l 342 382 l 549 382 b 565 397 558 382 565 389 b 549 414 565 407 558 414 z m 642 810 l 642 810 l 326 810 b 310 794 317 810 310 803 l 310 596 b 326 579 310 588 317 579 l 549 579 b 565 596 558 579 565 588 b 549 613 565 604 558 613 l 342 613 l 342 778 l 642 778 b 657 794 650 778 657 785 b 642 810 657 803 650 810 z m 642 17 l 642 17 l 143 17 l 143 976 l 642 976 b 657 993 650 976 657 983 b 642 1008 657 1001 650 1008 l 128 1008 b 111 993 118 1008 111 1001 l 111 0 b 128 -15 111 -8 118 -15 l 642 -15 b 657 0 650 -15 657 -8 b 642 17 657 10 650 17 z m 371 1133 b 371 1110 365 1126 365 1117 b 394 1113 378 1103 389 1103 l 535 1260 b 532 1283 542 1265 542 1275 b 511 1281 526 1289 518 1289 z "},"ê":{"ha":732,"x_min":0,"x_max":0,"o":"m 549 414 b 565 397 558 414 565 407 b 549 382 565 389 558 382 l 342 382 l 342 215 l 642 215 b 657 199 650 215 657 208 b 642 183 657 190 650 183 l 326 183 b 310 199 317 183 310 190 l 310 397 b 326 414 310 407 317 414 l 549 414 l 549 414 z m 642 810 b 657 794 650 810 657 803 b 642 778 657 785 650 778 l 342 778 l 342 613 l 549 613 b 565 596 558 613 565 604 b 549 579 565 588 558 579 l 326 579 b 310 596 317 579 310 588 l 310 794 b 326 810 310 803 317 810 l 642 810 l 642 810 z m 642 17 b 657 0 650 17 657 10 b 642 -15 657 -8 650 -15 l 128 -15 b 111 0 118 -15 111 -8 l 111 993 b 128 1008 111 1001 118 1008 l 642 1008 b 657 993 650 1008 657 1001 b 642 976 657 983 650 976 l 143 976 l 143 17 l 642 17 l 642 17 z m 540 1117 b 561 1117 546 1110 558 1110 b 561 1140 567 1125 567 1133 l 407 1268 b 385 1268 401 1271 390 1271 l 232 1140 b 229 1117 226 1133 224 1125 b 253 1117 236 1110 247 1110 l 396 1232 z "},"ë":{"ha":732,"x_min":0,"x_max":0,"o":"m 549 414 l 549 414 l 326 414 b 310 397 317 414 310 407 l 310 199 b 326 183 310 190 317 183 l 642 183 b 657 199 650 183 657 190 b 642 215 657 208 650 215 l 342 215 l 342 382 l 549 382 b 565 397 558 382 565 389 b 549 414 565 407 558 414 z m 642 810 l 642 810 l 326 810 b 310 794 317 810 310 803 l 310 596 b 326 579 310 588 317 579 l 549 579 b 565 596 558 579 565 588 b 549 613 565 604 558 613 l 342 613 l 342 778 l 642 778 b 657 794 650 778 657 785 b 642 810 657 803 650 810 z m 642 17 l 642 17 l 143 17 l 143 976 l 642 976 b 657 993 650 976 657 983 b 642 1008 657 1001 650 1008 l 128 1008 b 111 993 118 1008 111 1001 l 111 0 b 128 -15 111 -8 118 -15 l 642 -15 b 657 0 650 -15 657 -8 b 642 17 657 10 650 17 z m 113 1192 b 215 1088 113 1132 158 1089 b 318 1192 274 1088 318 1132 l 318 1192 b 215 1294 318 1249 274 1294 b 113 1192 158 1294 113 1249 z m 143 1192 b 215 1263 143 1232 174 1263 b 290 1192 258 1263 290 1232 l 290 1192 b 215 1118 290 1149 258 1118 l 215 1118 b 143 1192 174 1118 143 1149 z m 442 1192 b 544 1088 442 1132 488 1088 b 647 1192 603 1089 647 1132 b 544 1294 647 1249 603 1293 b 442 1192 488 1293 442 1249 z m 471 1192 b 544 1263 471 1232 503 1263 b 618 1192 583 1263 618 1232 b 544 1118 618 1149 583 1118 l 544 1118 b 471 1192 503 1118 471 1149 z "},"ì":{"ha":454,"x_min":0,"x_max":0,"o":"m 342 0 b 326 -15 342 -8 335 -15 b 310 0 317 -15 310 -8 l 310 993 b 326 1008 310 1001 317 1008 b 342 993 335 1008 342 1001 l 342 0 l 342 0 z m 143 0 b 128 -15 143 -8 136 -15 b 111 0 118 -15 111 -8 l 111 993 b 128 1008 111 1001 118 1008 b 143 993 136 1008 143 1001 l 143 0 l 143 0 z m 135 1300 b 114 1303 128 1308 119 1308 b 111 1279 104 1294 104 1285 l 251 1132 b 275 1129 257 1122 268 1122 b 275 1153 281 1136 281 1146 z "},"í":{"ha":454,"x_min":0,"x_max":0,"o":"m 342 0 l 342 0 l 342 993 b 326 1008 342 1001 335 1008 b 310 993 317 1008 310 1001 l 310 0 b 326 -15 310 -8 317 -15 b 342 0 335 -15 342 -8 z m 143 0 l 143 0 l 143 993 b 128 1008 143 1001 136 1008 b 111 993 118 1008 111 1001 l 111 0 b 128 -15 111 -8 118 -15 b 143 0 136 -15 143 -8 z m 181 1139 b 181 1115 175 1132 175 1122 b 204 1118 188 1108 199 1108 l 344 1265 b 342 1289 351 1271 351 1281 b 321 1286 336 1294 328 1294 z "},"î":{"ha":454,"x_min":0,"x_max":0,"o":"m 342 0 b 326 -15 342 -8 335 -15 b 310 0 317 -15 310 -8 l 310 993 b 326 1008 310 1001 317 1008 b 342 993 335 1008 342 1001 l 342 0 l 342 0 z m 143 0 b 128 -15 143 -8 136 -15 b 111 0 118 -15 111 -8 l 111 993 b 128 1008 111 1001 118 1008 b 143 993 136 1008 143 1001 l 143 0 l 143 0 z m 367 1118 b 388 1118 372 1111 385 1111 b 388 1142 393 1126 393 1135 l 233 1269 b 211 1269 228 1272 217 1272 l 58 1142 b 56 1118 53 1135 50 1126 b 79 1118 63 1111 74 1111 l 222 1233 z "},"ï":{"ha":454,"x_min":0,"x_max":0,"o":"m -33 1188 b 69 1083 -33 1128 13 1085 b 172 1188 128 1083 172 1128 l 172 1188 b 69 1290 172 1244 128 1290 b -33 1188 13 1290 -33 1244 z m -3 1188 b 69 1258 -3 1228 28 1258 b 144 1188 113 1258 144 1228 l 144 1188 b 69 1114 144 1144 113 1114 l 69 1114 b -3 1188 28 1114 -3 1144 z m 279 1188 b 382 1083 279 1128 325 1083 b 485 1188 440 1085 485 1128 b 382 1290 485 1244 440 1289 b 279 1188 325 1289 279 1244 z m 308 1188 b 382 1258 308 1228 340 1258 b 456 1188 421 1258 456 1228 b 382 1114 456 1144 421 1114 l 382 1114 b 308 1188 340 1114 308 1144 z m 342 0 l 342 0 l 342 993 b 326 1008 342 1001 335 1008 b 310 993 317 1008 310 1001 l 310 0 b 326 -15 310 -8 317 -15 b 342 0 335 -15 342 -8 z m 143 0 l 143 0 l 143 993 b 128 1008 143 1001 136 1008 b 111 993 118 1008 111 1001 l 111 0 b 128 -15 111 -8 118 -15 b 143 0 136 -15 143 -8 z "},"ð":{"ha":1011,"x_min":0,"x_max":0,"o":"m 126 1008 b 111 993 118 1008 111 1001 l 111 503 l 21 503 b 4 488 13 503 4 496 b 21 471 4 479 13 471 l 111 471 l 111 0 b 126 -15 111 -8 118 -15 b 143 0 136 -15 143 -8 l 143 976 l 424 976 b 865 693 654 976 801 853 b 865 300 915 569 915 424 b 424 17 801 140 654 17 l 324 17 b 307 0 314 17 307 10 b 324 -15 307 -8 314 -15 l 424 -15 b 894 288 669 -15 826 118 b 894 706 949 419 949 574 b 424 1008 826 876 669 1008 z m 308 503 b 342 471 307 485 313 471 l 488 471 b 503 488 496 471 503 479 b 488 503 503 496 496 503 l 342 503 l 342 779 l 424 779 b 675 613 554 779 638 706 b 675 381 703 540 703 454 b 424 215 638 288 554 215 l 325 215 b 308 199 317 215 308 207 b 325 182 308 190 317 182 l 424 182 b 704 369 569 182 664 264 b 704 625 736 450 736 543 b 424 811 664 729 569 811 l 325 811 b 308 794 317 811 308 804 z "},"ñ":{"ha":1065,"x_min":0,"x_max":0,"o":"m 953 0 l 953 0 l 953 992 b 919 992 953 1014 919 1014 l 919 0 b 953 0 919 -21 953 -21 z m 143 0 l 143 0 l 143 992 b 111 992 143 1014 111 1014 l 111 0 b 143 0 111 -21 143 -21 z m 294 983 l 294 983 l 725 365 b 756 375 733 351 756 360 l 756 992 b 722 992 756 1014 722 1014 l 722 426 l 319 1001 b 294 983 308 1019 282 1000 z m 771 10 l 771 10 l 340 628 b 310 618 329 640 310 633 l 310 0 b 343 0 310 -21 343 -21 l 343 567 l 743 -10 b 771 10 757 -26 782 -8 z m 378 1133 b 431 1183 392 1156 407 1181 b 510 1151 461 1189 492 1171 b 621 1117 543 1129 578 1111 b 699 1183 656 1124 682 1151 b 692 1204 704 1189 701 1200 b 669 1197 685 1210 672 1207 b 615 1147 656 1176 640 1156 b 532 1181 585 1142 556 1163 b 425 1215 504 1204 467 1221 b 346 1151 388 1210 367 1181 b 356 1126 342 1142 346 1133 b 378 1133 361 1124 375 1126 z "},"Ò":{"ha":1197,"x_min":0,"x_max":0,"o":"m 1121 658 b 1110 638 1124 650 1118 639 b 1089 649 1100 635 1092 639 b 607 996 1022 857 826 996 b 108 499 313 996 108 788 b 607 0 108 210 313 0 b 1089 349 826 0 1022 139 b 1110 360 1092 358 1100 363 b 1121 339 1118 357 1124 347 b 607 -33 1050 115 839 -33 b 76 499 293 -33 76 192 b 607 1029 76 804 293 1029 b 1121 658 839 1029 1050 879 l 1121 658 z m 329 336 b 335 358 325 343 328 354 b 358 353 343 363 354 360 b 607 206 408 263 503 206 b 894 499 768 206 894 339 b 607 792 894 658 768 792 b 358 644 503 792 408 735 b 335 638 354 636 343 633 b 329 661 328 643 325 653 b 607 824 386 761 492 824 b 928 499 786 824 928 675 b 607 172 928 321 786 172 b 329 336 492 172 386 236 l 329 336 z m 496 1300 b 475 1303 489 1308 481 1308 b 472 1279 465 1294 465 1285 l 613 1132 b 636 1129 618 1122 629 1122 b 636 1153 642 1136 642 1146 z "},"Ó":{"ha":1197,"x_min":0,"x_max":0,"o":"m 1121 658 l 1121 658 b 607 1029 1050 879 839 1029 b 76 499 293 1029 76 804 b 607 -33 76 192 293 -33 b 1121 339 839 -33 1050 115 b 1110 360 1124 347 1118 357 b 1089 349 1100 363 1092 358 b 607 0 1022 139 826 0 b 108 499 313 0 108 210 b 607 996 108 788 313 996 b 1089 649 826 996 1022 857 b 1110 638 1092 639 1100 635 b 1121 658 1118 639 1124 650 z m 329 336 l 329 336 b 607 172 386 236 492 172 b 928 499 786 172 928 321 b 607 824 928 675 786 824 b 329 661 492 824 386 761 b 335 638 325 653 328 643 b 358 644 343 633 354 636 b 607 792 408 735 503 792 b 894 499 768 792 894 658 b 607 206 894 339 768 206 b 358 353 503 206 408 263 b 335 358 354 360 343 363 b 329 336 328 354 325 343 z m 579 1139 b 579 1115 574 1132 574 1122 b 603 1118 586 1108 597 1108 l 743 1265 b 740 1289 750 1271 750 1281 b 719 1286 735 1294 726 1294 z "},"Ô":{"ha":1197,"x_min":0,"x_max":0,"o":"m 1121 658 b 1110 638 1124 650 1118 639 b 1089 649 1100 635 1092 639 b 607 996 1022 857 826 996 b 108 499 313 996 108 788 b 607 0 108 210 313 0 b 1089 349 826 0 1022 139 b 1110 360 1092 358 1100 363 b 1121 339 1118 357 1124 347 b 607 -33 1050 115 839 -33 b 76 499 293 -33 76 192 b 607 1029 76 804 293 1029 b 1121 658 839 1029 1050 879 l 1121 658 z m 329 336 b 335 358 325 343 328 354 b 358 353 343 363 354 360 b 607 206 408 263 503 206 b 894 499 768 206 894 339 b 607 792 894 658 768 792 b 358 644 503 792 408 735 b 335 638 354 636 343 633 b 329 661 328 643 325 653 b 607 824 386 761 492 824 b 928 499 786 824 928 675 b 607 172 928 321 786 172 b 329 336 492 172 386 236 l 329 336 z m 758 1132 b 779 1132 764 1125 776 1125 b 779 1156 785 1140 785 1149 l 625 1283 b 603 1283 619 1286 608 1286 l 450 1156 b 447 1132 444 1149 442 1140 b 471 1132 454 1125 465 1125 l 614 1247 z "},"Õ":{"ha":1197,"x_min":0,"x_max":0,"o":"m 1121 658 l 1121 658 b 607 1029 1050 879 839 1029 b 76 499 293 1029 76 804 b 607 -33 76 192 293 -33 b 1121 339 839 -33 1050 115 b 1110 360 1124 347 1118 357 b 1089 349 1100 363 1092 358 b 607 0 1022 139 826 0 b 108 499 313 0 108 210 b 607 996 108 788 313 996 b 1089 649 826 996 1022 857 b 1110 638 1092 639 1100 635 b 1121 658 1118 639 1124 650 z m 329 336 l 329 336 b 607 172 386 236 492 172 b 928 499 786 172 928 321 b 607 824 928 675 786 824 b 329 661 492 824 386 761 b 335 638 325 653 328 643 b 358 644 343 633 354 636 b 607 792 408 735 503 792 b 894 499 768 792 894 658 b 607 206 894 339 768 206 b 358 353 503 206 408 263 b 335 358 354 360 343 363 b 329 336 328 354 325 343 z m 467 1163 b 521 1208 481 1182 496 1206 b 603 1178 553 1214 585 1196 b 718 1146 638 1158 674 1140 b 799 1208 754 1153 781 1178 b 792 1228 804 1214 801 1224 b 768 1221 785 1233 772 1231 b 711 1175 754 1201 739 1182 b 625 1206 681 1169 650 1188 b 515 1239 597 1228 557 1243 b 433 1178 475 1233 454 1206 b 443 1156 428 1169 433 1163 b 467 1163 449 1153 463 1156 z "},"Ö":{"ha":1197,"x_min":0,"x_max":0,"o":"m 1121 658 l 1121 658 b 607 1029 1050 879 839 1029 b 76 499 293 1029 76 804 b 607 -33 76 192 293 -33 b 1121 339 839 -33 1050 115 b 1110 360 1124 347 1118 357 b 1089 349 1100 363 1092 358 b 607 0 1022 139 826 0 b 108 499 313 0 108 210 b 607 996 108 788 313 996 b 1089 649 826 996 1022 857 b 1110 638 1092 639 1100 635 b 1121 658 1118 639 1124 650 z m 329 336 l 329 336 b 607 172 386 236 492 172 b 928 499 786 172 928 321 b 607 824 928 675 786 824 b 329 661 492 824 386 761 b 335 638 325 653 328 643 b 358 644 343 633 354 636 b 607 792 408 735 503 792 b 894 499 768 792 894 658 b 607 206 894 339 768 206 b 358 353 503 206 408 263 b 335 358 354 360 343 363 b 329 336 328 354 325 343 z m 326 1199 b 433 1099 326 1142 374 1100 b 539 1199 493 1099 539 1142 l 539 1199 b 433 1297 539 1253 493 1297 b 326 1199 374 1297 326 1253 z m 358 1199 b 433 1267 358 1238 390 1267 b 510 1199 476 1267 510 1238 l 510 1199 b 433 1128 510 1157 476 1128 l 433 1128 b 358 1199 390 1128 358 1157 z m 665 1199 b 771 1099 665 1142 713 1099 b 876 1199 832 1100 876 1142 b 771 1297 876 1253 832 1296 b 665 1199 713 1296 665 1253 z m 696 1199 b 771 1267 696 1238 729 1267 b 847 1199 811 1267 847 1238 b 771 1128 847 1157 811 1128 l 771 1128 b 696 1199 729 1128 696 1157 z "},"ò":{"ha":1197,"x_min":0,"x_max":0,"o":"m 1121 658 b 1110 638 1124 650 1118 639 b 1089 649 1100 635 1092 639 b 607 996 1022 857 826 996 b 108 499 313 996 108 788 b 607 0 108 210 313 0 b 1089 349 826 0 1022 139 b 1110 360 1092 358 1100 363 b 1121 339 1118 357 1124 347 b 607 -33 1050 115 839 -33 b 76 499 293 -33 76 192 b 607 1029 76 804 293 1029 b 1121 658 839 1029 1050 879 l 1121 658 z m 329 336 b 335 358 325 343 328 354 b 358 353 343 363 354 360 b 607 206 408 263 503 206 b 894 499 768 206 894 339 b 607 792 894 658 768 792 b 358 644 503 792 408 735 b 335 638 354 636 343 633 b 329 661 328 643 325 653 b 607 824 386 761 492 824 b 928 499 786 824 928 675 b 607 172 928 321 786 172 b 329 336 492 172 386 236 l 329 336 z m 496 1300 b 475 1303 489 1308 481 1308 b 472 1279 465 1294 465 1285 l 613 1132 b 636 1129 618 1122 629 1122 b 636 1153 642 1136 642 1146 z "},"ó":{"ha":1197,"x_min":0,"x_max":0,"o":"m 1121 658 l 1121 658 b 607 1029 1050 879 839 1029 b 76 499 293 1029 76 804 b 607 -33 76 192 293 -33 b 1121 339 839 -33 1050 115 b 1110 360 1124 347 1118 357 b 1089 349 1100 363 1092 358 b 607 0 1022 139 826 0 b 108 499 313 0 108 210 b 607 996 108 788 313 996 b 1089 649 826 996 1022 857 b 1110 638 1092 639 1100 635 b 1121 658 1118 639 1124 650 z m 329 336 l 329 336 b 607 172 386 236 492 172 b 928 499 786 172 928 321 b 607 824 928 675 786 824 b 329 661 492 824 386 761 b 335 638 325 653 328 643 b 358 644 343 633 354 636 b 607 792 408 735 503 792 b 894 499 768 792 894 658 b 607 206 894 339 768 206 b 358 353 503 206 408 263 b 335 358 354 360 343 363 b 329 336 328 354 325 343 z m 579 1139 b 579 1115 574 1132 574 1122 b 603 1118 586 1108 597 1108 l 743 1265 b 740 1289 750 1271 750 1281 b 719 1286 735 1294 726 1294 z "},"ô":{"ha":1197,"x_min":0,"x_max":0,"o":"m 1121 658 b 1110 638 1124 650 1118 639 b 1089 649 1100 635 1092 639 b 607 996 1022 857 826 996 b 108 499 313 996 108 788 b 607 0 108 210 313 0 b 1089 349 826 0 1022 139 b 1110 360 1092 358 1100 363 b 1121 339 1118 357 1124 347 b 607 -33 1050 115 839 -33 b 76 499 293 -33 76 192 b 607 1029 76 804 293 1029 b 1121 658 839 1029 1050 879 l 1121 658 z m 329 336 b 335 358 325 343 328 354 b 358 353 343 363 354 360 b 607 206 408 263 503 206 b 894 499 768 206 894 339 b 607 792 894 658 768 792 b 358 644 503 792 408 735 b 335 638 354 636 343 633 b 329 661 328 643 325 653 b 607 824 386 761 492 824 b 928 499 786 824 928 675 b 607 172 928 321 786 172 b 329 336 492 172 386 236 l 329 336 z m 758 1132 b 779 1132 764 1125 776 1125 b 779 1156 785 1140 785 1149 l 625 1283 b 603 1283 619 1286 608 1286 l 450 1156 b 447 1132 444 1149 442 1140 b 471 1132 454 1125 465 1125 l 614 1247 z "},"õ":{"ha":1197,"x_min":0,"x_max":0,"o":"m 1121 658 l 1121 658 b 607 1029 1050 879 839 1029 b 76 499 293 1029 76 804 b 607 -33 76 192 293 -33 b 1121 339 839 -33 1050 115 b 1110 360 1124 347 1118 357 b 1089 349 1100 363 1092 358 b 607 0 1022 139 826 0 b 108 499 313 0 108 210 b 607 996 108 788 313 996 b 1089 649 826 996 1022 857 b 1110 638 1092 639 1100 635 b 1121 658 1118 639 1124 650 z m 329 336 l 329 336 b 607 172 386 236 492 172 b 928 499 786 172 928 321 b 607 824 928 675 786 824 b 329 661 492 824 386 761 b 335 638 325 653 328 643 b 358 644 343 633 354 636 b 607 792 408 735 503 792 b 894 499 768 792 894 658 b 607 206 894 339 768 206 b 358 353 503 206 408 263 b 335 358 354 360 343 363 b 329 336 328 354 325 343 z m 467 1163 b 521 1208 481 1182 496 1206 b 603 1178 553 1214 585 1196 b 718 1146 638 1158 674 1140 b 799 1208 754 1153 781 1178 b 792 1228 804 1214 801 1224 b 768 1221 785 1233 772 1231 b 711 1175 754 1201 739 1182 b 625 1206 681 1169 650 1188 b 515 1239 597 1228 557 1243 b 433 1178 475 1233 454 1206 b 443 1156 428 1169 433 1163 b 467 1163 449 1153 463 1156 z "},"ö":{"ha":1197,"x_min":0,"x_max":0,"o":"m 1121 658 l 1121 658 b 607 1029 1050 879 839 1029 b 76 499 293 1029 76 804 b 607 -33 76 192 293 -33 b 1121 339 839 -33 1050 115 b 1110 360 1124 347 1118 357 b 1089 349 1100 363 1092 358 b 607 0 1022 139 826 0 b 108 499 313 0 108 210 b 607 996 108 788 313 996 b 1089 649 826 996 1022 857 b 1110 638 1092 639 1100 635 b 1121 658 1118 639 1124 650 z m 329 336 l 329 336 b 607 172 386 236 492 172 b 928 499 786 172 928 321 b 607 824 928 675 786 824 b 329 661 492 824 386 761 b 335 638 325 653 328 643 b 358 644 343 633 354 636 b 607 792 408 735 503 792 b 894 499 768 792 894 658 b 607 206 894 339 768 206 b 358 353 503 206 408 263 b 335 358 354 360 343 363 b 329 336 328 354 325 343 z m 326 1199 b 433 1099 326 1142 374 1100 b 539 1199 493 1099 539 1142 l 539 1199 b 433 1297 539 1253 493 1297 b 326 1199 374 1297 326 1253 z m 358 1199 b 433 1267 358 1238 390 1267 b 510 1199 476 1267 510 1238 l 510 1199 b 433 1128 510 1157 476 1128 l 433 1128 b 358 1199 390 1128 358 1157 z m 665 1199 b 771 1099 665 1142 713 1099 b 876 1199 832 1100 876 1142 b 771 1297 876 1253 832 1296 b 665 1199 713 1296 665 1253 z m 696 1199 b 771 1267 696 1238 729 1267 b 847 1199 811 1267 847 1238 b 771 1128 847 1157 811 1128 l 771 1128 b 696 1199 729 1128 696 1157 z "},"Ù":{"ha":972,"x_min":0,"x_max":0,"o":"m 307 363 l 307 992 b 322 1007 307 1000 314 1007 b 338 992 331 1007 338 1000 l 338 363 b 485 213 338 275 399 213 b 632 363 572 213 632 275 l 632 992 b 647 1007 632 1000 639 1007 b 664 992 657 1007 664 1000 l 664 363 b 485 182 664 257 589 182 b 307 363 381 182 307 257 l 307 363 z m 832 992 b 849 1007 832 1000 839 1007 b 864 992 857 1007 864 1000 l 864 351 b 485 -22 864 125 697 -22 b 106 351 267 -22 106 132 l 106 992 b 122 1007 106 1000 113 1007 b 138 992 131 1007 138 1000 l 138 351 b 485 10 138 149 283 10 b 832 351 678 10 832 143 l 832 992 l 832 992 z m 383 1257 b 363 1260 376 1265 368 1265 b 360 1236 353 1251 353 1242 l 500 1089 b 524 1086 506 1079 517 1079 b 524 1110 529 1093 529 1103 z "},"Ú":{"ha":972,"x_min":0,"x_max":0,"o":"m 307 363 l 307 363 b 485 182 307 257 381 182 b 664 363 589 182 664 257 l 664 992 b 647 1007 664 1000 657 1007 b 632 992 639 1007 632 1000 l 632 363 b 485 213 632 275 572 213 b 338 363 399 213 338 275 l 338 992 b 322 1007 338 1000 331 1007 b 307 992 314 1007 307 1000 z m 832 992 l 832 992 l 832 351 b 485 10 832 143 678 10 b 138 351 283 10 138 149 l 138 992 b 122 1007 138 1000 131 1007 b 106 992 113 1007 106 1000 l 106 351 b 485 -22 106 132 267 -22 b 864 351 697 -22 864 125 l 864 992 b 849 1007 864 1000 857 1007 b 832 992 839 1007 832 1000 z m 425 1139 b 425 1115 419 1132 419 1122 b 449 1118 432 1108 443 1108 l 589 1265 b 586 1289 596 1271 596 1281 b 565 1286 581 1294 572 1294 z "},"Û":{"ha":972,"x_min":0,"x_max":0,"o":"m 307 363 l 307 992 b 322 1007 307 1000 314 1007 b 338 992 331 1007 338 1000 l 338 363 b 485 213 338 275 399 213 b 632 363 572 213 632 275 l 632 992 b 647 1007 632 1000 639 1007 b 664 992 657 1007 664 1000 l 664 363 b 485 182 664 257 589 182 b 307 363 381 182 307 257 l 307 363 z m 832 992 b 849 1007 832 1000 839 1007 b 864 992 857 1007 864 1000 l 864 351 b 485 -22 864 125 697 -22 b 106 351 267 -22 106 132 l 106 992 b 122 1007 106 1000 113 1007 b 138 992 131 1007 138 1000 l 138 351 b 485 10 138 149 283 10 b 832 351 678 10 832 143 l 832 992 l 832 992 z m 618 1104 b 639 1104 624 1097 636 1097 b 639 1128 644 1113 644 1121 l 485 1256 b 463 1256 479 1258 468 1258 l 310 1128 b 307 1104 304 1121 301 1113 b 331 1104 314 1097 325 1097 l 474 1219 z "},"Ü":{"ha":972,"x_min":0,"x_max":0,"o":"m 307 363 l 307 363 b 485 182 307 257 381 182 b 664 363 589 182 664 257 l 664 992 b 647 1007 664 1000 657 1007 b 632 992 639 1007 632 1000 l 632 363 b 485 213 632 275 572 213 b 338 363 399 213 338 275 l 338 992 b 322 1007 338 1000 331 1007 b 307 992 314 1007 307 1000 z m 832 992 l 832 992 l 832 351 b 485 10 832 143 678 10 b 138 351 283 10 138 149 l 138 992 b 122 1007 138 1000 131 1007 b 106 992 113 1007 106 1000 l 106 351 b 485 -22 106 132 267 -22 b 864 351 697 -22 864 125 l 864 992 b 849 1007 864 1000 857 1007 b 832 992 839 1007 832 1000 z m 215 1193 b 318 1089 215 1133 261 1090 b 421 1193 376 1089 421 1133 l 421 1193 b 318 1296 421 1250 376 1296 b 215 1193 261 1296 215 1250 z m 246 1193 b 318 1264 246 1233 276 1264 b 393 1193 361 1264 393 1233 l 393 1193 b 318 1119 393 1150 361 1119 l 318 1119 b 246 1193 276 1119 246 1150 z m 544 1193 b 647 1089 544 1133 590 1089 b 750 1193 706 1090 750 1133 b 647 1296 750 1250 706 1294 b 544 1193 590 1294 544 1250 z m 574 1193 b 647 1264 574 1233 606 1264 b 721 1193 686 1264 721 1233 b 647 1119 721 1150 686 1119 l 647 1119 b 574 1193 606 1119 574 1150 z "},"Ý":{"ha":935,"x_min":0,"x_max":0,"o":"m 254 985 l 254 985 l 456 640 b 485 640 463 629 478 629 l 688 985 b 682 1007 692 993 689 1003 b 658 1001 674 1011 665 1008 l 469 681 l 281 1001 b 260 1007 276 1008 267 1011 b 254 985 251 1003 249 993 z m 901 1001 l 901 1001 l 556 453 b 554 443 554 449 554 446 l 554 3 b 569 -15 554 -8 561 -15 b 585 3 578 -15 585 -8 l 585 439 l 929 985 b 924 1007 933 992 932 1001 b 901 1001 917 1011 907 1008 z m 388 3 l 388 3 l 388 444 b 385 453 388 447 386 450 l 39 1001 b 17 1007 33 1008 24 1011 b 13 985 10 1001 7 992 l 354 439 l 354 3 b 371 -15 354 -8 361 -15 b 388 3 381 -15 388 -8 z m 407 1139 b 407 1115 401 1132 401 1122 b 431 1118 414 1108 425 1108 l 571 1265 b 568 1289 578 1271 578 1281 b 547 1286 563 1294 554 1294 z "},"ÿ":{"ha":935,"x_min":0,"x_max":0,"o":"m 254 985 l 254 985 l 456 640 b 485 640 463 629 478 629 l 688 985 b 682 1007 692 993 689 1003 b 658 1001 674 1011 665 1008 l 469 681 l 281 1001 b 260 1007 276 1008 267 1011 b 254 985 251 1003 249 993 z m 901 1001 l 901 1001 l 556 453 b 554 443 554 449 554 446 l 554 3 b 569 -15 554 -8 561 -15 b 585 3 578 -15 585 -8 l 585 439 l 929 985 b 924 1007 933 992 932 1001 b 901 1001 917 1011 907 1008 z m 388 3 l 388 3 l 388 444 b 385 453 388 447 386 450 l 39 1001 b 17 1007 33 1008 24 1011 b 13 985 10 1001 7 992 l 354 439 l 354 3 b 371 -15 354 -8 361 -15 b 388 3 381 -15 388 -8 z m 217 1168 b 314 1068 217 1111 260 1069 b 413 1168 371 1068 413 1111 l 413 1168 b 314 1265 413 1222 371 1265 b 217 1168 260 1265 217 1222 z m 246 1168 b 314 1235 246 1206 275 1235 b 386 1168 356 1235 386 1206 l 386 1168 b 314 1097 386 1126 356 1097 l 314 1097 b 246 1168 275 1097 246 1126 z m 531 1168 b 628 1068 531 1111 574 1068 b 726 1168 683 1069 726 1111 b 628 1265 726 1222 683 1264 b 531 1168 574 1264 531 1222 z m 558 1168 b 628 1235 558 1206 589 1235 b 699 1168 665 1235 699 1206 b 628 1097 699 1126 665 1097 l 628 1097 b 558 1168 589 1097 558 1126 z "},"ù":{"ha":972,"x_min":0,"x_max":0,"o":"m 307 363 l 307 992 b 322 1007 307 1000 314 1007 b 338 992 331 1007 338 1000 l 338 363 b 485 213 338 275 399 213 b 632 363 572 213 632 275 l 632 992 b 647 1007 632 1000 639 1007 b 664 992 657 1007 664 1000 l 664 363 b 485 182 664 257 589 182 b 307 363 381 182 307 257 l 307 363 z m 832 992 b 849 1007 832 1000 839 1007 b 864 992 857 1007 864 1000 l 864 351 b 485 -22 864 125 697 -22 b 106 351 267 -22 106 132 l 106 992 b 122 1007 106 1000 113 1007 b 138 992 131 1007 138 1000 l 138 351 b 485 10 138 149 283 10 b 832 351 678 10 832 143 l 832 992 l 832 992 z m 383 1257 b 363 1260 376 1265 368 1265 b 360 1236 353 1251 353 1242 l 500 1089 b 524 1086 506 1079 517 1079 b 524 1110 529 1093 529 1103 z "},"ú":{"ha":972,"x_min":0,"x_max":0,"o":"m 307 363 l 307 363 b 485 182 307 257 381 182 b 664 363 589 182 664 257 l 664 992 b 647 1007 664 1000 657 1007 b 632 992 639 1007 632 1000 l 632 363 b 485 213 632 275 572 213 b 338 363 399 213 338 275 l 338 992 b 322 1007 338 1000 331 1007 b 307 992 314 1007 307 1000 z m 832 992 l 832 992 l 832 351 b 485 10 832 143 678 10 b 138 351 283 10 138 149 l 138 992 b 122 1007 138 1000 131 1007 b 106 992 113 1007 106 1000 l 106 351 b 485 -22 106 132 267 -22 b 864 351 697 -22 864 125 l 864 992 b 849 1007 864 1000 857 1007 b 832 992 839 1007 832 1000 z m 425 1139 b 425 1115 419 1132 419 1122 b 449 1118 432 1108 443 1108 l 589 1265 b 586 1289 596 1271 596 1281 b 565 1286 581 1294 572 1294 z "},"û":{"ha":972,"x_min":0,"x_max":0,"o":"m 307 363 l 307 992 b 322 1007 307 1000 314 1007 b 338 992 331 1007 338 1000 l 338 363 b 485 213 338 275 399 213 b 632 363 572 213 632 275 l 632 992 b 647 1007 632 1000 639 1007 b 664 992 657 1007 664 1000 l 664 363 b 485 182 664 257 589 182 b 307 363 381 182 307 257 l 307 363 z m 832 992 b 849 1007 832 1000 839 1007 b 864 992 857 1007 864 1000 l 864 351 b 485 -22 864 125 697 -22 b 106 351 267 -22 106 132 l 106 992 b 122 1007 106 1000 113 1007 b 138 992 131 1007 138 1000 l 138 351 b 485 10 138 149 283 10 b 832 351 678 10 832 143 l 832 992 l 832 992 z m 618 1104 b 639 1104 624 1097 636 1097 b 639 1128 644 1113 644 1121 l 485 1256 b 463 1256 479 1258 468 1258 l 310 1128 b 307 1104 304 1121 301 1113 b 331 1104 314 1097 325 1097 l 474 1219 z "},"ü":{"ha":972,"x_min":0,"x_max":0,"o":"m 307 363 l 307 363 b 485 182 307 257 381 182 b 664 363 589 182 664 257 l 664 992 b 647 1007 664 1000 657 1007 b 632 992 639 1007 632 1000 l 632 363 b 485 213 632 275 572 213 b 338 363 399 213 338 275 l 338 992 b 322 1007 338 1000 331 1007 b 307 992 314 1007 307 1000 z m 832 992 l 832 992 l 832 351 b 485 10 832 143 678 10 b 138 351 283 10 138 149 l 138 992 b 122 1007 138 1000 131 1007 b 106 992 113 1007 106 1000 l 106 351 b 485 -22 106 132 267 -22 b 864 351 697 -22 864 125 l 864 992 b 849 1007 864 1000 857 1007 b 832 992 839 1007 832 1000 z m 215 1193 b 318 1089 215 1133 261 1090 b 421 1193 376 1089 421 1133 l 421 1193 b 318 1296 421 1250 376 1296 b 215 1193 261 1296 215 1250 z m 246 1193 b 318 1264 246 1233 276 1264 b 393 1193 361 1264 393 1233 l 393 1193 b 318 1119 393 1150 361 1119 l 318 1119 b 246 1193 276 1119 246 1150 z m 544 1193 b 647 1089 544 1133 590 1089 b 750 1193 706 1090 750 1133 b 647 1296 750 1250 706 1294 b 544 1193 590 1294 544 1250 z m 574 1193 b 647 1264 574 1233 606 1264 b 721 1193 686 1264 721 1233 b 647 1119 721 1150 686 1119 l 647 1119 b 574 1193 606 1119 574 1150 z "},"ý":{"ha":935,"x_min":0,"x_max":0,"o":"m 254 985 l 254 985 l 456 640 b 485 640 463 629 478 629 l 688 985 b 682 1007 692 993 689 1003 b 658 1001 674 1011 665 1008 l 469 681 l 281 1001 b 260 1007 276 1008 267 1011 b 254 985 251 1003 249 993 z m 901 1001 l 901 1001 l 556 453 b 554 443 554 449 554 446 l 554 3 b 569 -15 554 -8 561 -15 b 585 3 578 -15 585 -8 l 585 439 l 929 985 b 924 1007 933 992 932 1001 b 901 1001 917 1011 907 1008 z m 388 3 l 388 3 l 388 444 b 385 453 388 447 386 450 l 39 1001 b 17 1007 33 1008 24 1011 b 13 985 10 1001 7 992 l 354 439 l 354 3 b 371 -15 354 -8 361 -15 b 388 3 381 -15 388 -8 z m 407 1139 b 407 1115 401 1132 401 1122 b 431 1118 414 1108 425 1108 l 571 1265 b 568 1289 578 1271 578 1281 b 547 1286 563 1294 554 1294 z "},"Ā":{"ha":899,"x_min":0,"x_max":0,"o":"m 374 290 l 374 290 l 519 290 b 536 306 529 290 536 297 b 535 313 536 308 536 310 l 463 490 b 440 500 458 500 450 504 b 432 479 433 497 429 488 l 497 321 l 374 321 b 357 306 365 321 357 314 b 374 290 357 297 365 290 z m 269 10 l 269 10 l 303 90 l 590 90 l 624 10 b 644 0 628 0 636 -3 b 654 21 653 3 657 14 l 617 111 b 601 121 615 117 610 121 l 293 121 b 278 111 286 121 279 118 l 240 21 b 250 0 236 14 240 3 b 269 10 258 -3 267 0 z m 54 10 l 54 10 l 447 972 l 840 10 b 861 0 843 0 853 -3 b 869 21 869 3 872 14 l 463 1019 b 432 1019 457 1033 438 1035 l 25 21 b 33 0 21 14 25 3 b 54 10 42 -3 51 0 z m 576 1135 b 592 1151 585 1135 592 1143 b 576 1167 592 1160 585 1167 l 318 1167 b 301 1151 310 1167 301 1160 b 318 1135 301 1143 310 1135 z "},"Ă":{"ha":899,"x_min":0,"x_max":0,"o":"m 374 290 l 374 290 l 519 290 b 536 306 529 290 536 297 b 535 313 536 308 536 310 l 463 490 b 440 500 458 500 450 504 b 432 479 433 497 429 488 l 497 321 l 374 321 b 357 306 365 321 357 314 b 374 290 357 297 365 290 z m 269 10 l 269 10 l 303 90 l 590 90 l 624 10 b 644 0 628 0 636 -3 b 654 21 653 3 657 14 l 617 111 b 601 121 615 117 610 121 l 293 121 b 278 111 286 121 279 118 l 240 21 b 250 0 236 14 240 3 b 269 10 258 -3 267 0 z m 54 10 l 54 10 l 447 972 l 840 10 b 861 0 843 0 853 -3 b 869 21 869 3 872 14 l 463 1019 b 432 1019 457 1033 438 1035 l 25 21 b 33 0 21 14 25 3 b 54 10 42 -3 51 0 z m 319 1250 b 290 1250 319 1268 290 1265 b 444 1100 290 1168 351 1100 b 599 1250 535 1100 597 1169 b 568 1250 597 1268 568 1267 b 444 1132 567 1186 519 1132 b 319 1250 368 1132 321 1185 z "},"Ą":{"ha":899,"x_min":0,"x_max":0,"o":"m 447 972 l 836 18 b 736 -101 806 -12 765 -54 b 693 -257 704 -151 683 -208 b 874 -326 707 -350 801 -350 b 882 -306 882 -324 885 -315 b 863 -297 879 -297 869 -294 b 726 -254 815 -312 739 -321 b 764 -119 717 -211 736 -162 b 868 6 793 -71 839 -28 b 864 36 871 8 874 24 l 463 1019 b 432 1019 457 1033 438 1035 l 25 21 b 33 0 21 14 25 3 b 54 10 42 -3 51 0 z m 303 90 l 590 90 l 624 10 b 644 0 628 0 636 -3 b 654 21 653 3 657 14 l 617 111 b 601 121 615 117 610 121 l 293 121 b 278 111 286 121 279 118 l 240 21 b 250 0 236 14 240 3 b 269 10 258 -3 267 0 z m 519 290 b 536 306 529 290 536 297 b 535 313 536 308 536 310 l 463 490 b 440 500 458 500 450 504 b 432 479 433 497 429 488 l 497 321 l 374 321 b 357 306 365 321 357 314 b 374 290 357 297 365 290 z "},"ā":{"ha":899,"x_min":0,"x_max":0,"o":"m 374 290 l 374 290 l 519 290 b 536 306 529 290 536 297 b 535 313 536 308 536 310 l 463 490 b 440 500 458 500 450 504 b 432 479 433 497 429 488 l 497 321 l 374 321 b 357 306 365 321 357 314 b 374 290 357 297 365 290 z m 269 10 l 269 10 l 303 90 l 590 90 l 624 10 b 644 0 628 0 636 -3 b 654 21 653 3 657 14 l 617 111 b 601 121 615 117 610 121 l 293 121 b 278 111 286 121 279 118 l 240 21 b 250 0 236 14 240 3 b 269 10 258 -3 267 0 z m 54 10 l 54 10 l 447 972 l 840 10 b 861 0 843 0 853 -3 b 869 21 869 3 872 14 l 463 1019 b 432 1019 457 1033 438 1035 l 25 21 b 33 0 21 14 25 3 b 54 10 42 -3 51 0 z m 576 1135 b 592 1151 585 1135 592 1143 b 576 1167 592 1160 585 1167 l 318 1167 b 301 1151 310 1167 301 1160 b 318 1135 301 1143 310 1135 z "},"ă":{"ha":899,"x_min":0,"x_max":0,"o":"m 374 290 l 374 290 l 519 290 b 536 306 529 290 536 297 b 535 313 536 308 536 310 l 463 490 b 440 500 458 500 450 504 b 432 479 433 497 429 488 l 497 321 l 374 321 b 357 306 365 321 357 314 b 374 290 357 297 365 290 z m 269 10 l 269 10 l 303 90 l 590 90 l 624 10 b 644 0 628 0 636 -3 b 654 21 653 3 657 14 l 617 111 b 601 121 615 117 610 121 l 293 121 b 278 111 286 121 279 118 l 240 21 b 250 0 236 14 240 3 b 269 10 258 -3 267 0 z m 54 10 l 54 10 l 447 972 l 840 10 b 861 0 843 0 853 -3 b 869 21 869 3 872 14 l 463 1019 b 432 1019 457 1033 438 1035 l 25 21 b 33 0 21 14 25 3 b 54 10 42 -3 51 0 z m 319 1250 b 290 1250 319 1268 290 1265 b 444 1100 290 1168 351 1100 b 599 1250 535 1100 597 1169 b 568 1250 597 1268 568 1267 b 444 1132 567 1186 519 1132 b 319 1250 368 1132 321 1185 z "},"ą":{"ha":899,"x_min":0,"x_max":0,"o":"m 447 972 l 836 18 b 736 -101 806 -12 765 -54 b 693 -257 704 -151 683 -208 b 874 -326 707 -350 801 -350 b 882 -306 882 -324 885 -315 b 863 -297 879 -297 869 -294 b 726 -254 815 -312 739 -321 b 764 -119 717 -211 736 -162 b 868 6 793 -71 839 -28 b 864 36 871 8 874 24 l 463 1019 b 432 1019 457 1033 438 1035 l 25 21 b 33 0 21 14 25 3 b 54 10 42 -3 51 0 z m 303 90 l 590 90 l 624 10 b 644 0 628 0 636 -3 b 654 21 653 3 657 14 l 617 111 b 601 121 615 117 610 121 l 293 121 b 278 111 286 121 279 118 l 240 21 b 250 0 236 14 240 3 b 269 10 258 -3 267 0 z m 519 290 b 536 306 529 290 536 297 b 535 313 536 308 536 310 l 463 490 b 440 500 458 500 450 504 b 432 479 433 497 429 488 l 497 321 l 374 321 b 357 306 365 321 357 314 b 374 290 357 297 365 290 z "},"Ć":{"ha":842,"x_min":0,"x_max":0,"o":"m 783 978 l 783 978 b 582 1018 719 1004 651 1018 b 107 713 335 1018 176 885 b 107 292 53 581 53 425 b 582 -12 176 121 335 -12 b 783 26 651 -12 719 0 b 792 49 792 31 796 39 b 771 57 789 56 778 60 b 582 19 711 31 647 19 b 135 304 349 19 200 143 b 135 701 85 429 85 575 b 582 986 200 860 349 986 b 771 949 647 986 711 974 b 792 957 778 946 789 949 b 783 978 794 965 792 975 z m 744 260 l 744 260 b 582 218 690 229 644 218 b 328 385 449 218 365 290 b 328 619 299 458 299 546 b 582 786 365 713 449 786 b 744 746 644 786 690 775 b 765 751 753 742 761 744 b 760 774 769 760 767 769 b 582 818 700 807 650 818 b 299 631 435 818 339 736 b 299 374 267 550 267 456 b 582 188 339 268 435 188 b 760 232 650 188 700 199 b 765 253 767 236 769 246 b 744 260 761 261 753 264 z m 496 1139 b 496 1115 490 1132 490 1122 b 519 1118 503 1108 514 1108 l 660 1265 b 657 1289 667 1271 667 1281 b 636 1286 651 1294 643 1294 z "},"Ĉ":{"ha":842,"x_min":0,"x_max":0,"o":"m 783 978 b 792 957 792 975 794 965 b 771 949 789 949 778 946 b 582 986 711 974 647 986 b 135 701 349 986 200 860 b 135 304 85 575 85 429 b 582 19 200 143 349 19 b 771 57 647 19 711 31 b 792 49 778 60 789 56 b 783 26 796 39 792 31 b 582 -12 719 0 651 -12 b 107 292 335 -12 176 121 b 107 713 53 425 53 581 b 582 1018 176 885 335 1018 b 783 978 651 1018 719 1004 l 783 978 z m 744 260 b 765 253 753 264 761 261 b 760 232 769 246 767 236 b 582 188 700 199 650 188 b 299 374 435 188 339 268 b 299 631 267 456 267 550 b 582 818 339 736 435 818 b 760 774 650 818 700 807 b 765 751 767 769 769 760 b 744 746 761 744 753 742 b 582 786 690 775 644 786 b 328 619 449 786 365 713 b 328 385 299 546 299 458 b 582 218 365 290 449 218 b 744 260 644 218 690 229 l 744 260 z m 668 1103 b 689 1103 674 1096 686 1096 b 689 1126 694 1111 694 1119 l 535 1254 b 513 1254 529 1257 518 1257 l 360 1126 b 357 1103 354 1119 351 1111 b 381 1103 364 1096 375 1096 l 524 1218 z "},"Ċ":{"ha":842,"x_min":0,"x_max":0,"o":"m 783 978 l 783 978 b 582 1018 719 1004 651 1018 b 107 713 335 1018 176 885 b 107 292 53 581 53 425 b 582 -12 176 121 335 -12 b 783 26 651 -12 719 0 b 792 49 792 31 796 39 b 771 57 789 56 778 60 b 582 19 711 31 647 19 b 135 304 349 19 200 143 b 135 701 85 429 85 575 b 582 986 200 860 349 986 b 771 949 647 986 711 974 b 792 957 778 946 789 949 b 783 978 794 965 792 975 z m 744 260 l 744 260 b 582 218 690 229 644 218 b 328 385 449 218 365 290 b 328 619 299 458 299 546 b 582 786 365 713 449 786 b 744 746 644 786 690 775 b 765 751 753 742 761 744 b 760 774 769 760 767 769 b 582 818 700 807 650 818 b 299 631 435 818 339 736 b 299 374 267 550 267 456 b 582 188 339 268 435 188 b 760 232 650 188 700 199 b 765 253 767 236 769 246 b 744 260 761 261 753 264 z m 529 1349 b 413 1274 468 1349 431 1315 b 529 1096 378 1188 433 1096 b 646 1274 624 1096 681 1189 b 529 1349 628 1315 590 1349 z m 617 1261 b 529 1128 643 1196 603 1128 b 440 1261 456 1128 415 1194 b 529 1317 453 1292 483 1317 b 617 1261 574 1317 606 1293 z "},"Č":{"ha":842,"x_min":0,"x_max":0,"o":"m 783 978 l 783 978 b 582 1018 719 1004 651 1018 b 107 713 335 1018 176 885 b 107 292 53 581 53 425 b 582 -12 176 121 335 -12 b 783 26 651 -12 719 0 b 792 49 792 31 796 39 b 771 57 789 56 778 60 b 582 19 711 31 647 19 b 135 304 349 19 200 143 b 135 701 85 429 85 575 b 582 986 200 860 349 986 b 771 949 647 986 711 974 b 792 957 778 946 789 949 b 783 978 794 965 792 975 z m 744 260 l 744 260 b 582 218 690 229 644 218 b 328 385 449 218 365 290 b 328 619 299 458 299 546 b 582 786 365 713 449 786 b 744 746 644 786 690 775 b 765 751 753 742 761 744 b 760 774 769 760 767 769 b 582 818 700 807 650 818 b 299 631 435 818 339 736 b 299 374 267 550 267 456 b 582 188 339 268 435 188 b 760 232 650 188 700 199 b 765 253 767 236 769 246 b 744 260 761 261 753 264 z m 531 1149 l 388 1264 b 365 1263 382 1271 372 1269 b 367 1240 360 1254 361 1247 l 519 1113 b 542 1113 528 1107 533 1106 l 696 1240 b 697 1261 701 1247 703 1253 b 675 1264 694 1268 681 1271 z "},"ć":{"ha":842,"x_min":0,"x_max":0,"o":"m 783 978 l 783 978 b 582 1018 719 1004 651 1018 b 107 713 335 1018 176 885 b 107 292 53 581 53 425 b 582 -12 176 121 335 -12 b 783 26 651 -12 719 0 b 792 49 792 31 796 39 b 771 57 789 56 778 60 b 582 19 711 31 647 19 b 135 304 349 19 200 143 b 135 701 85 429 85 575 b 582 986 200 860 349 986 b 771 949 647 986 711 974 b 792 957 778 946 789 949 b 783 978 794 965 792 975 z m 744 260 l 744 260 b 582 218 690 229 644 218 b 328 385 449 218 365 290 b 328 619 299 458 299 546 b 582 786 365 713 449 786 b 744 746 644 786 690 775 b 765 751 753 742 761 744 b 760 774 769 760 767 769 b 582 818 700 807 650 818 b 299 631 435 818 339 736 b 299 374 267 550 267 456 b 582 188 339 268 435 188 b 760 232 650 188 700 199 b 765 253 767 236 769 246 b 744 260 761 261 753 264 z m 496 1139 b 496 1115 490 1132 490 1122 b 519 1118 503 1108 514 1108 l 660 1265 b 657 1289 667 1271 667 1281 b 636 1286 651 1294 643 1294 z "},"ĉ":{"ha":842,"x_min":0,"x_max":0,"o":"m 783 978 b 792 957 792 975 794 965 b 771 949 789 949 778 946 b 582 986 711 974 647 986 b 135 701 349 986 200 860 b 135 304 85 575 85 429 b 582 19 200 143 349 19 b 771 57 647 19 711 31 b 792 49 778 60 789 56 b 783 26 796 39 792 31 b 582 -12 719 0 651 -12 b 107 292 335 -12 176 121 b 107 713 53 425 53 581 b 582 1018 176 885 335 1018 b 783 978 651 1018 719 1004 l 783 978 z m 744 260 b 765 253 753 264 761 261 b 760 232 769 246 767 236 b 582 188 700 199 650 188 b 299 374 435 188 339 268 b 299 631 267 456 267 550 b 582 818 339 736 435 818 b 760 774 650 818 700 807 b 765 751 767 769 769 760 b 744 746 761 744 753 742 b 582 786 690 775 644 786 b 328 619 449 786 365 713 b 328 385 299 546 299 458 b 582 218 365 290 449 218 b 744 260 644 218 690 229 l 744 260 z m 668 1103 b 689 1103 674 1096 686 1096 b 689 1126 694 1111 694 1119 l 535 1254 b 513 1254 529 1257 518 1257 l 360 1126 b 357 1103 354 1119 351 1111 b 381 1103 364 1096 375 1096 l 524 1218 z "},"ċ":{"ha":842,"x_min":0,"x_max":0,"o":"m 783 978 l 783 978 b 582 1018 719 1004 651 1018 b 107 713 335 1018 176 885 b 107 292 53 581 53 425 b 582 -12 176 121 335 -12 b 783 26 651 -12 719 0 b 792 49 792 31 796 39 b 771 57 789 56 778 60 b 582 19 711 31 647 19 b 135 304 349 19 200 143 b 135 701 85 429 85 575 b 582 986 200 860 349 986 b 771 949 647 986 711 974 b 792 957 778 946 789 949 b 783 978 794 965 792 975 z m 744 260 l 744 260 b 582 218 690 229 644 218 b 328 385 449 218 365 290 b 328 619 299 458 299 546 b 582 786 365 713 449 786 b 744 746 644 786 690 775 b 765 751 753 742 761 744 b 760 774 769 760 767 769 b 582 818 700 807 650 818 b 299 631 435 818 339 736 b 299 374 267 550 267 456 b 582 188 339 268 435 188 b 760 232 650 188 700 199 b 765 253 767 236 769 246 b 744 260 761 261 753 264 z m 529 1349 b 413 1274 468 1349 431 1315 b 529 1096 378 1188 433 1096 b 646 1274 624 1096 681 1189 b 529 1349 628 1315 590 1349 z m 617 1261 b 529 1128 643 1196 603 1128 b 440 1261 456 1128 415 1194 b 529 1317 453 1292 483 1317 b 617 1261 574 1317 606 1293 z "},"č":{"ha":842,"x_min":0,"x_max":0,"o":"m 783 978 l 783 978 b 582 1018 719 1004 651 1018 b 107 713 335 1018 176 885 b 107 292 53 581 53 425 b 582 -12 176 121 335 -12 b 783 26 651 -12 719 0 b 792 49 792 31 796 39 b 771 57 789 56 778 60 b 582 19 711 31 647 19 b 135 304 349 19 200 143 b 135 701 85 429 85 575 b 582 986 200 860 349 986 b 771 949 647 986 711 974 b 792 957 778 946 789 949 b 783 978 794 965 792 975 z m 744 260 l 744 260 b 582 218 690 229 644 218 b 328 385 449 218 365 290 b 328 619 299 458 299 546 b 582 786 365 713 449 786 b 744 746 644 786 690 775 b 765 751 753 742 761 744 b 760 774 769 760 767 769 b 582 818 700 807 650 818 b 299 631 435 818 339 736 b 299 374 267 550 267 456 b 582 188 339 268 435 188 b 760 232 650 188 700 199 b 765 253 767 236 769 246 b 744 260 761 261 753 264 z m 531 1149 l 388 1264 b 365 1263 382 1271 372 1269 b 367 1240 360 1254 361 1247 l 519 1113 b 542 1113 528 1107 533 1106 l 696 1240 b 697 1261 701 1247 703 1253 b 675 1264 694 1268 681 1271 z "},"Ď":{"ha":1011,"x_min":0,"x_max":0,"o":"m 424 1008 l 424 1008 l 126 1008 b 111 993 118 1008 111 1001 l 111 0 b 126 -15 111 -8 118 -15 b 143 0 136 -15 143 -8 l 143 976 l 424 976 b 865 693 654 976 801 853 b 865 300 915 569 915 424 b 424 17 801 140 654 17 l 324 17 b 307 0 314 17 307 10 b 324 -15 307 -8 314 -15 l 424 -15 b 894 288 669 -15 826 118 b 894 706 949 419 949 574 b 424 1008 826 876 669 1008 z m 342 397 l 342 397 l 342 779 l 424 779 b 675 613 554 779 638 706 b 675 381 703 540 703 454 b 424 215 638 288 554 215 l 325 215 b 308 199 317 215 308 207 b 325 182 308 190 317 182 l 424 182 b 704 369 569 182 664 264 b 704 625 736 450 736 543 b 424 811 664 729 569 811 l 325 811 b 308 794 317 811 308 804 l 308 397 b 325 382 308 389 317 382 b 342 397 333 382 342 389 z m 429 1132 l 286 1247 b 264 1246 281 1254 271 1253 b 265 1224 258 1238 260 1231 l 418 1096 b 440 1096 426 1090 432 1089 l 594 1224 b 596 1244 600 1231 601 1236 b 574 1247 593 1251 579 1254 z "},"Đ":{"ha":1011,"x_min":0,"x_max":0,"o":"m 126 1008 b 111 993 118 1008 111 1001 l 111 503 l 21 503 b 4 488 13 503 4 496 b 21 471 4 479 13 471 l 111 471 l 111 0 b 126 -15 111 -8 118 -15 b 143 0 136 -15 143 -8 l 143 976 l 424 976 b 865 693 654 976 801 853 b 865 300 915 569 915 424 b 424 17 801 140 654 17 l 324 17 b 307 0 314 17 307 10 b 324 -15 307 -8 314 -15 l 424 -15 b 894 288 669 -15 826 118 b 894 706 949 419 949 574 b 424 1008 826 876 669 1008 z m 308 503 b 342 471 307 485 313 471 l 488 471 b 503 488 496 471 503 479 b 488 503 503 496 496 503 l 342 503 l 342 779 l 424 779 b 675 613 554 779 638 706 b 675 381 703 540 703 454 b 424 215 638 288 554 215 l 325 215 b 308 199 317 215 308 207 b 325 182 308 190 317 182 l 424 182 b 704 369 569 182 664 264 b 704 625 736 450 736 543 b 424 811 664 729 569 811 l 325 811 b 308 794 317 811 308 804 z "},"đ":{"ha":1011,"x_min":0,"x_max":0,"o":"m 126 1008 b 111 993 118 1008 111 1001 l 111 503 l 21 503 b 4 488 13 503 4 496 b 21 471 4 479 13 471 l 111 471 l 111 0 b 126 -15 111 -8 118 -15 b 143 0 136 -15 143 -8 l 143 976 l 424 976 b 865 693 654 976 801 853 b 865 300 915 569 915 424 b 424 17 801 140 654 17 l 324 17 b 307 0 314 17 307 10 b 324 -15 307 -8 314 -15 l 424 -15 b 894 288 669 -15 826 118 b 894 706 949 419 949 574 b 424 1008 826 876 669 1008 z m 308 503 b 342 471 307 485 313 471 l 488 471 b 503 488 496 471 503 479 b 488 503 503 496 496 503 l 342 503 l 342 779 l 424 779 b 675 613 554 779 638 706 b 675 381 703 540 703 454 b 424 215 638 288 554 215 l 325 215 b 308 199 317 215 308 207 b 325 182 308 190 317 182 l 424 182 b 704 369 569 182 664 264 b 704 625 736 450 736 543 b 424 811 664 729 569 811 l 325 811 b 308 794 317 811 308 804 z "},"ď":{"ha":1011,"x_min":0,"x_max":0,"o":"m 424 1008 l 424 1008 l 126 1008 b 111 993 118 1008 111 1001 l 111 0 b 126 -15 111 -8 118 -15 b 143 0 136 -15 143 -8 l 143 976 l 424 976 b 865 693 654 976 801 853 b 865 300 915 569 915 424 b 424 17 801 140 654 17 l 324 17 b 307 0 314 17 307 10 b 324 -15 307 -8 314 -15 l 424 -15 b 894 288 669 -15 826 118 b 894 706 949 419 949 574 b 424 1008 826 876 669 1008 z m 342 397 l 342 397 l 342 779 l 424 779 b 675 613 554 779 638 706 b 675 381 703 540 703 454 b 424 215 638 288 554 215 l 325 215 b 308 199 317 215 308 207 b 325 182 308 190 317 182 l 424 182 b 704 369 569 182 664 264 b 704 625 736 450 736 543 b 424 811 664 729 569 811 l 325 811 b 308 794 317 811 308 804 l 308 397 b 325 382 308 389 317 382 b 342 397 333 382 342 389 z m 429 1132 l 286 1247 b 264 1246 281 1254 271 1253 b 265 1224 258 1238 260 1231 l 418 1096 b 440 1096 426 1090 432 1089 l 594 1224 b 596 1244 600 1231 601 1236 b 574 1247 593 1251 579 1254 z "},"Ē":{"ha":732,"x_min":0,"x_max":0,"o":"m 549 414 l 549 414 l 326 414 b 310 397 317 414 310 407 l 310 199 b 326 183 310 190 317 183 l 642 183 b 657 199 650 183 657 190 b 642 215 657 208 650 215 l 342 215 l 342 382 l 549 382 b 565 397 558 382 565 389 b 549 414 565 407 558 414 z m 642 810 l 642 810 l 326 810 b 310 794 317 810 310 803 l 310 596 b 326 579 310 588 317 579 l 549 579 b 565 596 558 579 565 588 b 549 613 565 604 558 613 l 342 613 l 342 778 l 642 778 b 657 794 650 778 657 785 b 642 810 657 803 650 810 z m 642 17 l 642 17 l 143 17 l 143 976 l 642 976 b 657 993 650 976 657 983 b 642 1008 657 1001 650 1008 l 128 1008 b 111 993 118 1008 111 1001 l 111 0 b 128 -15 111 -8 118 -15 l 642 -15 b 657 0 650 -15 657 -8 b 642 17 657 10 650 17 z m 526 1121 b 542 1138 535 1121 542 1129 b 526 1153 542 1146 535 1153 l 268 1153 b 251 1138 260 1153 251 1146 b 268 1121 251 1129 260 1121 z "},"Ĕ":{"ha":732,"x_min":0,"x_max":0,"o":"m 549 414 l 549 414 l 326 414 b 310 397 317 414 310 407 l 310 199 b 326 183 310 190 317 183 l 642 183 b 657 199 650 183 657 190 b 642 215 657 208 650 215 l 342 215 l 342 382 l 549 382 b 565 397 558 382 565 389 b 549 414 565 407 558 414 z m 642 810 l 642 810 l 326 810 b 310 794 317 810 310 803 l 310 596 b 326 579 310 588 317 579 l 549 579 b 565 596 558 579 565 588 b 549 613 565 604 558 613 l 342 613 l 342 778 l 642 778 b 657 794 650 778 657 785 b 642 810 657 803 650 810 z m 642 17 l 642 17 l 143 17 l 143 976 l 642 976 b 657 993 650 976 657 983 b 642 1008 657 1001 650 1008 l 128 1008 b 111 993 118 1008 111 1001 l 111 0 b 128 -15 111 -8 118 -15 l 642 -15 b 657 0 650 -15 657 -8 b 642 17 657 10 650 17 z m 265 1229 b 236 1229 265 1247 236 1244 b 390 1079 236 1147 297 1079 b 544 1229 481 1079 543 1149 b 514 1229 543 1247 514 1246 b 390 1111 513 1165 465 1111 b 265 1229 314 1111 267 1164 z "},"Ė":{"ha":732,"x_min":0,"x_max":0,"o":"m 549 414 l 549 414 l 326 414 b 310 397 317 414 310 407 l 310 199 b 326 183 310 190 317 183 l 642 183 b 657 199 650 183 657 190 b 642 215 657 208 650 215 l 342 215 l 342 382 l 549 382 b 565 397 558 382 565 389 b 549 414 565 407 558 414 z m 642 810 l 642 810 l 326 810 b 310 794 317 810 310 803 l 310 596 b 326 579 310 588 317 579 l 549 579 b 565 596 558 579 565 588 b 549 613 565 604 558 613 l 342 613 l 342 778 l 642 778 b 657 794 650 778 657 785 b 642 810 657 803 650 810 z m 642 17 l 642 17 l 143 17 l 143 976 l 642 976 b 657 993 650 976 657 983 b 642 1008 657 1001 650 1008 l 128 1008 b 111 993 118 1008 111 1001 l 111 0 b 128 -15 111 -8 118 -15 l 642 -15 b 657 0 650 -15 657 -8 b 642 17 657 10 650 17 z m 388 1301 b 275 1233 329 1301 293 1272 b 388 1072 243 1156 296 1072 b 500 1233 478 1072 533 1157 b 388 1301 482 1272 446 1301 z m 471 1222 b 388 1101 497 1164 458 1101 b 303 1222 317 1101 278 1163 b 388 1272 314 1250 343 1272 b 471 1222 431 1272 461 1251 z "},"Ę":{"ha":732,"x_min":0,"x_max":0,"o":"m 143 17 l 143 976 l 642 976 b 657 993 650 976 657 983 b 642 1008 657 1001 650 1008 l 128 1008 b 111 993 118 1008 111 1001 l 111 0 b 128 -15 111 -8 118 -15 l 600 -15 b 511 -114 571 -43 538 -76 b 465 -261 478 -161 456 -215 b 657 -328 481 -350 581 -350 b 667 -308 667 -325 669 -317 b 646 -300 664 -300 653 -297 b 501 -258 596 -314 514 -322 b 540 -131 490 -218 511 -172 b 649 -14 571 -86 618 -46 b 657 0 654 -11 657 -6 b 642 17 657 10 650 17 z m 326 810 b 310 794 317 810 310 803 l 310 596 b 326 579 310 588 317 579 l 549 579 b 565 596 558 579 565 588 b 549 613 565 604 558 613 l 342 613 l 342 778 l 642 778 b 657 794 650 778 657 785 b 642 810 657 803 650 810 z m 326 414 b 310 397 317 414 310 407 l 310 199 b 326 183 310 190 317 183 l 642 183 b 657 199 650 183 657 190 b 642 215 657 208 650 215 l 342 215 l 342 382 l 549 382 b 565 397 558 382 565 389 b 549 414 565 407 558 414 z "},"Ě":{"ha":732,"x_min":0,"x_max":0,"o":"m 549 414 l 549 414 l 326 414 b 310 397 317 414 310 407 l 310 199 b 326 183 310 190 317 183 l 642 183 b 657 199 650 183 657 190 b 642 215 657 208 650 215 l 342 215 l 342 382 l 549 382 b 565 397 558 382 565 389 b 549 414 565 407 558 414 z m 642 810 l 642 810 l 326 810 b 310 794 317 810 310 803 l 310 596 b 326 579 310 588 317 579 l 549 579 b 565 596 558 579 565 588 b 549 613 565 604 558 613 l 342 613 l 342 778 l 642 778 b 657 794 650 778 657 785 b 642 810 657 803 650 810 z m 642 17 l 642 17 l 143 17 l 143 976 l 642 976 b 657 993 650 976 657 983 b 642 1008 657 1001 650 1008 l 128 1008 b 111 993 118 1008 111 1001 l 111 0 b 128 -15 111 -8 118 -15 l 642 -15 b 657 0 650 -15 657 -8 b 642 17 657 10 650 17 z m 396 1126 l 253 1242 b 231 1240 247 1249 238 1247 b 232 1218 225 1232 226 1225 l 385 1090 b 407 1090 393 1085 399 1083 l 561 1218 b 563 1239 567 1225 568 1231 b 540 1242 560 1246 546 1249 z "},"ē":{"ha":732,"x_min":0,"x_max":0,"o":"m 549 414 l 549 414 l 326 414 b 310 397 317 414 310 407 l 310 199 b 326 183 310 190 317 183 l 642 183 b 657 199 650 183 657 190 b 642 215 657 208 650 215 l 342 215 l 342 382 l 549 382 b 565 397 558 382 565 389 b 549 414 565 407 558 414 z m 642 810 l 642 810 l 326 810 b 310 794 317 810 310 803 l 310 596 b 326 579 310 588 317 579 l 549 579 b 565 596 558 579 565 588 b 549 613 565 604 558 613 l 342 613 l 342 778 l 642 778 b 657 794 650 778 657 785 b 642 810 657 803 650 810 z m 642 17 l 642 17 l 143 17 l 143 976 l 642 976 b 657 993 650 976 657 983 b 642 1008 657 1001 650 1008 l 128 1008 b 111 993 118 1008 111 1001 l 111 0 b 128 -15 111 -8 118 -15 l 642 -15 b 657 0 650 -15 657 -8 b 642 17 657 10 650 17 z m 526 1121 b 542 1138 535 1121 542 1129 b 526 1153 542 1146 535 1153 l 268 1153 b 251 1138 260 1153 251 1146 b 268 1121 251 1129 260 1121 z "},"ĕ":{"ha":732,"x_min":0,"x_max":0,"o":"m 549 414 l 549 414 l 326 414 b 310 397 317 414 310 407 l 310 199 b 326 183 310 190 317 183 l 642 183 b 657 199 650 183 657 190 b 642 215 657 208 650 215 l 342 215 l 342 382 l 549 382 b 565 397 558 382 565 389 b 549 414 565 407 558 414 z m 642 810 l 642 810 l 326 810 b 310 794 317 810 310 803 l 310 596 b 326 579 310 588 317 579 l 549 579 b 565 596 558 579 565 588 b 549 613 565 604 558 613 l 342 613 l 342 778 l 642 778 b 657 794 650 778 657 785 b 642 810 657 803 650 810 z m 642 17 l 642 17 l 143 17 l 143 976 l 642 976 b 657 993 650 976 657 983 b 642 1008 657 1001 650 1008 l 128 1008 b 111 993 118 1008 111 1001 l 111 0 b 128 -15 111 -8 118 -15 l 642 -15 b 657 0 650 -15 657 -8 b 642 17 657 10 650 17 z m 265 1229 b 236 1229 265 1247 236 1244 b 390 1079 236 1147 297 1079 b 544 1229 481 1079 543 1149 b 514 1229 543 1247 514 1246 b 390 1111 513 1165 465 1111 b 265 1229 314 1111 267 1164 z "},"ė":{"ha":732,"x_min":0,"x_max":0,"o":"m 549 414 l 549 414 l 326 414 b 310 397 317 414 310 407 l 310 199 b 326 183 310 190 317 183 l 642 183 b 657 199 650 183 657 190 b 642 215 657 208 650 215 l 342 215 l 342 382 l 549 382 b 565 397 558 382 565 389 b 549 414 565 407 558 414 z m 642 810 l 642 810 l 326 810 b 310 794 317 810 310 803 l 310 596 b 326 579 310 588 317 579 l 549 579 b 565 596 558 579 565 588 b 549 613 565 604 558 613 l 342 613 l 342 778 l 642 778 b 657 794 650 778 657 785 b 642 810 657 803 650 810 z m 642 17 l 642 17 l 143 17 l 143 976 l 642 976 b 657 993 650 976 657 983 b 642 1008 657 1001 650 1008 l 128 1008 b 111 993 118 1008 111 1001 l 111 0 b 128 -15 111 -8 118 -15 l 642 -15 b 657 0 650 -15 657 -8 b 642 17 657 10 650 17 z m 388 1301 b 275 1233 329 1301 293 1272 b 388 1072 243 1156 296 1072 b 500 1233 478 1072 533 1157 b 388 1301 482 1272 446 1301 z m 471 1222 b 388 1101 497 1164 458 1101 b 303 1222 317 1101 278 1163 b 388 1272 314 1250 343 1272 b 471 1222 431 1272 461 1251 z "},"ę":{"ha":732,"x_min":0,"x_max":0,"o":"m 143 17 l 143 976 l 642 976 b 657 993 650 976 657 983 b 642 1008 657 1001 650 1008 l 128 1008 b 111 993 118 1008 111 1001 l 111 0 b 128 -15 111 -8 118 -15 l 600 -15 b 511 -114 571 -43 538 -76 b 465 -261 478 -161 456 -215 b 657 -328 481 -350 581 -350 b 667 -308 667 -325 669 -317 b 646 -300 664 -300 653 -297 b 501 -258 596 -314 514 -322 b 540 -131 490 -218 511 -172 b 649 -14 571 -86 618 -46 b 657 0 654 -11 657 -6 b 642 17 657 10 650 17 z m 326 810 b 310 794 317 810 310 803 l 310 596 b 326 579 310 588 317 579 l 549 579 b 565 596 558 579 565 588 b 549 613 565 604 558 613 l 342 613 l 342 778 l 642 778 b 657 794 650 778 657 785 b 642 810 657 803 650 810 z m 326 414 b 310 397 317 414 310 407 l 310 199 b 326 183 310 190 317 183 l 642 183 b 657 199 650 183 657 190 b 642 215 657 208 650 215 l 342 215 l 342 382 l 549 382 b 565 397 558 382 565 389 b 549 414 565 407 558 414 z "},"ě":{"ha":732,"x_min":0,"x_max":0,"o":"m 549 414 l 549 414 l 326 414 b 310 397 317 414 310 407 l 310 199 b 326 183 310 190 317 183 l 642 183 b 657 199 650 183 657 190 b 642 215 657 208 650 215 l 342 215 l 342 382 l 549 382 b 565 397 558 382 565 389 b 549 414 565 407 558 414 z m 642 810 l 642 810 l 326 810 b 310 794 317 810 310 803 l 310 596 b 326 579 310 588 317 579 l 549 579 b 565 596 558 579 565 588 b 549 613 565 604 558 613 l 342 613 l 342 778 l 642 778 b 657 794 650 778 657 785 b 642 810 657 803 650 810 z m 642 17 l 642 17 l 143 17 l 143 976 l 642 976 b 657 993 650 976 657 983 b 642 1008 657 1001 650 1008 l 128 1008 b 111 993 118 1008 111 1001 l 111 0 b 128 -15 111 -8 118 -15 l 642 -15 b 657 0 650 -15 657 -8 b 642 17 657 10 650 17 z m 396 1126 l 253 1242 b 231 1240 247 1249 238 1247 b 232 1218 225 1232 226 1225 l 385 1090 b 407 1090 393 1085 399 1083 l 561 1218 b 563 1239 567 1225 568 1231 b 540 1242 560 1246 546 1249 z "},"Ĝ":{"ha":967,"x_min":0,"x_max":0,"o":"m 826 71 l 826 497 b 843 513 826 506 835 513 b 858 497 851 513 858 506 l 858 63 b 851 47 860 57 856 51 b 586 -24 769 1 679 -24 b 113 272 346 -24 186 106 b 106 704 53 406 50 567 b 586 1017 175 874 333 1008 b 824 981 668 1019 746 1006 b 835 960 832 978 838 968 b 814 950 831 951 822 947 b 588 983 740 974 665 986 b 135 692 349 976 201 851 b 142 285 83 563 85 411 b 586 10 211 129 361 10 b 826 71 669 10 753 29 l 826 71 z m 800 779 b 808 758 808 775 813 765 b 788 750 806 750 796 746 b 588 782 724 778 656 786 b 329 611 451 778 367 704 b 333 372 299 536 300 446 b 586 211 374 281 457 211 b 625 214 599 211 611 211 l 625 497 b 642 513 625 506 632 513 b 657 497 650 513 657 506 l 657 199 b 643 183 657 190 651 183 b 586 178 625 179 606 178 b 304 360 443 178 347 257 b 299 624 268 442 267 540 b 586 815 340 728 436 810 b 800 779 658 818 733 810 l 800 779 z m 696 1121 b 717 1121 701 1114 714 1114 b 717 1144 722 1129 722 1138 l 563 1272 b 540 1272 557 1275 546 1275 l 388 1144 b 385 1121 382 1138 379 1129 b 408 1121 392 1114 403 1114 l 551 1236 z "},"Ğ":{"ha":967,"x_min":0,"x_max":0,"o":"m 826 71 l 826 71 b 586 10 753 29 669 10 b 142 285 361 10 211 129 b 135 692 85 411 83 563 b 588 983 201 851 349 976 b 814 950 665 986 740 974 b 835 960 822 947 831 951 b 824 981 838 968 832 978 b 586 1017 746 1006 668 1019 b 106 704 333 1008 175 874 b 113 272 50 567 53 406 b 586 -24 186 106 346 -24 b 851 47 679 -24 769 1 b 858 63 856 51 860 57 l 858 497 b 843 513 858 506 851 513 b 826 497 835 513 826 506 z m 800 779 l 800 779 b 586 815 733 810 658 818 b 299 624 436 810 340 728 b 304 360 267 540 268 442 b 586 178 347 257 443 178 b 643 183 606 178 625 179 b 657 199 651 183 657 190 l 657 497 b 642 513 657 506 650 513 b 625 497 632 513 625 506 l 625 214 b 586 211 611 211 599 211 b 333 372 457 211 374 281 b 329 611 300 446 299 536 b 588 782 367 704 451 778 b 788 750 656 786 724 778 b 808 758 796 746 806 750 b 800 779 813 765 808 775 z m 436 1268 b 407 1268 436 1286 407 1283 b 561 1118 407 1186 468 1118 b 715 1268 651 1118 714 1188 b 685 1268 714 1286 685 1285 b 561 1150 683 1204 636 1150 b 436 1268 485 1150 438 1203 z "},"Ġ":{"ha":967,"x_min":0,"x_max":0,"o":"m 826 71 l 826 71 b 586 10 753 29 669 10 b 142 285 361 10 211 129 b 135 692 85 411 83 563 b 588 983 201 851 349 976 b 814 950 665 986 740 974 b 835 960 822 947 831 951 b 824 981 838 968 832 978 b 586 1017 746 1006 668 1019 b 106 704 333 1008 175 874 b 113 272 50 567 53 406 b 586 -24 186 106 346 -24 b 851 47 679 -24 769 1 b 858 63 856 51 860 57 l 858 497 b 843 513 858 506 851 513 b 826 497 835 513 826 506 z m 800 779 l 800 779 b 586 815 733 810 658 818 b 299 624 436 810 340 728 b 304 360 267 540 268 442 b 586 178 347 257 443 178 b 643 183 606 178 625 179 b 657 199 651 183 657 190 l 657 497 b 642 513 657 506 650 513 b 625 497 632 513 625 506 l 625 214 b 586 211 611 211 599 211 b 333 372 457 211 374 281 b 329 611 300 446 299 536 b 588 782 367 704 451 778 b 788 750 656 786 724 778 b 808 758 796 746 806 750 b 800 779 813 765 808 775 z m 554 1335 b 439 1264 493 1335 457 1303 b 554 1093 404 1181 460 1093 b 669 1264 647 1093 704 1182 b 554 1335 651 1303 614 1335 z m 640 1251 b 554 1124 667 1189 626 1124 b 465 1251 481 1124 442 1188 b 554 1304 478 1281 508 1304 b 640 1251 599 1304 629 1282 z "},"Ģ":{"ha":967,"x_min":0,"x_max":0,"o":"m 494 -317 b 521 -329 486 -339 514 -346 l 590 -132 b 561 -122 599 -111 567 -101 z m 826 71 l 826 71 b 586 10 753 29 669 10 b 142 285 361 10 211 129 b 135 692 85 411 83 563 b 588 983 201 851 349 976 b 814 950 665 986 740 974 b 835 960 822 947 831 951 b 824 981 838 968 832 978 b 586 1017 746 1006 668 1019 b 106 704 333 1008 175 874 b 113 272 50 567 53 406 b 586 -24 186 106 346 -24 b 851 47 679 -24 769 1 b 858 63 856 51 860 57 l 858 497 b 843 513 858 506 851 513 b 826 497 835 513 826 506 z m 800 779 l 800 779 b 586 815 733 810 658 818 b 299 624 436 810 340 728 b 304 360 267 540 268 442 b 586 178 347 257 443 178 b 643 183 606 178 625 179 b 657 199 651 183 657 190 l 657 497 b 642 513 657 506 650 513 b 625 497 632 513 625 506 l 625 214 b 586 211 611 211 599 211 b 333 372 457 211 374 281 b 329 611 300 446 299 536 b 588 782 367 704 451 778 b 788 750 656 786 724 778 b 808 758 796 746 806 750 b 800 779 813 765 808 775 z "},"ĝ":{"ha":967,"x_min":0,"x_max":0,"o":"m 826 71 l 826 497 b 843 513 826 506 835 513 b 858 497 851 513 858 506 l 858 63 b 851 47 860 57 856 51 b 586 -24 769 1 679 -24 b 113 272 346 -24 186 106 b 106 704 53 406 50 567 b 586 1017 175 874 333 1008 b 824 981 668 1019 746 1006 b 835 960 832 978 838 968 b 814 950 831 951 822 947 b 588 983 740 974 665 986 b 135 692 349 976 201 851 b 142 285 83 563 85 411 b 586 10 211 129 361 10 b 826 71 669 10 753 29 l 826 71 z m 800 779 b 808 758 808 775 813 765 b 788 750 806 750 796 746 b 588 782 724 778 656 786 b 329 611 451 778 367 704 b 333 372 299 536 300 446 b 586 211 374 281 457 211 b 625 214 599 211 611 211 l 625 497 b 642 513 625 506 632 513 b 657 497 650 513 657 506 l 657 199 b 643 183 657 190 651 183 b 586 178 625 179 606 178 b 304 360 443 178 347 257 b 299 624 268 442 267 540 b 586 815 340 728 436 810 b 800 779 658 818 733 810 l 800 779 z m 696 1121 b 717 1121 701 1114 714 1114 b 717 1144 722 1129 722 1138 l 563 1272 b 540 1272 557 1275 546 1275 l 388 1144 b 385 1121 382 1138 379 1129 b 408 1121 392 1114 403 1114 l 551 1236 z "},"ğ":{"ha":967,"x_min":0,"x_max":0,"o":"m 826 71 l 826 71 b 586 10 753 29 669 10 b 142 285 361 10 211 129 b 135 692 85 411 83 563 b 588 983 201 851 349 976 b 814 950 665 986 740 974 b 835 960 822 947 831 951 b 824 981 838 968 832 978 b 586 1017 746 1006 668 1019 b 106 704 333 1008 175 874 b 113 272 50 567 53 406 b 586 -24 186 106 346 -24 b 851 47 679 -24 769 1 b 858 63 856 51 860 57 l 858 497 b 843 513 858 506 851 513 b 826 497 835 513 826 506 z m 800 779 l 800 779 b 586 815 733 810 658 818 b 299 624 436 810 340 728 b 304 360 267 540 268 442 b 586 178 347 257 443 178 b 643 183 606 178 625 179 b 657 199 651 183 657 190 l 657 497 b 642 513 657 506 650 513 b 625 497 632 513 625 506 l 625 214 b 586 211 611 211 599 211 b 333 372 457 211 374 281 b 329 611 300 446 299 536 b 588 782 367 704 451 778 b 788 750 656 786 724 778 b 808 758 796 746 806 750 b 800 779 813 765 808 775 z m 436 1268 b 407 1268 436 1286 407 1283 b 561 1118 407 1186 468 1118 b 715 1268 651 1118 714 1188 b 685 1268 714 1286 685 1285 b 561 1150 683 1204 636 1150 b 436 1268 485 1150 438 1203 z "},"ġ":{"ha":967,"x_min":0,"x_max":0,"o":"m 826 71 l 826 71 b 586 10 753 29 669 10 b 142 285 361 10 211 129 b 135 692 85 411 83 563 b 588 983 201 851 349 976 b 814 950 665 986 740 974 b 835 960 822 947 831 951 b 824 981 838 968 832 978 b 586 1017 746 1006 668 1019 b 106 704 333 1008 175 874 b 113 272 50 567 53 406 b 586 -24 186 106 346 -24 b 851 47 679 -24 769 1 b 858 63 856 51 860 57 l 858 497 b 843 513 858 506 851 513 b 826 497 835 513 826 506 z m 800 779 l 800 779 b 586 815 733 810 658 818 b 299 624 436 810 340 728 b 304 360 267 540 268 442 b 586 178 347 257 443 178 b 643 183 606 178 625 179 b 657 199 651 183 657 190 l 657 497 b 642 513 657 506 650 513 b 625 497 632 513 625 506 l 625 214 b 586 211 611 211 599 211 b 333 372 457 211 374 281 b 329 611 300 446 299 536 b 588 782 367 704 451 778 b 788 750 656 786 724 778 b 808 758 796 746 806 750 b 800 779 813 765 808 775 z m 554 1335 b 439 1264 493 1335 457 1303 b 554 1093 404 1181 460 1093 b 669 1264 647 1093 704 1182 b 554 1335 651 1303 614 1335 z m 640 1251 b 554 1124 667 1189 626 1124 b 465 1251 481 1124 442 1188 b 554 1304 478 1281 508 1304 b 640 1251 599 1304 629 1282 z "},"ģ":{"ha":967,"x_min":0,"x_max":0,"o":"m 494 -317 b 521 -329 486 -339 514 -346 l 590 -132 b 561 -122 599 -111 567 -101 z m 826 71 l 826 71 b 586 10 753 29 669 10 b 142 285 361 10 211 129 b 135 692 85 411 83 563 b 588 983 201 851 349 976 b 814 950 665 986 740 974 b 835 960 822 947 831 951 b 824 981 838 968 832 978 b 586 1017 746 1006 668 1019 b 106 704 333 1008 175 874 b 113 272 50 567 53 406 b 586 -24 186 106 346 -24 b 851 47 679 -24 769 1 b 858 63 856 51 860 57 l 858 497 b 843 513 858 506 851 513 b 826 497 835 513 826 506 z m 800 779 l 800 779 b 586 815 733 810 658 818 b 299 624 436 810 340 728 b 304 360 267 540 268 442 b 586 178 347 257 443 178 b 643 183 606 178 625 179 b 657 199 651 183 657 190 l 657 497 b 642 513 657 506 650 513 b 625 497 632 513 625 506 l 625 214 b 586 211 611 211 599 211 b 333 372 457 211 374 281 b 329 611 300 446 299 536 b 588 782 367 704 451 778 b 788 750 656 786 724 778 b 808 758 796 746 806 750 b 800 779 813 765 808 775 z "},"Ĥ":{"ha":950,"x_min":0,"x_max":0,"o":"m 639 0 b 622 -15 639 -8 632 -15 b 607 0 614 -15 607 -8 l 607 382 l 342 382 l 342 0 b 325 -15 342 -8 333 -15 b 308 0 317 -15 308 -8 l 308 397 b 325 414 308 407 317 414 l 622 414 b 639 397 632 414 639 407 l 639 0 l 639 0 z m 308 993 b 325 1008 308 1001 317 1008 b 342 993 333 1008 342 1001 l 342 613 l 607 613 l 607 993 b 622 1008 607 1001 614 1008 b 639 993 632 1008 639 1001 l 639 596 b 622 579 639 588 632 579 l 325 579 b 308 596 317 579 308 588 l 308 993 l 308 993 z m 806 993 b 821 1008 806 1001 813 1008 b 838 993 831 1008 838 1001 l 838 0 b 821 -15 838 -8 831 -15 b 806 0 813 -15 806 -8 l 806 993 l 806 993 z m 143 0 b 126 -15 143 -8 136 -15 b 111 0 118 -15 111 -8 l 111 993 b 126 1008 111 1001 118 1008 b 143 993 136 1008 143 1001 l 143 0 l 143 0 z m 619 1107 b 640 1107 625 1100 638 1100 b 640 1131 646 1115 646 1124 l 486 1258 b 464 1258 481 1261 469 1261 l 311 1131 b 308 1107 306 1124 303 1115 b 332 1107 315 1100 326 1100 l 475 1222 z "},"Ħ":{"ha":950,"x_min":0,"x_max":0,"o":"m 308 596 b 325 579 308 588 317 579 l 622 579 b 639 596 632 579 639 588 l 639 993 b 622 1008 639 1001 632 1008 b 607 993 614 1008 607 1001 l 607 796 l 342 796 l 342 993 b 325 1008 342 1001 333 1008 b 308 993 317 1008 308 1001 z m 342 613 l 342 764 l 607 764 l 607 613 z m 806 0 b 821 -15 806 -8 813 -15 b 838 0 831 -15 838 -8 l 838 764 l 943 764 b 958 781 951 764 958 772 b 943 796 958 789 951 796 l 838 796 l 838 993 b 821 1008 838 1001 831 1008 b 806 993 813 1008 806 1001 z m 639 397 b 622 414 639 407 632 414 l 325 414 b 308 397 317 414 308 407 l 308 0 b 325 -15 308 -8 317 -15 b 342 0 333 -15 342 -8 l 342 382 l 607 382 l 607 0 b 622 -15 607 -8 614 -15 b 639 0 632 -15 639 -8 z m 143 993 b 126 1008 143 1001 136 1008 b 111 993 118 1008 111 1001 l 111 796 l 10 796 b -7 781 1 796 -7 789 b 10 764 -7 772 1 764 l 111 764 l 111 0 b 126 -15 111 -8 118 -15 b 143 0 136 -15 143 -8 z "},"ĥ":{"ha":950,"x_min":0,"x_max":0,"o":"m 639 0 b 622 -15 639 -8 632 -15 b 607 0 614 -15 607 -8 l 607 382 l 342 382 l 342 0 b 325 -15 342 -8 333 -15 b 308 0 317 -15 308 -8 l 308 397 b 325 414 308 407 317 414 l 622 414 b 639 397 632 414 639 407 l 639 0 l 639 0 z m 308 993 b 325 1008 308 1001 317 1008 b 342 993 333 1008 342 1001 l 342 613 l 607 613 l 607 993 b 622 1008 607 1001 614 1008 b 639 993 632 1008 639 1001 l 639 596 b 622 579 639 588 632 579 l 325 579 b 308 596 317 579 308 588 l 308 993 l 308 993 z m 806 993 b 821 1008 806 1001 813 1008 b 838 993 831 1008 838 1001 l 838 0 b 821 -15 838 -8 831 -15 b 806 0 813 -15 806 -8 l 806 993 l 806 993 z m 143 0 b 126 -15 143 -8 136 -15 b 111 0 118 -15 111 -8 l 111 993 b 126 1008 111 1001 118 1008 b 143 993 136 1008 143 1001 l 143 0 l 143 0 z m 619 1107 b 640 1107 625 1100 638 1100 b 640 1131 646 1115 646 1124 l 486 1258 b 464 1258 481 1261 469 1261 l 311 1131 b 308 1107 306 1124 303 1115 b 332 1107 315 1100 326 1100 l 475 1222 z "},"ħ":{"ha":950,"x_min":0,"x_max":0,"o":"m 308 596 b 325 579 308 588 317 579 l 622 579 b 639 596 632 579 639 588 l 639 993 b 622 1008 639 1001 632 1008 b 607 993 614 1008 607 1001 l 607 796 l 342 796 l 342 993 b 325 1008 342 1001 333 1008 b 308 993 317 1008 308 1001 z m 342 613 l 342 764 l 607 764 l 607 613 z m 806 0 b 821 -15 806 -8 813 -15 b 838 0 831 -15 838 -8 l 838 764 l 943 764 b 958 781 951 764 958 772 b 943 796 958 789 951 796 l 838 796 l 838 993 b 821 1008 838 1001 831 1008 b 806 993 813 1008 806 1001 z m 639 397 b 622 414 639 407 632 414 l 325 414 b 308 397 317 414 308 407 l 308 0 b 325 -15 308 -8 317 -15 b 342 0 333 -15 342 -8 l 342 382 l 607 382 l 607 0 b 622 -15 607 -8 614 -15 b 639 0 632 -15 639 -8 z m 143 993 b 126 1008 143 1001 136 1008 b 111 993 118 1008 111 1001 l 111 796 l 10 796 b -7 781 1 796 -7 789 b 10 764 -7 772 1 764 l 111 764 l 111 0 b 126 -15 111 -8 118 -15 b 143 0 136 -15 143 -8 z "},"Ĩ":{"ha":454,"x_min":0,"x_max":0,"o":"m 342 0 l 342 0 l 342 993 b 326 1008 342 1001 335 1008 b 310 993 317 1008 310 1001 l 310 0 b 326 -15 310 -8 317 -15 b 342 0 335 -15 342 -8 z m 143 0 l 143 0 l 143 993 b 128 1008 143 1001 136 1008 b 111 993 118 1008 111 1001 l 111 0 b 128 -15 111 -8 118 -15 b 143 0 136 -15 143 -8 z m 88 1142 b 136 1190 100 1163 114 1188 b 208 1158 164 1196 192 1178 b 310 1125 239 1138 271 1119 b 381 1190 342 1132 365 1158 b 375 1211 386 1196 383 1207 b 354 1204 368 1217 357 1214 b 304 1156 342 1183 328 1163 b 228 1188 276 1150 250 1169 b 131 1222 203 1211 168 1228 b 58 1158 96 1217 76 1188 b 67 1135 54 1150 58 1142 b 88 1142 72 1132 85 1135 z "},"Ī":{"ha":454,"x_min":0,"x_max":0,"o":"m 342 0 l 342 0 l 342 993 b 326 1008 342 1001 335 1008 b 310 993 317 1008 310 1001 l 310 0 b 326 -15 310 -8 317 -15 b 342 0 335 -15 342 -8 z m 143 0 l 143 0 l 143 993 b 128 1008 143 1001 136 1008 b 111 993 118 1008 111 1001 l 111 0 b 128 -15 111 -8 118 -15 b 143 0 136 -15 143 -8 z m 357 1140 b 372 1157 365 1140 372 1149 b 357 1172 372 1165 365 1172 l 99 1172 b 82 1157 90 1172 82 1165 b 99 1140 82 1149 90 1140 z "},"Ĭ":{"ha":454,"x_min":0,"x_max":0,"o":"m 342 0 l 342 0 l 342 993 b 326 1008 342 1001 335 1008 b 310 993 317 1008 310 1001 l 310 0 b 326 -15 310 -8 317 -15 b 342 0 335 -15 342 -8 z m 143 0 l 143 0 l 143 993 b 128 1008 143 1001 136 1008 b 111 993 118 1008 111 1001 l 111 0 b 128 -15 111 -8 118 -15 b 143 0 136 -15 143 -8 z m 101 1254 b 72 1254 101 1272 72 1269 b 226 1104 72 1172 133 1104 b 381 1254 317 1104 379 1174 b 350 1254 379 1272 350 1271 b 226 1136 349 1190 301 1136 b 101 1254 150 1136 103 1189 z "},"Į":{"ha":454,"x_min":0,"x_max":0,"o":"m 342 993 b 326 1008 342 1001 335 1008 b 310 993 317 1008 310 1001 l 310 21 b 206 -103 278 -11 236 -54 b 163 -258 174 -153 153 -210 b 343 -328 176 -351 271 -351 b 351 -307 351 -325 354 -317 b 332 -299 349 -299 339 -296 b 196 -256 285 -314 208 -322 b 233 -121 186 -212 206 -164 b 326 -14 244 -103 308 -14 b 342 0 335 -14 342 -8 z m 143 993 b 128 1008 143 1001 136 1008 b 111 993 118 1008 111 1001 l 111 0 b 128 -15 111 -8 118 -15 b 143 0 136 -15 143 -8 z "},"İ":{"ha":454,"x_min":0,"x_max":0,"o":"m 342 0 l 342 0 l 342 993 b 326 1008 342 1001 335 1008 b 310 993 317 1008 310 1001 l 310 0 b 326 -15 310 -8 317 -15 b 342 0 335 -15 342 -8 z m 143 0 l 143 0 l 143 993 b 128 1008 143 1001 136 1008 b 111 993 118 1008 111 1001 l 111 0 b 128 -15 111 -8 118 -15 b 143 0 136 -15 143 -8 z m 226 1339 b 110 1264 165 1339 128 1306 b 226 1086 75 1178 131 1086 b 343 1264 321 1086 378 1179 b 226 1339 325 1306 288 1339 z m 314 1251 b 226 1118 340 1186 300 1118 b 138 1251 153 1118 113 1185 b 226 1307 150 1282 181 1307 b 314 1251 271 1307 303 1283 z "},"ĩ":{"ha":454,"x_min":0,"x_max":0,"o":"m 342 0 l 342 0 l 342 993 b 326 1008 342 1001 335 1008 b 310 993 317 1008 310 1001 l 310 0 b 326 -15 310 -8 317 -15 b 342 0 335 -15 342 -8 z m 143 0 l 143 0 l 143 993 b 128 1008 143 1001 136 1008 b 111 993 118 1008 111 1001 l 111 0 b 128 -15 111 -8 118 -15 b 143 0 136 -15 143 -8 z m 88 1142 b 136 1190 100 1163 114 1188 b 208 1158 164 1196 192 1178 b 310 1125 239 1138 271 1119 b 381 1190 342 1132 365 1158 b 375 1211 386 1196 383 1207 b 354 1204 368 1217 357 1214 b 304 1156 342 1183 328 1163 b 228 1188 276 1150 250 1169 b 131 1222 203 1211 168 1228 b 58 1158 96 1217 76 1188 b 67 1135 54 1150 58 1142 b 88 1142 72 1132 85 1135 z "},"ī":{"ha":454,"x_min":0,"x_max":0,"o":"m 342 0 l 342 0 l 342 993 b 326 1008 342 1001 335 1008 b 310 993 317 1008 310 1001 l 310 0 b 326 -15 310 -8 317 -15 b 342 0 335 -15 342 -8 z m 143 0 l 143 0 l 143 993 b 128 1008 143 1001 136 1008 b 111 993 118 1008 111 1001 l 111 0 b 128 -15 111 -8 118 -15 b 143 0 136 -15 143 -8 z m 357 1140 b 372 1157 365 1140 372 1149 b 357 1172 372 1165 365 1172 l 99 1172 b 82 1157 90 1172 82 1165 b 99 1140 82 1149 90 1140 z "},"ĭ":{"ha":454,"x_min":0,"x_max":0,"o":"m 342 0 l 342 0 l 342 993 b 326 1008 342 1001 335 1008 b 310 993 317 1008 310 1001 l 310 0 b 326 -15 310 -8 317 -15 b 342 0 335 -15 342 -8 z m 143 0 l 143 0 l 143 993 b 128 1008 143 1001 136 1008 b 111 993 118 1008 111 1001 l 111 0 b 128 -15 111 -8 118 -15 b 143 0 136 -15 143 -8 z m 101 1254 b 72 1254 101 1272 72 1269 b 226 1104 72 1172 133 1104 b 381 1254 317 1104 379 1174 b 350 1254 379 1272 350 1271 b 226 1136 349 1190 301 1136 b 101 1254 150 1136 103 1189 z "},"į":{"ha":454,"x_min":0,"x_max":0,"o":"m 342 993 b 326 1008 342 1001 335 1008 b 310 993 317 1008 310 1001 l 310 21 b 206 -103 278 -11 236 -54 b 163 -258 174 -153 153 -210 b 343 -328 176 -351 271 -351 b 351 -307 351 -325 354 -317 b 332 -299 349 -299 339 -296 b 196 -256 285 -314 208 -322 b 233 -121 186 -212 206 -164 b 326 -14 244 -103 308 -14 b 342 0 335 -14 342 -8 z m 143 993 b 128 1008 143 1001 136 1008 b 111 993 118 1008 111 1001 l 111 0 b 128 -15 111 -8 118 -15 b 143 0 136 -15 143 -8 z "},"Ĳ":{"ha":1131,"x_min":0,"x_max":0,"o":"m 342 0 l 342 0 l 342 993 b 326 1008 342 1001 335 1008 b 310 993 317 1008 310 1001 l 310 0 b 326 -15 310 -8 317 -15 b 342 0 335 -15 342 -8 z m 143 0 l 143 0 l 143 993 b 128 1008 143 1001 136 1008 b 111 993 118 1008 111 1001 l 111 0 b 128 -15 111 -8 118 -15 b 143 0 136 -15 143 -8 z m 790 299 l 790 299 b 706 215 790 250 753 215 l 529 215 b 514 199 521 215 514 208 b 529 183 514 190 521 183 l 706 183 b 822 299 769 183 822 233 l 822 993 b 806 1008 822 1001 815 1008 b 790 993 797 1008 790 1001 z m 515 -15 l 515 -15 l 711 -15 b 1021 299 883 -15 1021 126 l 1021 993 b 1004 1008 1021 1001 1014 1008 b 989 993 996 1008 989 1001 l 989 299 b 711 17 989 144 867 17 l 515 17 b 499 0 506 17 499 10 b 515 -15 499 -8 506 -15 z "},"ĳ":{"ha":1131,"x_min":0,"x_max":0,"o":"m 342 0 l 342 0 l 342 993 b 326 1008 342 1001 335 1008 b 310 993 317 1008 310 1001 l 310 0 b 326 -15 310 -8 317 -15 b 342 0 335 -15 342 -8 z m 143 0 l 143 0 l 143 993 b 128 1008 143 1001 136 1008 b 111 993 118 1008 111 1001 l 111 0 b 128 -15 111 -8 118 -15 b 143 0 136 -15 143 -8 z m 790 299 l 790 299 b 706 215 790 250 753 215 l 529 215 b 514 199 521 215 514 208 b 529 183 514 190 521 183 l 706 183 b 822 299 769 183 822 233 l 822 993 b 806 1008 822 1001 815 1008 b 790 993 797 1008 790 1001 z m 515 -15 l 515 -15 l 711 -15 b 1021 299 883 -15 1021 126 l 1021 993 b 1004 1008 1021 1001 1014 1008 b 989 993 996 1008 989 1001 l 989 299 b 711 17 989 144 867 17 l 515 17 b 499 0 506 17 499 10 b 515 -15 499 -8 506 -15 z "},"Ĵ":{"ha":676,"x_min":0,"x_max":0,"o":"m 336 299 l 336 993 b 351 1008 336 1001 343 1008 b 368 993 361 1008 368 1001 l 368 299 b 251 183 368 233 315 183 l 75 183 b 60 199 67 183 60 190 b 75 215 60 208 67 215 l 251 215 b 336 299 299 215 336 250 l 336 299 z m 61 -15 b 44 0 51 -15 44 -8 b 61 17 44 10 51 17 l 257 17 b 535 299 413 17 535 144 l 535 993 b 550 1008 535 1001 542 1008 b 567 993 560 1008 567 1001 l 567 299 b 257 -15 567 126 429 -15 l 61 -15 l 61 -15 z m 583 1097 b 604 1097 589 1090 601 1090 b 604 1121 610 1106 610 1114 l 450 1249 b 428 1249 444 1251 433 1251 l 275 1121 b 272 1097 269 1114 267 1106 b 296 1097 279 1090 290 1090 l 439 1213 z "},"ĵ":{"ha":676,"x_min":0,"x_max":0,"o":"m 336 299 l 336 993 b 351 1008 336 1001 343 1008 b 368 993 361 1008 368 1001 l 368 299 b 251 183 368 233 315 183 l 75 183 b 60 199 67 183 60 190 b 75 215 60 208 67 215 l 251 215 b 336 299 299 215 336 250 l 336 299 z m 61 -15 b 44 0 51 -15 44 -8 b 61 17 44 10 51 17 l 257 17 b 535 299 413 17 535 144 l 535 993 b 550 1008 535 1001 542 1008 b 567 993 560 1008 567 1001 l 567 299 b 257 -15 567 126 429 -15 l 61 -15 l 61 -15 z m 583 1097 b 604 1097 589 1090 601 1090 b 604 1121 610 1106 610 1114 l 450 1249 b 428 1249 444 1251 433 1251 l 275 1121 b 272 1097 269 1114 267 1106 b 296 1097 279 1090 290 1090 l 439 1213 z "},"Ķ":{"ha":853,"x_min":0,"x_max":0,"o":"m 381 -308 b 407 -321 372 -331 400 -337 l 476 -124 b 447 -114 485 -103 453 -93 z m 143 0 l 143 0 l 143 993 b 128 1008 143 1001 136 1008 b 111 993 118 1008 111 1001 l 111 0 b 128 -15 111 -8 118 -15 b 143 0 136 -15 143 -8 z m 540 1003 l 540 1003 l 342 736 l 342 993 b 326 1008 342 1001 335 1008 b 310 993 317 1008 310 1001 l 310 689 b 317 675 310 683 311 678 b 339 678 324 669 333 671 l 567 983 b 564 1006 572 990 571 1000 b 540 1003 556 1011 546 1010 z m 588 10 l 588 10 l 339 357 b 317 361 333 365 324 367 b 310 347 313 358 310 353 l 310 0 b 326 -15 310 -8 317 -15 b 342 0 335 -15 342 -8 l 342 299 l 561 -8 b 583 -12 567 -15 576 -18 b 588 10 590 -7 592 3 z m 782 1003 l 782 1003 l 436 528 b 436 508 432 522 432 514 l 436 508 l 803 -8 b 825 -12 808 -15 818 -18 b 829 10 832 -7 835 3 l 469 518 l 808 983 b 806 1006 814 990 813 1000 b 782 1003 797 1011 788 1010 z "},"ķ":{"ha":853,"x_min":0,"x_max":0,"o":"m 381 -308 b 407 -321 372 -331 400 -337 l 476 -124 b 447 -114 485 -103 453 -93 z m 143 0 l 143 0 l 143 993 b 128 1008 143 1001 136 1008 b 111 993 118 1008 111 1001 l 111 0 b 128 -15 111 -8 118 -15 b 143 0 136 -15 143 -8 z m 540 1003 l 540 1003 l 342 736 l 342 993 b 326 1008 342 1001 335 1008 b 310 993 317 1008 310 1001 l 310 689 b 317 675 310 683 311 678 b 339 678 324 669 333 671 l 567 983 b 564 1006 572 990 571 1000 b 540 1003 556 1011 546 1010 z m 588 10 l 588 10 l 339 357 b 317 361 333 365 324 367 b 310 347 313 358 310 353 l 310 0 b 326 -15 310 -8 317 -15 b 342 0 335 -15 342 -8 l 342 299 l 561 -8 b 583 -12 567 -15 576 -18 b 588 10 590 -7 592 3 z m 782 1003 l 782 1003 l 436 528 b 436 508 432 522 432 514 l 436 508 l 803 -8 b 825 -12 808 -15 818 -18 b 829 10 832 -7 835 3 l 469 518 l 808 983 b 806 1006 814 990 813 1000 b 782 1003 797 1011 788 1010 z "},"ĸ":{"ha":853,"x_min":0,"x_max":0,"o":"m 143 0 l 143 0 l 143 993 b 128 1008 143 1001 136 1008 b 111 993 118 1008 111 1001 l 111 0 b 128 -15 111 -8 118 -15 b 143 0 136 -15 143 -8 z m 540 1003 l 540 1003 l 342 736 l 342 993 b 326 1008 342 1001 335 1008 b 310 993 317 1008 310 1001 l 310 689 b 317 675 310 683 311 678 b 339 678 324 669 333 671 l 567 983 b 564 1006 572 990 571 1000 b 540 1003 556 1011 546 1010 z m 588 10 l 588 10 l 339 357 b 317 361 333 365 324 367 b 310 347 313 358 310 353 l 310 0 b 326 -15 310 -8 317 -15 b 342 0 335 -15 342 -8 l 342 299 l 561 -8 b 583 -12 567 -15 576 -18 b 588 10 590 -7 592 3 z m 782 1003 l 782 1003 l 436 528 b 436 508 432 522 432 514 l 436 508 l 803 -8 b 825 -12 808 -15 818 -18 b 829 10 832 -7 835 3 l 469 518 l 808 983 b 806 1006 814 990 813 1000 b 782 1003 797 1011 788 1010 z "},"Ĺ":{"ha":781,"x_min":0,"x_max":0,"o":"m 704 17 l 704 17 l 143 17 l 143 993 b 126 1008 143 1001 136 1008 b 111 993 118 1008 111 1001 l 111 0 b 126 -15 111 -8 118 -15 l 704 -15 b 721 0 714 -15 721 -8 b 704 17 721 10 714 17 z m 308 993 l 308 993 l 308 199 b 325 183 308 190 317 183 l 704 183 b 721 199 714 183 721 190 b 704 215 721 208 714 215 l 342 215 l 342 993 b 325 1008 342 1001 333 1008 b 308 993 317 1008 308 1001 z m 199 1124 b 199 1100 193 1117 193 1107 b 222 1103 206 1093 217 1093 l 363 1250 b 360 1274 369 1256 369 1265 b 339 1271 354 1279 346 1279 z "},"Ļ":{"ha":781,"x_min":0,"x_max":0,"o":"m 363 -324 b 389 -336 354 -346 382 -353 l 458 -139 b 429 -129 467 -118 435 -108 z m 704 17 l 704 17 l 143 17 l 143 993 b 126 1008 143 1001 136 1008 b 111 993 118 1008 111 1001 l 111 0 b 126 -15 111 -8 118 -15 l 704 -15 b 721 0 714 -15 721 -8 b 704 17 721 10 714 17 z m 308 993 l 308 993 l 308 199 b 325 183 308 190 317 183 l 704 183 b 721 199 714 183 721 190 b 704 215 721 208 714 215 l 342 215 l 342 993 b 325 1008 342 1001 333 1008 b 308 993 317 1008 308 1001 z "},"Ŗ":{"ha":863,"x_min":0,"x_max":0,"o":"m 394 -311 b 421 -324 386 -333 414 -340 l 490 -126 b 461 -117 499 -106 467 -96 z m 500 581 l 500 581 b 618 694 565 581 618 629 b 500 810 618 761 565 810 l 325 810 b 325 778 304 810 304 778 l 500 778 b 586 694 547 778 586 743 b 500 611 586 647 547 611 l 444 611 b 428 596 435 611 428 604 b 444 581 428 588 435 581 z m 596 10 l 596 10 l 338 354 b 315 358 332 361 322 363 b 310 344 311 354 308 349 l 310 0 b 325 -17 310 -8 317 -17 b 342 0 333 -17 342 -8 l 342 297 l 569 -8 b 593 -12 575 -17 586 -18 b 596 10 600 -7 601 3 z m 143 0 l 143 0 l 143 976 l 517 976 b 794 694 672 976 794 849 b 517 414 794 542 672 414 b 501 397 508 414 501 407 b 506 386 501 393 503 389 l 811 -8 b 835 -11 818 -17 828 -18 b 838 10 842 -7 843 3 l 550 382 b 828 694 708 399 828 536 b 517 1010 828 867 690 1010 l 126 1010 b 111 993 118 1010 111 1001 l 111 0 b 126 -17 111 -8 118 -17 b 143 0 136 -17 143 -8 z "},"Ņ":{"ha":1065,"x_min":0,"x_max":0,"o":"m 475 -296 b 501 -308 467 -318 494 -325 l 571 -111 b 542 -101 579 -90 547 -81 z m 953 0 l 953 0 l 953 992 b 919 992 953 1014 919 1014 l 919 0 b 953 0 919 -21 953 -21 z m 143 0 l 143 0 l 143 992 b 111 992 143 1014 111 1014 l 111 0 b 143 0 111 -21 143 -21 z m 294 983 l 294 983 l 725 365 b 756 375 733 351 756 360 l 756 992 b 722 992 756 1014 722 1014 l 722 426 l 319 1001 b 294 983 308 1019 282 1000 z m 771 10 l 771 10 l 340 628 b 310 618 329 640 310 633 l 310 0 b 343 0 310 -21 343 -21 l 343 567 l 743 -10 b 771 10 757 -26 782 -8 z "},"Ľ":{"ha":781,"x_min":0,"x_max":0,"o":"m 704 17 l 704 17 l 143 17 l 143 993 b 126 1008 143 1001 136 1008 b 111 993 118 1008 111 1001 l 111 0 b 126 -15 111 -8 118 -15 l 704 -15 b 721 0 714 -15 721 -8 b 704 17 721 10 714 17 z m 308 993 l 308 993 l 308 199 b 325 183 308 190 317 183 l 704 183 b 721 199 714 183 721 190 b 704 215 721 208 714 215 l 342 215 l 342 993 b 325 1008 342 1001 333 1008 b 308 993 317 1008 308 1001 z m 561 840 b 561 818 557 832 556 825 b 585 819 568 811 579 810 l 646 983 b 619 1000 660 1006 631 1021 z "},"Ŀ":{"ha":781,"x_min":0,"x_max":0,"o":"m 704 17 l 704 17 l 143 17 l 143 993 b 126 1008 143 1001 136 1008 b 111 993 118 1008 111 1001 l 111 0 b 126 -15 111 -8 118 -15 l 704 -15 b 721 0 714 -15 721 -8 b 704 17 721 10 714 17 z m 308 993 l 308 993 l 308 199 b 325 183 308 190 317 183 l 704 183 b 721 199 714 183 721 190 b 704 215 721 208 714 215 l 342 215 l 342 993 b 325 1008 342 1001 333 1008 b 308 993 317 1008 308 1001 z m 603 671 b 486 596 542 671 504 638 b 603 418 451 510 507 418 b 719 596 697 418 754 511 b 603 671 701 638 664 671 z m 690 583 b 603 450 717 518 676 450 b 514 583 529 450 489 517 b 603 639 526 614 557 639 b 690 583 647 639 679 615 z "},"ĺ":{"ha":781,"x_min":0,"x_max":0,"o":"m 704 17 l 704 17 l 143 17 l 143 993 b 126 1008 143 1001 136 1008 b 111 993 118 1008 111 1001 l 111 0 b 126 -15 111 -8 118 -15 l 704 -15 b 721 0 714 -15 721 -8 b 704 17 721 10 714 17 z m 308 993 l 308 993 l 308 199 b 325 183 308 190 317 183 l 704 183 b 721 199 714 183 721 190 b 704 215 721 208 714 215 l 342 215 l 342 993 b 325 1008 342 1001 333 1008 b 308 993 317 1008 308 1001 z m 199 1124 b 199 1100 193 1117 193 1107 b 222 1103 206 1093 217 1093 l 363 1250 b 360 1274 369 1256 369 1265 b 339 1271 354 1279 346 1279 z "},"ļ":{"ha":781,"x_min":0,"x_max":0,"o":"m 363 -324 b 389 -336 354 -346 382 -353 l 458 -139 b 429 -129 467 -118 435 -108 z m 704 17 l 704 17 l 143 17 l 143 993 b 126 1008 143 1001 136 1008 b 111 993 118 1008 111 1001 l 111 0 b 126 -15 111 -8 118 -15 l 704 -15 b 721 0 714 -15 721 -8 b 704 17 721 10 714 17 z m 308 993 l 308 993 l 308 199 b 325 183 308 190 317 183 l 704 183 b 721 199 714 183 721 190 b 704 215 721 208 714 215 l 342 215 l 342 993 b 325 1008 342 1001 333 1008 b 308 993 317 1008 308 1001 z "},"ľ":{"ha":781,"x_min":0,"x_max":0,"o":"m 704 17 l 704 17 l 143 17 l 143 993 b 126 1008 143 1001 136 1008 b 111 993 118 1008 111 1001 l 111 0 b 126 -15 111 -8 118 -15 l 704 -15 b 721 0 714 -15 721 -8 b 704 17 721 10 714 17 z m 308 993 l 308 993 l 308 199 b 325 183 308 190 317 183 l 704 183 b 721 199 714 183 721 190 b 704 215 721 208 714 215 l 342 215 l 342 993 b 325 1008 342 1001 333 1008 b 308 993 317 1008 308 1001 z m 561 840 b 561 818 557 832 556 825 b 585 819 568 811 579 810 l 646 983 b 619 1000 660 1006 631 1021 z "},"ŀ":{"ha":781,"x_min":0,"x_max":0,"o":"m 704 17 l 704 17 l 143 17 l 143 993 b 126 1008 143 1001 136 1008 b 111 993 118 1008 111 1001 l 111 0 b 126 -15 111 -8 118 -15 l 704 -15 b 721 0 714 -15 721 -8 b 704 17 721 10 714 17 z m 308 993 l 308 993 l 308 199 b 325 183 308 190 317 183 l 704 183 b 721 199 714 183 721 190 b 704 215 721 208 714 215 l 342 215 l 342 993 b 325 1008 342 1001 333 1008 b 308 993 317 1008 308 1001 z m 603 671 b 486 596 542 671 504 638 b 603 418 451 510 507 418 b 719 596 697 418 754 511 b 603 671 701 638 664 671 z m 690 583 b 603 450 717 518 676 450 b 514 583 529 450 489 517 b 603 639 526 614 557 639 b 690 583 647 639 679 615 z "},"Ń":{"ha":1065,"x_min":0,"x_max":0,"o":"m 953 0 l 953 0 l 953 992 b 919 992 953 1014 919 1014 l 919 0 b 953 0 919 -21 953 -21 z m 143 0 l 143 0 l 143 992 b 111 992 143 1014 111 1014 l 111 0 b 143 0 111 -21 143 -21 z m 294 983 l 294 983 l 725 365 b 756 375 733 351 756 360 l 756 992 b 722 992 756 1014 722 1014 l 722 426 l 319 1001 b 294 983 308 1019 282 1000 z m 771 10 l 771 10 l 340 628 b 310 618 329 640 310 633 l 310 0 b 343 0 310 -21 343 -21 l 343 567 l 743 -10 b 771 10 757 -26 782 -8 z m 482 1129 b 482 1106 476 1122 476 1113 b 506 1108 489 1099 500 1099 l 646 1256 b 643 1279 653 1261 653 1271 b 622 1276 638 1285 629 1285 z "},"ń":{"ha":1065,"x_min":0,"x_max":0,"o":"m 953 0 l 953 0 l 953 992 b 919 992 953 1014 919 1014 l 919 0 b 953 0 919 -21 953 -21 z m 143 0 l 143 0 l 143 992 b 111 992 143 1014 111 1014 l 111 0 b 143 0 111 -21 143 -21 z m 294 983 l 294 983 l 725 365 b 756 375 733 351 756 360 l 756 992 b 722 992 756 1014 722 1014 l 722 426 l 319 1001 b 294 983 308 1019 282 1000 z m 771 10 l 771 10 l 340 628 b 310 618 329 640 310 633 l 310 0 b 343 0 310 -21 343 -21 l 343 567 l 743 -10 b 771 10 757 -26 782 -8 z m 482 1129 b 482 1106 476 1122 476 1113 b 506 1108 489 1099 500 1099 l 646 1256 b 643 1279 653 1261 653 1271 b 622 1276 638 1285 629 1285 z "},"ņ":{"ha":1065,"x_min":0,"x_max":0,"o":"m 475 -296 b 501 -308 467 -318 494 -325 l 571 -111 b 542 -101 579 -90 547 -81 z m 953 0 l 953 0 l 953 992 b 919 992 953 1014 919 1014 l 919 0 b 953 0 919 -21 953 -21 z m 143 0 l 143 0 l 143 992 b 111 992 143 1014 111 1014 l 111 0 b 143 0 111 -21 143 -21 z m 294 983 l 294 983 l 725 365 b 756 375 733 351 756 360 l 756 992 b 722 992 756 1014 722 1014 l 722 426 l 319 1001 b 294 983 308 1019 282 1000 z m 771 10 l 771 10 l 340 628 b 310 618 329 640 310 633 l 310 0 b 343 0 310 -21 343 -21 l 343 567 l 743 -10 b 771 10 757 -26 782 -8 z "},"Ň":{"ha":1065,"x_min":0,"x_max":0,"o":"m 953 0 l 953 0 l 953 992 b 919 992 953 1014 919 1014 l 919 0 b 953 0 919 -21 953 -21 z m 143 0 l 143 0 l 143 992 b 111 992 143 1014 111 1014 l 111 0 b 143 0 111 -21 143 -21 z m 294 983 l 294 983 l 725 365 b 756 375 733 351 756 360 l 756 992 b 722 992 756 1014 722 1014 l 722 426 l 319 1001 b 294 983 308 1019 282 1000 z m 771 10 l 771 10 l 340 628 b 310 618 329 640 310 633 l 310 0 b 343 0 310 -21 343 -21 l 343 567 l 743 -10 b 771 10 757 -26 782 -8 z m 526 1128 l 383 1243 b 361 1242 378 1250 368 1249 b 363 1219 356 1233 357 1226 l 515 1092 b 538 1092 524 1086 529 1085 l 692 1219 b 693 1240 697 1226 699 1232 b 671 1243 690 1247 676 1250 z "},"ň":{"ha":1065,"x_min":0,"x_max":0,"o":"m 953 0 l 953 0 l 953 992 b 919 992 953 1014 919 1014 l 919 0 b 953 0 919 -21 953 -21 z m 143 0 l 143 0 l 143 992 b 111 992 143 1014 111 1014 l 111 0 b 143 0 111 -21 143 -21 z m 294 983 l 294 983 l 725 365 b 756 375 733 351 756 360 l 756 992 b 722 992 756 1014 722 1014 l 722 426 l 319 1001 b 294 983 308 1019 282 1000 z m 771 10 l 771 10 l 340 628 b 310 618 329 640 310 633 l 310 0 b 343 0 310 -21 343 -21 l 343 567 l 743 -10 b 771 10 757 -26 782 -8 z m 526 1128 l 383 1243 b 361 1242 378 1250 368 1249 b 363 1219 356 1233 357 1226 l 515 1092 b 538 1092 524 1086 529 1085 l 692 1219 b 693 1240 697 1226 699 1232 b 671 1243 690 1247 676 1250 z "},"ŉ":{"ha":1065,"x_min":0,"x_max":0,"o":"m 953 0 l 953 0 l 953 992 b 919 992 953 1014 919 1014 l 919 0 b 953 0 919 -21 953 -21 z m 143 0 l 143 0 l 143 992 b 111 992 143 1014 111 1014 l 111 0 b 143 0 111 -21 143 -21 z m 294 983 l 294 983 l 725 365 b 756 375 733 351 756 360 l 756 992 b 722 992 756 1014 722 1014 l 722 426 l 319 1001 b 294 983 308 1019 282 1000 z m 771 10 l 771 10 l 340 628 b 310 618 329 640 310 633 l 310 0 b 343 0 310 -21 343 -21 l 343 567 l 743 -10 b 771 10 757 -26 782 -8 z "},"Ŋ":{"ha":1065,"x_min":0,"x_max":0,"o":"m 340 628 b 310 618 329 640 310 633 l 310 0 b 343 0 310 -21 343 -21 l 343 567 l 726 11 l 726 -61 b 642 -144 726 -110 689 -144 l 604 -144 b 589 -161 596 -144 589 -151 b 604 -176 589 -169 596 -176 l 642 -176 b 758 -61 706 -176 758 -126 l 758 11 b 750 36 758 25 757 26 z m 953 992 b 919 992 953 1014 919 1014 l 919 -61 b 643 -343 919 -215 799 -343 l 594 -343 b 578 -360 585 -343 578 -350 b 594 -375 578 -368 585 -375 l 643 -375 b 953 -61 815 -375 953 -233 z m 725 365 b 756 375 733 351 756 360 l 756 992 b 722 992 756 1014 722 1014 l 722 426 l 319 1001 b 294 983 308 1019 282 1000 z m 143 992 b 111 992 143 1014 111 1014 l 111 0 b 143 0 111 -21 143 -21 z "},"ŋ":{"ha":1065,"x_min":0,"x_max":0,"o":"m 340 628 b 310 618 329 640 310 633 l 310 0 b 343 0 310 -21 343 -21 l 343 567 l 726 11 l 726 -61 b 642 -144 726 -110 689 -144 l 604 -144 b 589 -161 596 -144 589 -151 b 604 -176 589 -169 596 -176 l 642 -176 b 758 -61 706 -176 758 -126 l 758 11 b 750 36 758 25 757 26 z m 953 992 b 919 992 953 1014 919 1014 l 919 -61 b 643 -343 919 -215 799 -343 l 594 -343 b 578 -360 585 -343 578 -350 b 594 -375 578 -368 585 -375 l 643 -375 b 953 -61 815 -375 953 -233 z m 725 365 b 756 375 733 351 756 360 l 756 992 b 722 992 756 1014 722 1014 l 722 426 l 319 1001 b 294 983 308 1019 282 1000 z m 143 992 b 111 992 143 1014 111 1014 l 111 0 b 143 0 111 -21 143 -21 z "},"Ō":{"ha":1197,"x_min":0,"x_max":0,"o":"m 1121 658 l 1121 658 b 607 1029 1050 879 839 1029 b 76 499 293 1029 76 804 b 607 -33 76 192 293 -33 b 1121 339 839 -33 1050 115 b 1110 360 1124 347 1118 357 b 1089 349 1100 363 1092 358 b 607 0 1022 139 826 0 b 108 499 313 0 108 210 b 607 996 108 788 313 996 b 1089 649 826 996 1022 857 b 1110 638 1092 639 1100 635 b 1121 658 1118 639 1124 650 z m 329 336 l 329 336 b 607 172 386 236 492 172 b 928 499 786 172 928 321 b 607 824 928 675 786 824 b 329 661 492 824 386 761 b 335 638 325 653 328 643 b 358 644 343 633 354 636 b 607 792 408 735 503 792 b 894 499 768 792 894 658 b 607 206 894 339 768 206 b 358 353 503 206 408 263 b 335 358 354 360 343 363 b 329 336 328 354 325 343 z m 774 1156 b 793 1172 785 1156 793 1164 b 774 1189 793 1182 785 1189 l 453 1189 b 432 1172 442 1189 432 1182 b 453 1156 432 1164 442 1156 z "},"Ŏ":{"ha":1197,"x_min":0,"x_max":0,"o":"m 1121 658 l 1121 658 b 607 1029 1050 879 839 1029 b 76 499 293 1029 76 804 b 607 -33 76 192 293 -33 b 1121 339 839 -33 1050 115 b 1110 360 1124 347 1118 357 b 1089 349 1100 363 1092 358 b 607 0 1022 139 826 0 b 108 499 313 0 108 210 b 607 996 108 788 313 996 b 1089 649 826 996 1022 857 b 1110 638 1092 639 1100 635 b 1121 658 1118 639 1124 650 z m 329 336 l 329 336 b 607 172 386 236 492 172 b 928 499 786 172 928 321 b 607 824 928 675 786 824 b 329 661 492 824 386 761 b 335 638 325 653 328 643 b 358 644 343 633 354 636 b 607 792 408 735 503 792 b 894 499 768 792 894 658 b 607 206 894 339 768 206 b 358 353 503 206 408 263 b 335 358 354 360 343 363 b 329 336 328 354 325 343 z m 461 1281 b 428 1281 461 1300 428 1297 b 601 1126 428 1196 497 1126 b 774 1281 703 1126 772 1199 b 740 1281 772 1300 740 1299 b 601 1160 738 1215 685 1160 b 461 1281 515 1160 463 1214 z "},"Ő":{"ha":1197,"x_min":0,"x_max":0,"o":"m 1121 658 l 1121 658 b 607 1029 1050 879 839 1029 b 76 499 293 1029 76 804 b 607 -33 76 192 293 -33 b 1121 339 839 -33 1050 115 b 1110 360 1124 347 1118 357 b 1089 349 1100 363 1092 358 b 607 0 1022 139 826 0 b 108 499 313 0 108 210 b 607 996 108 788 313 996 b 1089 649 826 996 1022 857 b 1110 638 1092 639 1100 635 b 1121 658 1118 639 1124 650 z m 329 336 l 329 336 b 607 172 386 236 492 172 b 928 499 786 172 928 321 b 607 824 928 675 786 824 b 329 661 492 824 386 761 b 335 638 325 653 328 643 b 358 644 343 633 354 636 b 607 792 408 735 503 792 b 894 499 768 792 894 658 b 607 206 894 339 768 206 b 358 353 503 206 408 263 b 335 358 354 360 343 363 b 329 336 328 354 325 343 z m 497 1161 b 497 1139 492 1154 492 1146 b 521 1140 504 1132 515 1131 l 619 1253 b 617 1276 626 1258 626 1268 b 596 1274 611 1282 603 1282 z m 699 1160 b 699 1136 693 1153 693 1143 b 722 1139 706 1129 717 1129 l 829 1253 b 826 1276 836 1258 836 1268 b 806 1274 821 1282 813 1282 z "},"ō":{"ha":1197,"x_min":0,"x_max":0,"o":"m 1121 658 l 1121 658 b 607 1029 1050 879 839 1029 b 76 499 293 1029 76 804 b 607 -33 76 192 293 -33 b 1121 339 839 -33 1050 115 b 1110 360 1124 347 1118 357 b 1089 349 1100 363 1092 358 b 607 0 1022 139 826 0 b 108 499 313 0 108 210 b 607 996 108 788 313 996 b 1089 649 826 996 1022 857 b 1110 638 1092 639 1100 635 b 1121 658 1118 639 1124 650 z m 329 336 l 329 336 b 607 172 386 236 492 172 b 928 499 786 172 928 321 b 607 824 928 675 786 824 b 329 661 492 824 386 761 b 335 638 325 653 328 643 b 358 644 343 633 354 636 b 607 792 408 735 503 792 b 894 499 768 792 894 658 b 607 206 894 339 768 206 b 358 353 503 206 408 263 b 335 358 354 360 343 363 b 329 336 328 354 325 343 z m 774 1156 b 793 1172 785 1156 793 1164 b 774 1189 793 1182 785 1189 l 453 1189 b 432 1172 442 1189 432 1182 b 453 1156 432 1164 442 1156 z "},"ŏ":{"ha":1197,"x_min":0,"x_max":0,"o":"m 1121 658 l 1121 658 b 607 1029 1050 879 839 1029 b 76 499 293 1029 76 804 b 607 -33 76 192 293 -33 b 1121 339 839 -33 1050 115 b 1110 360 1124 347 1118 357 b 1089 349 1100 363 1092 358 b 607 0 1022 139 826 0 b 108 499 313 0 108 210 b 607 996 108 788 313 996 b 1089 649 826 996 1022 857 b 1110 638 1092 639 1100 635 b 1121 658 1118 639 1124 650 z m 329 336 l 329 336 b 607 172 386 236 492 172 b 928 499 786 172 928 321 b 607 824 928 675 786 824 b 329 661 492 824 386 761 b 335 638 325 653 328 643 b 358 644 343 633 354 636 b 607 792 408 735 503 792 b 894 499 768 792 894 658 b 607 206 894 339 768 206 b 358 353 503 206 408 263 b 335 358 354 360 343 363 b 329 336 328 354 325 343 z m 461 1281 b 428 1281 461 1300 428 1297 b 601 1126 428 1196 497 1126 b 774 1281 703 1126 772 1199 b 740 1281 772 1300 740 1299 b 601 1160 738 1215 685 1160 b 461 1281 515 1160 463 1214 z "},"ő":{"ha":1197,"x_min":0,"x_max":0,"o":"m 1121 658 l 1121 658 b 607 1029 1050 879 839 1029 b 76 499 293 1029 76 804 b 607 -33 76 192 293 -33 b 1121 339 839 -33 1050 115 b 1110 360 1124 347 1118 357 b 1089 349 1100 363 1092 358 b 607 0 1022 139 826 0 b 108 499 313 0 108 210 b 607 996 108 788 313 996 b 1089 649 826 996 1022 857 b 1110 638 1092 639 1100 635 b 1121 658 1118 639 1124 650 z m 329 336 l 329 336 b 607 172 386 236 492 172 b 928 499 786 172 928 321 b 607 824 928 675 786 824 b 329 661 492 824 386 761 b 335 638 325 653 328 643 b 358 644 343 633 354 636 b 607 792 408 735 503 792 b 894 499 768 792 894 658 b 607 206 894 339 768 206 b 358 353 503 206 408 263 b 335 358 354 360 343 363 b 329 336 328 354 325 343 z m 497 1161 b 497 1139 492 1154 492 1146 b 521 1140 504 1132 515 1131 l 619 1253 b 617 1276 626 1258 626 1268 b 596 1274 611 1282 603 1282 z m 699 1160 b 699 1136 693 1153 693 1143 b 722 1139 706 1129 717 1129 l 829 1253 b 826 1276 836 1258 836 1268 b 806 1274 821 1282 813 1282 z "},"Ŕ":{"ha":863,"x_min":0,"x_max":0,"o":"m 500 581 l 500 581 b 618 694 565 581 618 629 b 500 810 618 761 565 810 l 325 810 b 325 778 304 810 304 778 l 500 778 b 586 694 547 778 586 743 b 500 611 586 647 547 611 l 444 611 b 428 596 435 611 428 604 b 444 581 428 588 435 581 z m 596 10 l 596 10 l 338 354 b 315 358 332 361 322 363 b 310 344 311 354 308 349 l 310 0 b 325 -17 310 -8 317 -17 b 342 0 333 -17 342 -8 l 342 297 l 569 -8 b 593 -12 575 -17 586 -18 b 596 10 600 -7 601 3 z m 143 0 l 143 0 l 143 976 l 517 976 b 794 694 672 976 794 849 b 517 414 794 542 672 414 b 501 397 508 414 501 407 b 506 386 501 393 503 389 l 811 -8 b 835 -11 818 -17 828 -18 b 838 10 842 -7 843 3 l 550 382 b 828 694 708 399 828 536 b 517 1010 828 867 690 1010 l 126 1010 b 111 993 118 1010 111 1001 l 111 0 b 126 -17 111 -8 118 -17 b 143 0 136 -17 143 -8 z m 368 1122 b 368 1099 363 1115 363 1106 b 392 1101 375 1092 386 1092 l 532 1249 b 529 1272 539 1254 539 1264 b 508 1269 524 1278 515 1278 z "},"Ř":{"ha":863,"x_min":0,"x_max":0,"o":"m 500 581 l 500 581 b 618 694 565 581 618 629 b 500 810 618 761 565 810 l 325 810 b 325 778 304 810 304 778 l 500 778 b 586 694 547 778 586 743 b 500 611 586 647 547 611 l 444 611 b 428 596 435 611 428 604 b 444 581 428 588 435 581 z m 596 10 l 596 10 l 338 354 b 315 358 332 361 322 363 b 310 344 311 354 308 349 l 310 0 b 325 -17 310 -8 317 -17 b 342 0 333 -17 342 -8 l 342 297 l 569 -8 b 593 -12 575 -17 586 -18 b 596 10 600 -7 601 3 z m 143 0 l 143 0 l 143 976 l 517 976 b 794 694 672 976 794 849 b 517 414 794 542 672 414 b 501 397 508 414 501 407 b 506 386 501 393 503 389 l 811 -8 b 835 -11 818 -17 828 -18 b 838 10 842 -7 843 3 l 550 382 b 828 694 708 399 828 536 b 517 1010 828 867 690 1010 l 126 1010 b 111 993 118 1010 111 1001 l 111 0 b 126 -17 111 -8 118 -17 b 143 0 136 -17 143 -8 z m 408 1129 l 265 1244 b 243 1243 260 1251 250 1250 b 244 1221 238 1235 239 1228 l 397 1093 b 419 1093 406 1088 411 1086 l 574 1221 b 575 1242 579 1228 581 1233 b 553 1244 572 1249 558 1251 z "},"ŕ":{"ha":863,"x_min":0,"x_max":0,"o":"m 500 581 l 500 581 b 618 694 565 581 618 629 b 500 810 618 761 565 810 l 325 810 b 325 778 304 810 304 778 l 500 778 b 586 694 547 778 586 743 b 500 611 586 647 547 611 l 444 611 b 428 596 435 611 428 604 b 444 581 428 588 435 581 z m 596 10 l 596 10 l 338 354 b 315 358 332 361 322 363 b 310 344 311 354 308 349 l 310 0 b 325 -17 310 -8 317 -17 b 342 0 333 -17 342 -8 l 342 297 l 569 -8 b 593 -12 575 -17 586 -18 b 596 10 600 -7 601 3 z m 143 0 l 143 0 l 143 976 l 517 976 b 794 694 672 976 794 849 b 517 414 794 542 672 414 b 501 397 508 414 501 407 b 506 386 501 393 503 389 l 811 -8 b 835 -11 818 -17 828 -18 b 838 10 842 -7 843 3 l 550 382 b 828 694 708 399 828 536 b 517 1010 828 867 690 1010 l 126 1010 b 111 993 118 1010 111 1001 l 111 0 b 126 -17 111 -8 118 -17 b 143 0 136 -17 143 -8 z m 368 1122 b 368 1099 363 1115 363 1106 b 392 1101 375 1092 386 1092 l 532 1249 b 529 1272 539 1254 539 1264 b 508 1269 524 1278 515 1278 z "},"ŗ":{"ha":863,"x_min":0,"x_max":0,"o":"m 394 -311 b 421 -324 386 -333 414 -340 l 490 -126 b 461 -117 499 -106 467 -96 z m 500 581 l 500 581 b 618 694 565 581 618 629 b 500 810 618 761 565 810 l 325 810 b 325 778 304 810 304 778 l 500 778 b 586 694 547 778 586 743 b 500 611 586 647 547 611 l 444 611 b 428 596 435 611 428 604 b 444 581 428 588 435 581 z m 596 10 l 596 10 l 338 354 b 315 358 332 361 322 363 b 310 344 311 354 308 349 l 310 0 b 325 -17 310 -8 317 -17 b 342 0 333 -17 342 -8 l 342 297 l 569 -8 b 593 -12 575 -17 586 -18 b 596 10 600 -7 601 3 z m 143 0 l 143 0 l 143 976 l 517 976 b 794 694 672 976 794 849 b 517 414 794 542 672 414 b 501 397 508 414 501 407 b 506 386 501 393 503 389 l 811 -8 b 835 -11 818 -17 828 -18 b 838 10 842 -7 843 3 l 550 382 b 828 694 708 399 828 536 b 517 1010 828 867 690 1010 l 126 1010 b 111 993 118 1010 111 1001 l 111 0 b 126 -17 111 -8 118 -17 b 143 0 136 -17 143 -8 z "},"ř":{"ha":863,"x_min":0,"x_max":0,"o":"m 500 581 l 500 581 b 618 694 565 581 618 629 b 500 810 618 761 565 810 l 325 810 b 325 778 304 810 304 778 l 500 778 b 586 694 547 778 586 743 b 500 611 586 647 547 611 l 444 611 b 428 596 435 611 428 604 b 444 581 428 588 435 581 z m 596 10 l 596 10 l 338 354 b 315 358 332 361 322 363 b 310 344 311 354 308 349 l 310 0 b 325 -17 310 -8 317 -17 b 342 0 333 -17 342 -8 l 342 297 l 569 -8 b 593 -12 575 -17 586 -18 b 596 10 600 -7 601 3 z m 143 0 l 143 0 l 143 976 l 517 976 b 794 694 672 976 794 849 b 517 414 794 542 672 414 b 501 397 508 414 501 407 b 506 386 501 393 503 389 l 811 -8 b 835 -11 818 -17 828 -18 b 838 10 842 -7 843 3 l 550 382 b 828 694 708 399 828 536 b 517 1010 828 867 690 1010 l 126 1010 b 111 993 118 1010 111 1001 l 111 0 b 126 -17 111 -8 118 -17 b 143 0 136 -17 143 -8 z m 408 1129 l 265 1244 b 243 1243 260 1251 250 1250 b 244 1221 238 1235 239 1228 l 397 1093 b 419 1093 406 1088 411 1086 l 574 1221 b 575 1242 579 1228 581 1233 b 553 1244 572 1249 558 1251 z "},"Ś":{"ha":764,"x_min":0,"x_max":0,"o":"m 74 51 l 74 51 b 232 -6 129 24 182 6 b 708 294 485 -65 708 43 b 342 644 708 546 404 597 b 311 703 322 660 311 682 b 389 781 310 750 347 775 b 588 742 454 788 539 761 b 600 771 607 733 619 763 b 390 813 519 804 457 817 b 279 699 326 810 276 763 b 596 471 288 572 460 599 b 599 93 714 363 693 189 b 90 79 475 -31 250 -4 b 74 51 71 89 56 61 z m 625 971 l 625 971 b 471 1010 560 993 510 1004 b 79 696 247 1040 79 911 b 449 347 79 438 383 401 b 453 238 481 318 486 268 b 117 286 383 174 204 225 b 99 260 100 297 81 272 b 388 178 188 194 300 172 b 507 293 453 182 511 228 b 193 515 499 421 329 397 b 185 894 74 622 96 799 b 614 942 294 1014 465 993 b 625 971 633 933 644 964 z m 358 1125 b 358 1101 353 1118 353 1108 b 382 1104 365 1094 376 1094 l 522 1251 b 519 1275 529 1257 529 1267 b 499 1272 514 1281 506 1281 z "},"Ŝ":{"ha":764,"x_min":0,"x_max":0,"o":"m 74 51 b 90 79 56 61 71 89 b 599 93 250 -4 475 -31 b 596 471 693 189 714 363 b 279 699 460 599 288 572 b 390 813 276 763 326 810 b 600 771 457 817 519 804 b 588 742 619 763 607 733 b 389 781 539 761 454 788 b 311 703 347 775 310 750 b 342 644 311 682 322 660 b 708 294 404 597 708 546 b 232 -6 708 43 485 -65 b 74 51 182 6 129 24 l 74 51 z m 625 971 b 614 942 644 964 633 933 b 185 894 465 993 294 1014 b 193 515 96 799 74 622 b 507 293 329 397 499 421 b 388 178 511 228 453 182 b 99 260 300 172 188 194 b 117 286 81 272 100 297 b 453 238 204 225 383 174 b 449 347 486 268 481 318 b 79 696 383 401 79 438 b 471 1010 79 911 247 1040 b 625 971 510 1004 560 993 l 625 971 z m 533 1101 b 554 1101 539 1094 551 1094 b 554 1125 560 1110 560 1118 l 400 1253 b 378 1253 394 1256 383 1256 l 225 1125 b 222 1101 219 1118 217 1110 b 246 1101 229 1094 240 1094 l 389 1217 z "},"Ş":{"ha":764,"x_min":0,"x_max":0,"o":"m 74 51 b 232 -6 129 24 182 6 b 371 -21 279 -17 326 -22 l 351 -132 b 374 -151 351 -143 363 -151 b 510 -187 442 -143 486 -157 b 465 -301 543 -233 515 -282 b 274 -261 421 -317 357 -310 b 251 -267 265 -258 254 -261 b 257 -290 244 -276 249 -285 b 474 -332 349 -344 421 -350 b 538 -169 550 -304 581 -233 b 389 -119 510 -133 463 -117 l 404 -19 b 708 294 578 -6 708 103 b 342 644 708 546 404 597 b 311 703 322 660 311 682 b 389 781 310 750 347 775 b 588 742 454 788 539 761 b 600 771 607 733 619 763 b 390 813 519 804 457 817 b 279 699 326 810 276 763 b 596 471 288 572 460 599 b 599 93 714 363 693 189 b 90 79 475 -31 250 -4 b 74 51 71 89 56 61 z m 625 971 b 471 1010 560 993 510 1004 b 79 696 247 1040 79 911 b 449 347 79 438 383 401 b 453 238 481 318 486 268 b 117 286 383 174 204 225 b 99 260 100 297 81 272 b 388 178 188 194 300 172 b 507 293 453 182 511 228 b 193 515 499 421 329 397 b 185 894 74 622 96 799 b 614 942 294 1014 465 993 b 625 971 633 933 644 964 z "},"ś":{"ha":764,"x_min":0,"x_max":0,"o":"m 74 51 l 74 51 b 232 -6 129 24 182 6 b 708 294 485 -65 708 43 b 342 644 708 546 404 597 b 311 703 322 660 311 682 b 389 781 310 750 347 775 b 588 742 454 788 539 761 b 600 771 607 733 619 763 b 390 813 519 804 457 817 b 279 699 326 810 276 763 b 596 471 288 572 460 599 b 599 93 714 363 693 189 b 90 79 475 -31 250 -4 b 74 51 71 89 56 61 z m 625 971 l 625 971 b 471 1010 560 993 510 1004 b 79 696 247 1040 79 911 b 449 347 79 438 383 401 b 453 238 481 318 486 268 b 117 286 383 174 204 225 b 99 260 100 297 81 272 b 388 178 188 194 300 172 b 507 293 453 182 511 228 b 193 515 499 421 329 397 b 185 894 74 622 96 799 b 614 942 294 1014 465 993 b 625 971 633 933 644 964 z m 358 1125 b 358 1101 353 1118 353 1108 b 382 1104 365 1094 376 1094 l 522 1251 b 519 1275 529 1257 529 1267 b 499 1272 514 1281 506 1281 z "},"ŝ":{"ha":764,"x_min":0,"x_max":0,"o":"m 74 51 b 90 79 56 61 71 89 b 599 93 250 -4 475 -31 b 596 471 693 189 714 363 b 279 699 460 599 288 572 b 390 813 276 763 326 810 b 600 771 457 817 519 804 b 588 742 619 763 607 733 b 389 781 539 761 454 788 b 311 703 347 775 310 750 b 342 644 311 682 322 660 b 708 294 404 597 708 546 b 232 -6 708 43 485 -65 b 74 51 182 6 129 24 l 74 51 z m 625 971 b 614 942 644 964 633 933 b 185 894 465 993 294 1014 b 193 515 96 799 74 622 b 507 293 329 397 499 421 b 388 178 511 228 453 182 b 99 260 300 172 188 194 b 117 286 81 272 100 297 b 453 238 204 225 383 174 b 449 347 486 268 481 318 b 79 696 383 401 79 438 b 471 1010 79 911 247 1040 b 625 971 510 1004 560 993 l 625 971 z m 533 1101 b 554 1101 539 1094 551 1094 b 554 1125 560 1110 560 1118 l 400 1253 b 378 1253 394 1256 383 1256 l 225 1125 b 222 1101 219 1118 217 1110 b 246 1101 229 1094 240 1094 l 389 1217 z "},"ş":{"ha":764,"x_min":0,"x_max":0,"o":"m 74 51 b 232 -6 129 24 182 6 b 371 -21 279 -17 326 -22 l 351 -132 b 374 -151 351 -143 363 -151 b 510 -187 442 -143 486 -157 b 465 -301 543 -233 515 -282 b 274 -261 421 -317 357 -310 b 251 -267 265 -258 254 -261 b 257 -290 244 -276 249 -285 b 474 -332 349 -344 421 -350 b 538 -169 550 -304 581 -233 b 389 -119 510 -133 463 -117 l 404 -19 b 708 294 578 -6 708 103 b 342 644 708 546 404 597 b 311 703 322 660 311 682 b 389 781 310 750 347 775 b 588 742 454 788 539 761 b 600 771 607 733 619 763 b 390 813 519 804 457 817 b 279 699 326 810 276 763 b 596 471 288 572 460 599 b 599 93 714 363 693 189 b 90 79 475 -31 250 -4 b 74 51 71 89 56 61 z m 625 971 b 471 1010 560 993 510 1004 b 79 696 247 1040 79 911 b 449 347 79 438 383 401 b 453 238 481 318 486 268 b 117 286 383 174 204 225 b 99 260 100 297 81 272 b 388 178 188 194 300 172 b 507 293 453 182 511 228 b 193 515 499 421 329 397 b 185 894 74 622 96 799 b 614 942 294 1014 465 993 b 625 971 633 933 644 964 z "},"Ţ":{"ha":792,"x_min":0,"x_max":0,"o":"m 489 810 b 474 794 481 810 474 803 l 474 3 l 397 -112 b 415 -139 385 -122 392 -147 b 543 -257 475 -132 572 -175 b 489 -314 535 -282 515 -304 b 297 -274 444 -329 381 -322 b 275 -279 289 -271 278 -274 b 281 -303 268 -289 272 -297 b 497 -344 372 -357 444 -362 b 576 -261 539 -329 567 -297 b 440 -107 599 -179 539 -115 l 497 -17 b 506 15 506 0 506 1 l 506 776 l 738 776 b 753 794 746 776 753 785 b 738 810 753 803 746 810 z m 275 776 l 275 0 b 292 -15 275 -8 282 -15 b 307 0 300 -15 307 -8 l 307 794 b 292 810 307 803 300 810 l 43 810 b 28 794 35 810 28 803 b 43 776 28 785 35 776 z m 736 976 b 753 992 746 976 753 983 b 736 1007 753 1000 746 1007 l 43 1007 b 28 992 35 1007 28 1000 b 43 976 28 983 35 976 z "},"ţ":{"ha":792,"x_min":0,"x_max":0,"o":"m 489 810 b 474 794 481 810 474 803 l 474 3 l 397 -112 b 415 -139 385 -122 392 -147 b 543 -257 475 -132 572 -175 b 489 -314 535 -282 515 -304 b 297 -274 444 -329 381 -322 b 275 -279 289 -271 278 -274 b 281 -303 268 -289 272 -297 b 497 -344 372 -357 444 -362 b 576 -261 539 -329 567 -297 b 440 -107 599 -179 539 -115 l 497 -17 b 506 15 506 0 506 1 l 506 776 l 738 776 b 753 794 746 776 753 785 b 738 810 753 803 746 810 z m 275 776 l 275 0 b 292 -15 275 -8 282 -15 b 307 0 300 -15 307 -8 l 307 794 b 292 810 307 803 300 810 l 43 810 b 28 794 35 810 28 803 b 43 776 28 785 35 776 z m 736 976 b 753 992 746 976 753 983 b 736 1007 753 1000 746 1007 l 43 1007 b 28 992 35 1007 28 1000 b 43 976 28 983 35 976 z "},"Ť":{"ha":792,"x_min":0,"x_max":0,"o":"m 738 810 l 738 810 l 489 810 b 474 794 481 810 474 803 l 474 0 b 489 -15 474 -8 481 -15 b 504 0 497 -15 504 -8 l 504 776 l 738 776 b 753 794 746 776 753 785 b 738 810 753 803 746 810 z m 43 976 l 43 976 l 736 976 b 753 992 746 976 753 983 b 736 1007 753 1000 746 1007 l 43 1007 b 28 992 35 1007 28 1000 b 43 976 28 983 35 976 z m 43 776 l 43 776 l 275 776 l 275 0 b 292 -15 275 -8 282 -15 b 307 0 300 -15 307 -8 l 307 794 b 292 810 307 803 300 810 l 43 810 b 28 794 35 810 28 803 b 43 776 28 785 35 776 z m 385 1121 l 242 1236 b 219 1235 236 1243 226 1242 b 221 1213 214 1226 215 1219 l 374 1085 b 396 1085 382 1079 388 1078 l 550 1213 b 551 1233 556 1219 557 1225 b 529 1236 549 1240 535 1243 z "},"Ŧ":{"ha":792,"x_min":0,"x_max":0,"o":"m 275 776 l 275 456 l 142 456 b 125 440 133 456 125 449 b 142 424 125 432 133 424 l 275 424 l 275 0 b 292 -15 275 -8 282 -15 b 307 0 300 -15 307 -8 l 307 794 b 292 810 307 803 300 810 l 43 810 b 28 794 35 810 28 803 b 43 776 28 785 35 776 z m 489 810 b 474 794 481 810 474 803 l 474 0 b 489 -15 474 -8 481 -15 b 504 0 497 -15 504 -8 l 504 424 l 640 424 b 656 440 649 424 656 432 b 640 456 656 449 649 456 l 504 456 l 504 776 l 738 776 b 753 794 746 776 753 785 b 738 810 753 803 746 810 z m 736 976 b 753 992 746 976 753 983 b 736 1007 753 1000 746 1007 l 43 1007 b 28 992 35 1007 28 1000 b 43 976 28 983 35 976 z "},"ť":{"ha":792,"x_min":0,"x_max":0,"o":"m 738 810 l 738 810 l 489 810 b 474 794 481 810 474 803 l 474 0 b 489 -15 474 -8 481 -15 b 504 0 497 -15 504 -8 l 504 776 l 738 776 b 753 794 746 776 753 785 b 738 810 753 803 746 810 z m 43 976 l 43 976 l 736 976 b 753 992 746 976 753 983 b 736 1007 753 1000 746 1007 l 43 1007 b 28 992 35 1007 28 1000 b 43 976 28 983 35 976 z m 43 776 l 43 776 l 275 776 l 275 0 b 292 -15 275 -8 282 -15 b 307 0 300 -15 307 -8 l 307 794 b 292 810 307 803 300 810 l 43 810 b 28 794 35 810 28 803 b 43 776 28 785 35 776 z m 385 1121 l 242 1236 b 219 1235 236 1243 226 1242 b 221 1213 214 1226 215 1219 l 374 1085 b 396 1085 382 1079 388 1078 l 550 1213 b 551 1233 556 1219 557 1225 b 529 1236 549 1240 535 1243 z "},"ŧ":{"ha":792,"x_min":0,"x_max":0,"o":"m 275 776 l 275 456 l 142 456 b 125 440 133 456 125 449 b 142 424 125 432 133 424 l 275 424 l 275 0 b 292 -15 275 -8 282 -15 b 307 0 300 -15 307 -8 l 307 794 b 292 810 307 803 300 810 l 43 810 b 28 794 35 810 28 803 b 43 776 28 785 35 776 z m 489 810 b 474 794 481 810 474 803 l 474 0 b 489 -15 474 -8 481 -15 b 504 0 497 -15 504 -8 l 504 424 l 640 424 b 656 440 649 424 656 432 b 640 456 656 449 649 456 l 504 456 l 504 776 l 738 776 b 753 794 746 776 753 785 b 738 810 753 803 746 810 z m 736 976 b 753 992 746 976 753 983 b 736 1007 753 1000 746 1007 l 43 1007 b 28 992 35 1007 28 1000 b 43 976 28 983 35 976 z "}}}
